<?xml version="1.0" encoding="utf-8"?>
<!-- Generator: Adobe Illustrator 19.2.0, SVG Export Plug-In . SVG Version: 6.00 Build 0)  -->
<svg version="1.1" id="Layer_1" xmlns="http://www.w3.org/2000/svg" xmlns:xlink="http://www.w3.org/1999/xlink" x="0px" y="0px"
	 viewBox="0 0 121.7 103.2" style="enable-background:new 0 0 121.7 103.2;" xml:space="preserve">
<style type="text/css">
	.st0{opacity:0.55;}
	.st1{fill-rule:evenodd;clip-rule:evenodd;fill:#AAAAAA;}
</style>
<g class="st0">
	<path class="st1" d="M22.8,94.6l37-4.5c0.1,0,0.1,0,0.2,0L98,100.7c0.2,0,0.3,0.3,0.3,0.4c0,0.2-0.2,0.3-0.3,0.3v0l-42.2,1.8
		c0,0-0.1,0-0.1,0l-32.9-7.9c-0.2,0-0.3-0.2-0.3-0.4C22.5,94.7,22.7,94.6,22.8,94.6L22.8,94.6z"/>
	<path class="st1" d="M59,86.6l8.6-63.3c0.3-2.2-3.1-0.8-4-0.6c-5.6,11.7-32.6,26.1-37.5,22c-2-1.7-3.6-6.9-4.7-11.8
		c-0.7,0.2-1.7,0.3-1.7,1.3l-1.3,57.3l1.3,1.1l38.3-5C58.6,87.5,58.9,87.1,59,86.6z"/>
	<path class="st1" d="M70.9,22.9l-9.1,63.8c-0.1,0.6,0.3,1.1,0.8,1.2l40.5,11.4l1.4-0.8l17.3-63.7l-0.8-1.4L72.2,21.9L70.9,22.9
		L70.9,22.9z M89.3,61.5c-9.8-3.7-11.9-16.9-11.6-26.3c-1.1-0.6-0.3-3.5,1.2-3.5c1.1,0,2.2,2.3,0.8,3.6c-0.2,9,2.8,23.4,13,24
		c8.7,0.5,15.3-9.8,18.1-17.2c-0.8-1.6,0.8-3.2,1.8-3.2c1.5,0.1,2.1,2.7,0.5,3.8c0.3-0.7,0.2-1.4,0.2-1.4
		C110.2,50.1,100.8,65.8,89.3,61.5z"/>
	<path class="st1" d="M83.9,20.8c10.7,2.7,21.5,5.7,32.3,8.3c2.3-7.1-7.8-16.7-14.6-20.9c-8.7-5.4-19.3-8.5-30.2-9
		c0,1.3,1.2,4.5,5,7.8c3.7,3.3,9.7,6.8,18.9,8.9c-5.5,0-10.1-0.7-15.2-3.1C79.5,16.2,81.3,18.8,83.9,20.8z"/>
	<path class="st1" d="M61.2,19.3c0.9-4.4-3.2-8.7-7.9-11.6C39.4-1.2,17.9-2,0,3.2c0.7,2.5,9.3,10.5,31.6,8.4
		c-6.2,1.9-11.7,2.8-18.2,2.2C14,23.7,34.6,22,34.6,22c-4.6,1.4-6.3,2.1-11.4,1.9l0.9,5.2c0.8,4.1,2.4,11.3,4.2,12.9l0,0
		c2,0.4,7.3-1.5,13.2-4.6c6.5-3.5,16.7-10.2,19.3-16.7L61.2,19.3L61.2,19.3z"/>
</g>
</svg>
