<?xml version="1.0" encoding="utf-8"?>
<!-- Generator: Adobe Illustrator 19.1.0, SVG Export Plug-In . SVG Version: 6.00 Build 0)  -->
<svg version="1.1" id="Layer_1" xmlns="http://www.w3.org/2000/svg" xmlns:xlink="http://www.w3.org/1999/xlink" x="0px" y="0px"
	 viewBox="0 0 800 600" enable-background="new 0 0 800 600" xml:space="preserve">
<path fill-rule="evenodd" clip-rule="evenodd" fill="#FFFFFF" d="M774.7,213.1c-42-9.9-83.6-19.7-124.6-29.4
	c-40.4-9.6-80.4-19.1-119.9-28.5c-1.6-0.4-3.1-0.1-4.5,0.8c-1.4,0.9-2.2,2.2-2.4,3.9c-8.9,61.3-17.2,119.2-25,173.9
	c-7.4,51.5-14.3,100.5-20.9,146.9c-0.4,2.8,1.3,5.5,4.1,6.2c33.2,9.3,66.9,18.9,100.7,28.3c34,9.5,68.4,19.2,103,28.9
	c1.5,0.4,3,0.3,4.3-0.5c1.4-0.8,2.3-1.9,2.7-3.4c12.5-46,25.6-94.5,39.5-145.6c14.8-54.8,30.6-112.8,47.3-174.4
	c0.4-1.5,0.2-3-0.6-4.4C777.5,214.3,776.3,213.5,774.7,213.1L774.7,213.1z M736.2,252.6c-12.5,36.1-39.7,82.9-75.8,99.5
	c-13.6,6.2-28.5,7.9-44.2,2c-48-18-58.7-80.8-58.3-126.6c0-1.8,0-3.6,0.1-5.5c-2.6-1.4-2.8-5-2.6-7.7c0.3-4.2,4.1-10,8.5-9.8
	c4.4,0.1,7.5,6,7.2,10.4c-0.3,4.3-1.5,5.9-3.4,7.6c0,1.5-0.1,2.9-0.1,4.4c-0.2,16.8,1.4,32.4,4.6,46.4c3.1,13.9,7.9,26.2,13.8,36.4
	c5.8,10,12.7,18.1,20.7,23.9c7.9,5.7,16.8,9.1,26.4,9.7c1.2,0.1,2.4,0.1,3.9,0.1c8.5-0.2,17.1-2.5,25.4-6.8
	c8.4-4.3,16.6-10.5,24.4-18.5c7.3-7.4,14.2-16.4,20.4-26.6c6.3-10.3,11.9-22,16.7-34.8c-0.8-1.7-1.4-2.2-0.9-6.1
	c0.5-4,5-10.1,9.7-9.9c4.7,0.2,7.7,5.9,7.1,10.6c-0.6,4.7-2.1,6.6-4.8,8.3C736.3,255.8,736.2,252.6,736.2,252.6L736.2,252.6z
	 M283.9,165.1c0.9,5.8,2.4,15.1,4.4,25.6l0,0.2l0.1,0.2l0,0l0,0.2l0,0.2l0,0.2l0,0.2l0,0.2l0,0.2l0,0.2v0.1l0,0.2l0,0.2l0,0.2
	l0.1,0.2l0,0.2l0,0.2l0.1,0.2l0,0.1l0,0.1l0,0.2l0,0.2l0,0.2l0.1,0.2l0,0.2l0,0.2l0,0.2l0,0.1l0.1,0.2l0,0.2l0.1,0.3l0,0.2l0,0.2
	l0,0.2l0.1,0.5l0,0.2l0.1,0.2l0,0.2l0,0.2l0.1,0.5v0l0.1,0.4l0,0.2l0,0.2l0.1,0.2l0.1,0.3l0.1,0.3l0,0.1l0,0.2l0.1,0.3l0,0.2l0,0.3
	l0.1,0.2l0,0.2l0,0.2l0,0.1l0.1,0.2l0.1,0.5l0,0.3l0,0.2l0.1,0.3l0,0.2l0,0l0,0.2l0.1,0.2l0.1,0.2l0,0.2c4.7,21.6,11,43.8,18,50.1
	l0-0.1c0,0,0,0,0,0c9.8,1.9,36.7-7.6,66.3-23.3c30.5-16.1,63-38.6,82.7-61.8c6.4-7.5,11.3-15.1,14.3-22.4l0,0v0
	c0.9-2.2,1.5-4.5,2-6.7l0.2,0l0.2-1c0.9-4.7,0.6-9.7-0.9-14.7c-4.4-14.4-18.1-29.4-38.9-42.6c-21.7-13.7-50.9-25.3-85.4-32.1
	c-51.7-10.2-115.1-9.8-182.7,9.6c3.6,12.8,46.9,52.7,158.9,42.3c-31.4,9.7-58.7,14.2-91.6,11.1c2.9,49.6,106.4,41.3,106.7,41.2
	C318.2,162.6,309.3,166.1,283.9,165.1L283.9,165.1z M266.3,163.2c-25-4.6-49.4-14.7-49.1-51.2c-71.3-12.5-67.8-57.7-67.8-57.9
	l0.4-5.9l5.6-1.7c73.2-22.3,142-23.1,197.9-12c36.6,7.2,67.8,19.7,91.3,34.5c24.3,15.4,40.5,33.7,46.1,52c1.8,5.7,2.5,11.4,2.1,17
	c8.1-1.8,16.2-3.6,24.4-5.7c0.9-0.2,1.7-0.2,2.7,0c13.7,3.2,27.4,6.6,41.2,10c-6.5-9.5-9.3-22-4.8-39.2
	c-28.5-16-39.8-34.3-43.8-48.7c-4-14.6-0.7-25.1-0.7-25.2c0.6-1.8,1.1-3.6,1.7-5.5c1.8,0.1,3.5,0.1,5.3,0.2
	c34.1,0.9,65.5,6.6,93.6,15.3c27.6,8.6,52,20.1,72.6,33.2c26.5,16.8,47.1,36.2,60.8,55.2c13.9,19.4,21,38.8,20.4,55.3
	c-0.2,4-0.8,7.9-1.9,11.6c10,2.4,19.9,4.8,29.9,7.1c0.5,0.1,1,0.2,1.5,0.4c1.6,0.4,2.7,1.3,3.5,2.6c0.8,1.4,1,2.8,0.6,4.4
	c-0.5,1.7-0.9,3.4-1.4,5c-19.2,68.5-34.3,122.6-51.1,182.8c-15.6,55.9-30.4,108.6-44.3,158.3c-0.3,1.2-0.9,2.1-1.9,2.9
	c-2.3,1.9-4.7,3.8-7,5.7c-1,0.8-2.1,1.2-3.3,1.3c-44.1,2.2-87.1,4.5-128.9,6.7c-41.3,2.1-81.7,4.2-121,6.2c-0.3,0-0.5,0-0.8,0
	c-0.2,0-0.5-0.1-0.8-0.2c-31.6-8.4-63.1-16.9-94.2-25.2c-30.1-8-60-16.1-89.5-24c-1.4-0.4-2.4-1.1-3.2-2.3c-1.2-1.8-2.3-3.5-3.5-5.2
	c-0.7-1-1-2-1-3.2c0.7-45.4,1.5-93.2,2.3-143.6c0.8-53.9,2.3-103.9,3.3-164.4c0-1.7,0.1-3.4,0.1-5.1c0-2.6,1.7-4.8,4.3-5.4
	c0.5-0.1,1.1-0.3,1.7-0.4c4.1-1,8.3-2.1,12.5-3.3C268.9,180.7,267,168.1,266.3,163.2L266.3,163.2z M486.9,159l13.1-3.2
	c1.9-0.5,3.7,0,5.1,1.3c1.4,1.3,2.1,3,1.8,5c-8.3,60.3-16.1,117.3-23.3,171.2c-7,51.6-13.6,100.6-19.8,147.1
	c-0.3,2.6-2.3,4.5-4.9,4.8c-34.6,4.5-68.3,9-101.2,13.3c-31.2,4.1-61.7,8.1-91.5,12c-1.7,0.2-3.2-0.2-4.5-1.4
	c-1.3-1.1-1.9-2.6-1.9-4.3c0.9-41.7,1.9-85.4,3-131.3c1.1-49.5,2.3-101.8,3.5-156.9c0.1-2.6,1.8-4.8,4.3-5.4l4.4-1.1
	c5.6,24.7,13.7,51.1,23.5,59.4c2,1.7,4.6,2.9,7.5,3.5c13.4,2.7,44.8-7.6,77.7-25c32.1-17,66.6-40.8,87.8-65.8
	C478,174.5,483.2,166.7,486.9,159L486.9,159z M309.4,256.2L309.4,256.2c0.1,0.1,0.4,0.4,0.2,0.2L309.4,256.2L309.4,256.2z
	 M751.5,191.3c-54.4-13.5-108.7-28.2-162.6-41.9c-13-10-22.3-23-19-39.4c13.1,6,25.5,9.9,38,12.2c12.4,2.3,25,3.2,38.5,3.2
	c-46-10.7-76.1-28.3-94.8-44.9c-19.1-17-25.2-32.8-25.3-39.4c31.2,1.3,59.1,6.6,84.8,14.7c25.3,7.9,47.7,18.5,66.8,30.4
	c25,15.6,44.3,33.6,57.1,51.1c12.1,16.5,18.3,32.5,17.8,45.5C752.8,185.9,752.4,188.7,751.5,191.3z"/>
<path fill-rule="evenodd" clip-rule="evenodd" fill="#FFFFFF" d="M260.9,263.8L1,339.8l258.9-28.6L260.9,263.8L260.9,263.8z
	 M258.1,409.7L90.8,458.6l166.6-18.4l0.6-26.7L258.1,409.7L258.1,409.7z M261.4,336l-0.9,41.4L43.7,402.4L261.4,336z"/>
</svg>
