<?xml version="1.0" encoding="utf-8"?>
<!-- Generator: Adobe Illustrator 19.2.1, SVG Export Plug-In . SVG Version: 6.00 Build 0)  -->
<svg version="1.1" id="Layer_1" xmlns="http://www.w3.org/2000/svg" xmlns:xlink="http://www.w3.org/1999/xlink" x="0px" y="0px"
	 viewBox="0 0 800 600" style="enable-background:new 0 0 800 600;" xml:space="preserve">
<style type="text/css">
	.st0{fill:#6BBA44;}
	.st1{opacity:0.3;fill:#FFFFFF;}
</style>
<rect x="-25" y="-23" class="st0" width="882.8" height="662"/>
<path class="st1" d="M96.8,490.4c0.3-1.6,1.3-3.6,4-5.7l3.1,4c-1.8,1.4-2.3,2.5-2.1,2.9c0.1,0.4,1.1,1.2,3.3,1.6l0.2,0
	c5.4,1,6.9,3.8,7.2,5.4c0.4,1.6,0.4,4.7-3.9,8.1c-1.8,1.4-2.3,2.5-2.1,2.9c0.1,0.4,1.1,1.2,3.3,1.6l0.1,0c5.4,1,6.9,3.8,7.2,5.4
	c0.4,1.6,0.4,4.7-3.9,8.1l-3.1-4c1.8-1.4,2.3-2.5,2.1-2.9c-0.1-0.4-1.1-1.2-3.3-1.6l-0.1,0c-5.4-1-6.9-3.8-7.2-5.4
	c-0.4-1.6-0.4-4.7,3.9-8.1c1.8-1.4,2.3-2.5,2.1-2.9c-0.1-0.4-1.1-1.2-3.3-1.6l-0.2,0c-5.4-1-6.9-3.8-7.2-5.4
	C96.7,492.2,96.6,491.4,96.8,490.4z"/>
<polygon class="st1" points="526.4,713.5 531.5,713.5 528.9,717.9 526.4,722.3 523.8,717.9 521.3,713.5 "/>
<rect x="190.7" y="469.2" class="st1" width="4.3" height="4.3"/>
<path class="st1" d="M551.7,457.3c-2.3,0-5.8-1.7-8.5-6.7c-0.8-1.4-2.4-4.9-0.9-6.9c0.5-0.7,1.4-1.2,2.6-1.3c1.8-0.2,3.8,0.5,5,1.6
	c1,0.9,1.3,2,1.5,2.8c0.1,0.6,0.3,1.2,0.8,1.9c0.8,1,1.7,1.3,2.6,1.7c1,0.4,2.2,0.9,2.4,2.3c0.1,0.8-0.2,1.6-0.8,2.4
	c-1,1.2-2.6,2.1-4.2,2.3l0,0C551.9,457.3,551.8,457.3,551.7,457.3z M545.4,445.2c-0.5,0-0.8,0.1-1,0.2c-0.2,0.3,0,2.1,1.6,4.7
	c1.8,2.9,4.1,4.7,5.8,4.5l0,0c1.1-0.1,2.1-0.9,2.4-1.4c-0.2-0.1-0.4-0.2-0.6-0.3c-1-0.4-2.5-1-3.7-2.5c-0.9-1.1-1.1-2.2-1.3-2.9
	c-0.2-0.7-0.2-1-0.6-1.4C547.3,445.4,546.2,445.2,545.4,445.2z"/>
<path class="st1" d="M133.9,591.1c-2.6,0-5.3-1.4-6.7-3.7c-1.2-2-1.4-4.7-0.5-7.3c0.8-2.2,2.3-3.8,4-4.4l0,0c2-0.7,4.8-0.2,5.7,1.6
	c1,2-0.7,4.2-2.1,5.9c-0.2,0.3-0.5,0.7-0.8,1c0.7-0.2,1.6-0.5,2.3-0.8c2.5-0.9,4.5-1.7,5.5-0.4c0.3,0.4,0.6,1.3,0,2.7
	c-0.8,2.1-3.2,4.6-6.3,5.2C134.8,591.1,134.3,591.1,133.9,591.1z M131.6,578.1c-1,0.3-2,1.5-2.6,3c-0.7,1.8-0.5,3.8,0.3,5.2
	c1.1,1.8,3.4,2.8,5.4,2.5c2.4-0.4,4-2.5,4.4-3.7c-0.7,0.2-1.7,0.6-2.4,0.8c-2.5,0.9-4.7,1.8-5.7,0.3c-0.9-1.3,0.2-2.7,1.4-4.3
	c0.7-1,2.1-2.8,1.8-3.4C134.1,578,132.7,577.7,131.6,578.1L131.6,578.1z"/>
<polygon class="st1" points="360.4,330.1 355.3,324.9 351.5,328.8 348.8,326 355.3,319.5 360.4,324.6 365.6,319.5 372,325.9 
	369.3,328.7 365.6,324.9 "/>
<path class="st1" d="M661.8,466.6c-0.1-0.5-0.1-1.1-0.1-1.6c0-2.7,0.9-6.2,3.7-7.5l0,0c1.7-0.8,3.7-0.8,5.8,0.2
	c1.8,0.8,3.4,2.2,4.4,3.8c2.9,4.5,0.6,10.1-1.2,12.7c-1,1.5-1.9,2.1-2.8,1.9c-1.4-0.3-1.4-1.8-1.3-3.7c0-1,0.1-2.1-0.1-3
	c-0.1-1-0.4-1.1-0.4-1.1c-0.3,0-1.3,0.7-1.7,1c-1.2,0.9-2.6,1.9-4.1,1.2C662.7,469.8,662.1,468.3,661.8,466.6z M666.6,460
	c-1.1,0.6-1.9,2.1-2.1,4.1c-0.2,2.1,0.3,3.5,0.6,3.8c0.3-0.1,1-0.6,1.4-0.9c1.2-0.9,2.8-2,4.5-1.3c1.9,0.8,2.1,3.3,2.1,5.5
	c1.1-2.2,2-5.6,0.3-8.2C671.9,460.8,668.7,458.9,666.6,460L666.6,460z M665.2,468L665.2,468L665.2,468z"/>
<path class="st1" d="M649.6,562.7c-0.4-1.2-0.5-2.9,0.5-5.2l3.6,1.4c-0.6,1.6-0.5,2.5-0.3,2.7c0.2,0.2,1.2,0.4,2.8-0.2l0.2-0.1
	c3.9-1.4,5.9-0.1,6.8,0.8c0.9,0.9,2,3,0.5,6.8c-0.6,1.6-0.5,2.5-0.3,2.7c0.2,0.2,1.2,0.4,2.8-0.2l0.1,0c3.9-1.4,5.9-0.1,6.8,0.8
	c0.9,0.9,2,3,0.5,6.8l-3.6-1.4c0.6-1.6,0.5-2.5,0.3-2.7c-0.2-0.2-1.2-0.4-2.8,0.2l-0.1,0c-3.9,1.4-5.9,0.1-6.8-0.8
	c-0.9-0.9-2-3-0.5-6.8c0.6-1.6,0.5-2.5,0.3-2.7c-0.2-0.2-1.2-0.4-2.8,0.2l-0.2,0.1c-3.9,1.4-5.9,0.1-6.8-0.8
	C650.2,564,649.9,563.5,649.6,562.7z"/>
<circle class="st1" cx="30.3" cy="560.4" r="2.9"/>
<polygon class="st1" points="275,568.9 276.1,572.5 272.5,571.6 268.9,570.8 271.4,568.1 273.9,565.4 "/>
<polygon class="st1" points="6,434.5 7.9,427.5 2.6,426.1 3.6,422.4 12.5,424.7 10.7,431.7 17.8,433.6 15.5,442.4 11.8,441.5 
	13.1,436.3 "/>
<rect x="787" y="639" transform="matrix(0.2018 0.9794 -0.9794 0.2018 1258.9205 -261.3284)" class="st1" width="5.5" height="5.5"/>
<polygon class="st1" points="201.4,549.3 198.4,544.1 200.6,542.8 202.3,545.9 206.4,543.5 208.7,547.5 212.8,545.2 215.7,550.3 
	213.6,551.5 211.9,548.6 207.8,550.9 205.5,546.9 "/>
<path class="st1" d="M93.5,400.1c0.6-2.2,3.1-5.2,8.6-6.6c1.6-0.4,5.4-1.1,6.9,0.8c0.6,0.7,0.8,1.7,0.6,2.8
	c-0.3,1.7-1.4,3.5-2.8,4.4c-1.2,0.8-2.2,0.8-3.1,0.7c-0.7,0-1.2,0-2,0.3c-1.1,0.5-1.7,1.3-2.3,2.1c-0.6,0.8-1.4,1.9-2.8,1.7
	c-0.8-0.1-1.5-0.6-2.1-1.4c-1-1.3-1.4-3.1-1.2-4.6l0,0C93.5,400.4,93.5,400.2,93.5,400.1z M106.9,397c0.1-0.4,0.1-0.8,0-1
	c-0.3-0.3-2-0.6-4.9,0.3c-3.2,1-5.6,2.8-5.9,4.5l0,0c-0.2,1.1,0.4,2.3,0.8,2.7c0.1-0.1,0.3-0.4,0.4-0.5c0.6-0.9,1.6-2.2,3.4-2.9
	c1.3-0.6,2.4-0.6,3.2-0.5c0.7,0,1,0,1.5-0.3C106.2,398.8,106.7,397.8,106.9,397z"/>
<circle class="st1" cx="-29.7" cy="346" r="2.5"/>
<polygon class="st1" points="-24.8,480.6 -22.5,481.6 -24.5,483.2 -26.6,484.7 -26.9,482.2 -27.2,479.6 "/>
<path class="st1" d="M237.2,378.2c0.5-0.2,1-0.4,1.5-0.5c2.7-0.7,6.2-0.6,8.2,1.7l0,0c1.2,1.4,1.7,3.4,1.3,5.7
	c-0.3,1.9-1.3,3.8-2.6,5.2c-3.6,3.9-9.6,3.1-12.6,2.1c-1.7-0.6-2.5-1.3-2.5-2.3c-0.1-1.5,1.4-1.8,3.2-2.2c1-0.2,2.1-0.5,2.9-0.8
	c0.9-0.4,1-0.7,1-0.7c0-0.3-1-1.1-1.4-1.4c-1.1-0.9-2.5-2.1-2.2-3.7C234.3,379.8,235.7,378.8,237.2,378.2z M244.9,381.1
	c-0.8-1-2.5-1.4-4.5-1c-2,0.3-3.3,1.2-3.6,1.6c0.2,0.3,0.8,0.8,1.2,1.1c1.2,1,2.7,2.2,2.4,4c-0.3,2-2.6,2.9-4.8,3.4
	c2.4,0.5,5.9,0.5,8-1.8C245.4,386.4,246.3,382.8,244.9,381.1L244.9,381.1z M236.7,381.7L236.7,381.7L236.7,381.7z"/>
<path class="st1" d="M289.6,487.6c0.1-0.8,0.5-1.8,1.8-2.9l1.6,1.8c-0.8,0.7-1,1.3-1,1.5c0.1,0.2,0.6,0.6,1.6,0.7l0.1,0
	c2.7,0.3,3.4,1.7,3.7,2.4c0.2,0.8,0.3,2.3-1.7,4.1c-0.8,0.7-1,1.3-1,1.5c0.1,0.2,0.6,0.6,1.6,0.7l0.1,0c2.7,0.3,3.5,1.7,3.7,2.4
	c0.2,0.8,0.3,2.3-1.7,4.1l-1.6-1.8c0.8-0.7,1-1.3,1-1.5c-0.1-0.2-0.6-0.6-1.6-0.7l-0.1,0c-2.7-0.3-3.5-1.7-3.7-2.4
	c-0.2-0.8-0.3-2.3,1.7-4.1c0.8-0.7,1-1.3,1-1.5c-0.1-0.2-0.6-0.6-1.6-0.7l-0.1,0c-2.7-0.3-3.4-1.7-3.7-2.4
	C289.6,488.5,289.5,488.1,289.6,487.6z"/>
<circle class="st1" cx="341.6" cy="420" r="2.4"/>
<rect x="225.3" y="276.6" transform="matrix(0.736 0.677 -0.677 0.736 248.7859 -80.386)" class="st1" width="4.3" height="4.3"/>
<polygon class="st1" points="-12.7,704.6 -7.6,707.6 -12.7,710.5 -17.8,713.5 -17.8,707.6 -17.8,701.7 "/>
<path class="st1" d="M395,509.8v7.5c2,0,3.7-1.7,3.7-3.7C398.7,511.5,397,509.8,395,509.8z"/>
<path class="st1" d="M454,374.6l-6.8,3.1c0.9,2,3.1,2.7,5,1.8C454,378.7,454.9,376.6,454,374.6z"/>
<path class="st1" d="M336,577.8l6.2,4.2c1.2-1.8,0.7-4-1-5.2C339.4,575.7,337.2,576,336,577.8z"/>
<polygon class="st1" points="737.1,396.2 745.8,393.2 747.1,396.8 742,398.6 744.4,405.4 737.6,407.8 740,414.6 731.4,417.6 
	730.1,414 735.1,412.3 732.7,405.5 739.5,403.1 "/>
<polygon class="st1" points="197.6,155.3 196.3,159 193.8,156 191.2,153.1 195.1,152.3 198.9,151.6 "/>
<rect x="568.2" y="523.8" transform="matrix(0.866 0.5 -0.5 0.866 339.3853 -214.6992)" class="st1" width="4.3" height="4.3"/>
<path class="st1" d="M430,469.2l-7.5-4.3l4.3-7.5l7.5,4.3L430,469.2z M425.2,464.1l4,2.3l2.3-4l-4-2.3L425.2,464.1z"/>
<polygon class="st1" points="475.2,559.7 479.5,551.5 482.9,553.3 480.4,558.1 486.8,561.5 483.5,567.8 489.9,571.2 485.7,579.2 
	482.3,577.5 484.7,572.8 478.3,569.4 481.7,563.1 "/>
<path class="st1" d="M779.9,478.2l-5.8-4.7c-1.4,1.7-1.1,4,0.5,5.3C776.2,480.1,778.5,479.9,779.9,478.2z"/>
<rect x="403.3" y="664.7" transform="matrix(0.2974 0.9547 -0.9547 0.2974 921.5006 81.3506)" class="st1" width="4.3" height="4.3"/>
<circle class="st1" cx="600.2" cy="351.1" r="2.5"/>
<rect x="499.9" y="632.2" transform="matrix(0.8431 -0.5377 0.5377 0.8431 -261.1204 371.9363)" class="st1" width="14.1" height="2.7"/>
<polygon class="st1" points="165.4,376.8 162.8,377.2 155.6,370.3 158.1,369.9 "/>
<rect x="714.8" y="695.3" transform="matrix(0.4345 -0.9007 0.9007 0.4345 -219.9032 1042.4303)" class="st1" width="10.8" height="2.1"/>
<rect x="800" y="304.8" transform="matrix(0.2576 -0.9663 0.9663 0.2576 298.906 1002.9667)" class="st1" width="4.3" height="4.3"/>
<path class="st1" d="M649.3,367.2l-8.3,2.7l-2.7-8.3l8.3-2.7L649.3,367.2z M642.3,367.4l4.4-1.4l-1.4-4.4l-4.4,1.4L642.3,367.4z"/>
<path class="st1" d="M56,148.6c-1.6,0-3.8-0.6-6.3-2.9l3.3-3.8c1.7,1.5,2.9,1.7,3.3,1.6c0.4-0.2,1-1.3,1-3.5l0-0.2
	c0-5.5,2.5-7.5,3.9-8.1c1.5-0.7,4.6-1.3,8.7,2.4c1.7,1.5,2.9,1.7,3.3,1.6c0.4-0.2,1-1.3,1-3.5l0-0.1c0-5.5,2.5-7.5,3.9-8.1
	s4.6-1.3,8.7,2.4l-3.3,3.8c-1.7-1.5-2.9-1.7-3.3-1.6c-0.4,0.2-1,1.3-1,3.5l0,0.1c0,5.5-2.5,7.5-3.9,8.1c-1.5,0.7-4.6,1.3-8.7-2.4
	c-1.7-1.5-2.9-1.7-3.3-1.6c-0.4,0.2-1,1.3-1,3.5l0,0.2c0,5.5-2.5,7.5-3.9,8.1C57.8,148.3,57,148.6,56,148.6z"/>
<polygon class="st1" points="536.5,255.7 541.6,255.7 539.1,260.1 536.5,264.5 534,260.1 531.5,255.7 "/>
<rect x="202.8" y="88.5" class="st1" width="4.3" height="4.3"/>
<path class="st1" d="M567.1,76.7c-2.3,0-5.8-1.7-8.5-6.7c-0.8-1.4-2.4-4.9-0.9-6.9c0.5-0.7,1.4-1.2,2.6-1.3c1.8-0.2,3.8,0.5,5,1.6
	c1,0.9,1.3,2,1.5,2.8c0.1,0.6,0.3,1.2,0.8,1.9c0.8,1,1.7,1.3,2.6,1.7c1,0.4,2.2,0.9,2.4,2.3c0.1,0.8-0.2,1.6-0.8,2.4
	c-1,1.2-2.6,2.1-4.2,2.3l0,0C567.4,76.7,567.2,76.7,567.1,76.7z M560.8,64.5c-0.5,0-0.8,0.1-1,0.2c-0.2,0.3,0,2.1,1.6,4.7
	c1.8,2.9,4.1,4.7,5.8,4.5l0,0c1.1-0.1,2.1-0.9,2.4-1.4c-0.2-0.1-0.4-0.2-0.6-0.3c-1-0.4-2.5-1-3.7-2.5c-0.9-1.1-1.1-2.2-1.3-2.9
	c-0.2-0.7-0.2-1-0.6-1.4C562.7,64.7,561.6,64.5,560.8,64.5z"/>
<path class="st1" d="M160.8,232.2c-2.6,0-5.3-1.4-6.7-3.7c-1.2-2-1.4-4.7-0.5-7.3c0.8-2.2,2.3-3.8,4-4.4l0,0c2-0.7,4.8-0.2,5.7,1.6
	c1,2-0.7,4.2-2.1,5.9c-0.2,0.3-0.5,0.7-0.8,1c0.7-0.2,1.6-0.5,2.3-0.8c2.5-0.9,4.5-1.7,5.5-0.4c0.3,0.4,0.6,1.3,0,2.7
	c-0.8,2.1-3.2,4.6-6.3,5.2C161.6,232.1,161.2,232.2,160.8,232.2z M158.4,219.1c-1,0.3-2,1.5-2.6,3c-0.7,1.8-0.5,3.8,0.3,5.2
	c1.1,1.8,3.4,2.8,5.4,2.5c2.4-0.4,4-2.5,4.4-3.7c-0.7,0.2-1.7,0.6-2.4,0.8c-2.5,0.9-4.7,1.8-5.7,0.3c-0.9-1.3,0.2-2.7,1.4-4.3
	c0.7-1,2.1-2.8,1.8-3.4C160.9,219.1,159.5,218.7,158.4,219.1L158.4,219.1z"/>
<polygon class="st1" points="383.7,-26.6 378.6,-31.8 374.8,-27.9 372,-30.7 378.6,-37.2 383.7,-32.1 388.8,-37.2 395.3,-30.8 
	392.6,-28 388.8,-31.8 "/>
<path class="st1" d="M618.1,246.2c-0.1-0.5-0.1-1.1-0.1-1.6c0-2.7,0.9-6.2,3.7-7.5l0,0c1.7-0.8,3.7-0.8,5.8,0.2
	c1.8,0.8,3.4,2.2,4.4,3.8c2.9,4.5,0.6,10.1-1.2,12.7c-1,1.5-1.9,2.1-2.8,1.9c-1.4-0.3-1.4-1.8-1.3-3.7c0-1,0.1-2.1-0.1-3
	c-0.1-1-0.4-1.1-0.4-1.1c-0.3,0-1.3,0.7-1.7,1c-1.2,0.9-2.6,1.9-4.1,1.2C619,249.4,618.4,247.8,618.1,246.2z M622.9,239.5
	c-1.1,0.6-1.9,2.1-2.1,4.1c-0.2,2.1,0.3,3.5,0.6,3.8c0.3-0.1,1-0.6,1.4-0.9c1.2-0.9,2.8-2,4.5-1.3c1.9,0.8,2.1,3.3,2.1,5.5
	c1.1-2.2,2-5.6,0.3-8.2C628.2,240.3,625,238.5,622.9,239.5L622.9,239.5z M621.5,247.5L621.5,247.5L621.5,247.5z"/>
<path class="st1" d="M677.5,158.5c-1.1-0.5-2.4-1.7-3.4-4l3.5-1.5c0.7,1.6,1.4,2.1,1.7,2.1c0.3,0,1.1-0.5,1.8-2.1l0.1-0.2
	c1.8-3.8,4.1-4.3,5.3-4.3c1.2,0,3.5,0.6,5.2,4.5c0.7,1.6,1.4,2.1,1.7,2.1c0.3,0,1.1-0.5,1.8-2.1l0-0.1c1.8-3.8,4.1-4.3,5.3-4.3
	c1.2,0,3.5,0.6,5.2,4.5l-3.5,1.5c-0.7-1.6-1.4-2.1-1.7-2.1c-0.3,0-1.1,0.5-1.8,2.1l0,0.1c-1.8,3.8-4.1,4.3-5.3,4.3
	c-1.2,0-3.5-0.6-5.2-4.5c-0.7-1.6-1.4-2.1-1.7-2.1c-0.3,0-1.1,0.5-1.8,2.1l-0.1,0.2c-1.8,3.8-4.1,4.3-5.3,4.3
	C678.9,158.9,678.2,158.8,677.5,158.5z"/>
<circle class="st1" cx="46.7" cy="227.1" r="2.9"/>
<polygon class="st1" points="338.2,205 339.2,208.5 335.6,207.7 332,206.9 334.6,204.2 337.1,201.5 "/>
<polygon class="st1" points="26.2,53.8 28.1,46.8 22.8,45.5 23.8,41.8 32.7,44.1 30.9,51.1 38,52.9 35.7,61.8 32,60.8 33.3,55.7 "/>
<rect x="793.5" y="230.5" transform="matrix(0.2018 0.9794 -0.9794 0.2018 864.0634 -593.6851)" class="st1" width="5.5" height="5.5"/>
<polygon class="st1" points="269.1,199.2 266.1,194 268.3,192.8 270,195.8 274.1,193.5 276.5,197.5 280.5,195.1 283.5,200.2 
	281.3,201.5 279.6,198.5 275.6,200.9 273.2,196.8 "/>
<path class="st1" d="M64.8,0.4c0.6-2.2,3.1-5.2,8.6-6.6c1.6-0.4,5.4-1.1,6.9,0.8c0.6,0.7,0.8,1.7,0.6,2.8c-0.3,1.7-1.4,3.5-2.8,4.4
	C77,2.7,76,2.7,75.1,2.7c-0.7,0-1.2,0-2,0.3C72,3.5,71.4,4.3,70.9,5c-0.6,0.8-1.4,1.9-2.8,1.7c-0.8-0.1-1.5-0.6-2.1-1.4
	c-1-1.3-1.4-3.1-1.2-4.6l0,0C64.8,0.7,64.8,0.5,64.8,0.4z M78.2-2.7c0.1-0.4,0.1-0.8,0-1c-0.3-0.3-2-0.6-4.9,0.3
	c-3.2,1-5.6,2.8-5.9,4.5l0,0c-0.2,1.1,0.4,2.3,0.8,2.7c0.1-0.1,0.3-0.4,0.4-0.5c0.6-0.9,1.6-2.2,3.4-2.9c1.3-0.6,2.4-0.6,3.2-0.5
	c0.7,0,1,0,1.5-0.3C77.5-0.9,78-1.9,78.2-2.7z"/>
<circle class="st1" cx="20.3" cy="-58.1" r="2.5"/>
<polygon class="st1" points="126.4,50.2 128.8,51.2 126.7,52.8 124.7,54.3 124.4,51.8 124.1,49.2 "/>
<path class="st1" d="M255,22c0.5-0.2,1-0.4,1.5-0.5c2.7-0.7,6.2-0.6,8.2,1.7l0,0c1.2,1.4,1.7,3.4,1.3,5.7c-0.3,1.9-1.3,3.8-2.6,5.2
	c-3.6,3.9-9.6,3.1-12.6,2.1c-1.7-0.6-2.5-1.3-2.5-2.3c-0.1-1.5,1.4-1.8,3.2-2.2c1-0.2,2.1-0.5,2.9-0.8c0.9-0.4,1-0.7,1-0.7
	c0-0.3-1-1.1-1.4-1.4c-1.1-0.9-2.5-2.1-2.2-3.7C252.1,23.7,253.5,22.6,255,22z M262.7,24.9c-0.8-1-2.5-1.4-4.5-1
	c-2,0.3-3.3,1.2-3.6,1.6c0.2,0.3,0.8,0.8,1.2,1.1c1.2,1,2.7,2.2,2.4,4c-0.3,2-2.6,2.9-4.8,3.4c2.4,0.5,5.9,0.5,8-1.8
	C263.2,30.3,264.2,26.7,262.7,24.9L262.7,24.9z M254.6,25.5L254.6,25.5L254.6,25.5z"/>
<path class="st1" d="M300.4,106.9c0.1-0.8,0.5-1.8,1.8-2.9l1.6,1.8c-0.8,0.7-1,1.3-1,1.5c0.1,0.2,0.6,0.6,1.6,0.7l0.1,0
	c2.7,0.3,3.4,1.7,3.7,2.4c0.2,0.8,0.3,2.3-1.7,4.1c-0.8,0.7-1,1.3-1,1.5c0.1,0.2,0.6,0.6,1.6,0.7l0.1,0c2.7,0.3,3.5,1.7,3.7,2.4
	s0.3,2.3-1.7,4.1l-1.6-1.8c0.8-0.7,1-1.3,1-1.5c-0.1-0.2-0.6-0.6-1.6-0.7l-0.1,0c-2.7-0.3-3.5-1.7-3.7-2.4s-0.3-2.3,1.7-4.1
	c0.8-0.7,1-1.3,1-1.5c-0.1-0.2-0.6-0.6-1.6-0.7l-0.1,0c-2.7-0.3-3.4-1.7-3.7-2.4C300.4,107.8,300.3,107.4,300.4,106.9z"/>
<circle class="st1" cx="346.4" cy="39.4" r="2.4"/>
<rect x="284.4" y="-75.7" transform="matrix(0.736 0.677 -0.677 0.736 25.8438 -213.3829)" class="st1" width="4.3" height="4.3"/>
<polygon class="st1" points="93.4,286.3 98.5,289.3 93.4,292.2 88.3,295.2 88.3,289.3 88.3,283.4 "/>
<path class="st1" d="M399,159v7.5c3,0,3.7-1.7,3.7-3.7C402.7,160.7,402,159,399,159z"/>
<path class="st1" d="M422.1-13.2l-6.8,3.1c0.9,2,3.1,2.7,5,1.8C422.2-9.1,423-11.2,422.1-13.2z"/>
<path class="st1" d="M311.1,271.6l6.2,4.2c1.2-1.8,0.7-4-1-5.2C314.6,269.4,312.3,269.8,311.1,271.6z"/>
<polygon class="st1" points="764.4,-7.9 773.2,-5.2 772.1,-1.5 766.9,-3.1 764.8,3.9 757.9,1.7 755.8,8.7 747.1,6 748.2,2.3 
	753.2,3.9 755.4,-3 762.3,-0.9 "/>
<polygon class="st1" points="520,-51.9 518.7,-48.2 516.2,-51.1 513.6,-54.1 517.4,-54.8 521.3,-55.6 "/>
<rect x="573.3" y="167.3" transform="matrix(0.866 0.5 -0.5 0.866 161.816 -265.0223)" class="st1" width="4.3" height="4.3"/>
<path class="st1" d="M447.3,88.5l-7.5-4.3l4.3-7.5l7.5,4.3L447.3,88.5z M442.5,83.5l4,2.3l2.3-4l-4-2.3L442.5,83.5z"/>
<polygon class="st1" points="467.3,182 466.3,172.8 470.1,172.4 470.7,177.8 478,177 478.7,184.1 485.9,183.3 486.9,192.4 
	483.1,192.8 482.5,187.6 475.3,188.4 474.6,181.2 "/>
<path class="st1" d="M786.5,97.6l-5.8-4.7c-1.4,1.7-1.1,4,0.5,5.3C782.9,99.4,785.2,99.3,786.5,97.6z"/>
<rect x="434.9" y="265" transform="matrix(0.2974 0.9547 -0.9547 0.2974 562.155 -229.5682)" class="st1" width="4.3" height="4.3"/>
<circle class="st1" cx="635.8" cy="18.5" r="2.5"/>
<rect x="508.6" y="347.2" transform="matrix(0.8431 -0.5377 0.5377 0.8431 -106.5322 331.9379)" class="st1" width="14.1" height="2.7"/>
<polygon class="st1" points="175.2,15.6 172.7,16 165.4,9.1 167.9,8.7 "/>
<rect x="721.4" y="286.1" transform="matrix(0.4345 -0.9007 0.9007 0.4345 152.3369 817.0181)" class="st1" width="10.8" height="2.1"/>
<rect x="805.3" y="-81.4" transform="matrix(0.2576 -0.9663 0.9663 0.2576 676.0184 721.3477)" class="st1" width="4.3" height="4.3"/>
<path class="st1" d="M701,79.5l-8.3,2.7l-2.7-8.3l8.3-2.7L701,79.5z M694,79.6l4.4-1.4l-1.4-4.4l-4.4,1.4L694,79.6z"/>
<rect x="583.9" y="-66.9" transform="matrix(0.8431 -0.5377 0.5377 0.8431 127.9488 307.4716)" class="st1" width="14.1" height="2.7"/>
</svg>
