<?xml version="1.0" encoding="utf-8"?>
<!-- Generator: Adobe Illustrator 19.2.0, SVG Export Plug-In . SVG Version: 6.00 Build 0)  -->
<svg version="1.1" id="Layer_1" xmlns="http://www.w3.org/2000/svg" xmlns:xlink="http://www.w3.org/1999/xlink" x="0px" y="0px"
	 viewBox="0 0 103.1 103.1" style="enable-background:new 0 0 103.1 103.1;" xml:space="preserve">
<style type="text/css">
	.st0{clip-path:url(#SVGID_2_);}
	.st1{fill-rule:evenodd;clip-rule:evenodd;fill:#221F1F;}
	.st2{fill-rule:evenodd;clip-rule:evenodd;fill:#73BE44;}
	.st3{fill-rule:evenodd;clip-rule:evenodd;fill:#4CAAC7;}
	.st4{fill-rule:evenodd;clip-rule:evenodd;fill:#5E9F44;}
	.st5{fill-rule:evenodd;clip-rule:evenodd;fill:#FDCF9D;}
	.st6{fill-rule:evenodd;clip-rule:evenodd;fill:#F38480;}
	.st7{fill-rule:evenodd;clip-rule:evenodd;fill:#E2AB35;}
	.st8{fill-rule:evenodd;clip-rule:evenodd;fill:#FFFFFF;}
</style>
<g>
	<g>
		<defs>
			<circle id="SVGID_1_" cx="51.6" cy="44.6" r="51.6"/>
		</defs>
		<clipPath id="SVGID_2_">
			<use xlink:href="#SVGID_1_"  style="overflow:visible;"/>
		</clipPath>
		<g class="st0">
			<g>
				<ellipse class="st1" cx="42.3" cy="122.7" rx="19.2" ry="2.7"/>
				<path class="st2" d="M21.7,68.3c-1.3,0.5-2.5,1.1-3.5,1.6l-0.1,0l0-0.1c-0.5-1-1-2-1.5-3c-0.5-1.1-0.9-2.1-1.2-3
					c-0.3-1-0.5-1.9-0.5-2.8c0-1.5,0.5-2.7,1.3-3.8c0.8-1.1,2-1.9,3.3-2.5c1.1-0.4,2.2-0.7,3.5-0.8c1.8-0.1,3.5,0.4,5,1.1l0,0
					c2.4,1.2,4.3,2.9,5.1,3.6c-0.1-0.2-0.1-0.5-0.2-0.7c-0.1-0.3-0.3-0.6-0.5-0.9l-0.1-0.1l0.2,0c1.6,0.3,3.2,0.3,4.8,0h0
					c1.7-0.2,3.5-0.7,5.2-1.4c1-0.4,1.9-0.8,2.8-1.4c0.9-0.5,1.7-1.1,2.5-1.8l0.2-0.1l-0.1,0.2l-6.5,20.7l0,0.1l-0.1-0.1
					c-1-0.8-2-1.7-2.8-2.4c-0.8-0.7-1.3-1.3-1.7-1.7c-0.5-0.6-1.2-1.6-1.8-2.6c-1-1.5-2-3-2.5-3.8c0.1,0.3,0.2,0.6,0.3,0.9
					c0.2,0.4,0.3,0.9,0.5,1.3l0,0.1l-0.1,0c-1.4,0.2-2.7,0.4-3.9,0.7c-1.4,0.3-2.7,0.6-3.9,1C24.1,67.4,22.9,67.9,21.7,68.3
					L21.7,68.3z M26.7,79.8c1.3,0.6,2.7,1.1,4.1,1.7l0.2,0.1l-0.3,0c-1.1,0.1-2.3,0.4-3.8,0.8c-1.4,0.4-3,1-4.8,1.9l-0.1,0l0-0.1
					l-1.3-8.1l0-0.2l0.1,0.2c0.4,0.4,0.8,0.8,1.2,1.1c0.4,0.3,0.8,0.6,1.2,0.9C24.2,78.6,25.4,79.2,26.7,79.8z"/>
				<path class="st2" d="M30.5,82.7c2.1-0.3,3.3-0.1,3.6-0.1h0l0,0c1.1,0.4,2.2,0.7,3.2,1.1c1,0.3,2,0.6,2.8,0.9
					c0.6,0.2,1.1,0.3,1.5,0.5c0.4,0.1,0.8,0.3,1.1,0.4c1,0.4,1.8,0.7,2.4,1h0l0.1,0l0,0l0.1,0l0,0l0,0c0.3,0.5,1.4,2.3,2.4,4.4
					c1,2.1,1.9,4.4,1.8,5.9c-0.1,1.6-2.5,5.6-5.1,9.5c-2.6,3.9-5.2,7.6-5.9,8.5l0,0l0,0c-0.6,0.1-2.5,0.5-5.3,0.6
					c-2.9,0.1-6.7-0.1-11.3-1.2l-0.1,0l0-0.1c1.1-2.1,2.2-4.3,3.2-6.5c1-2.2,1.9-4.3,2.5-6.1l0,0l0,0l0,0l0,0l0,0l0,0
					c0.3-0.9,0.5-1.6,0.6-2.3c0.1-0.6,0.1-1.1,0.1-1.5c-0.2,0.5-0.7,1.7-1.2,3l0,0.1l-0.1-0.1c-0.4-0.5-1-1.2-1.7-2
					c-0.7-0.9-1.6-1.9-2.6-3.2c-1.3-1.7-1.6-3.8-1.4-5.7c0.1-1.9,0.7-3.5,0.9-4.2l0,0l0,0C25.6,83.8,28.5,83,30.5,82.7z"/>
				<path class="st2" d="M49.4,91.8c-0.7-1.8-1.7-3.5-2.3-4.7L47,86.9l0.1,0c0.2,0,0.4,0.1,0.7,0.1c0.2,0,0.4,0,0.6,0.1h0l0,0
					l6.9,3.2v0l0.2,0.1l0.2,0l9.4-1.9l0,0l0,0c0.5,0.6,1.7,2.1,2.9,3.6c1.2,1.6,2.4,3.3,2.8,4.3c0.4,1.1,0.2,4.5-0.1,8
					c-0.3,3.4-0.8,6.8-0.9,7.6l0,0l0,0c-1.3,1.3-4.2,1.7-7.1,1.7c-2.9,0-5.7-0.3-6.8-0.5l0,0l0,0c0-0.4-0.1-0.9-0.1-1.3
					c-0.3-3.3-0.5-6.9-2.6-9.5c0.1,0.3,0.1,0.6,0.2,0.9c0.1,0.4,0.2,0.9,0.3,1.4l0,0.2l-0.1-0.1c-0.8-0.6-1.8-1.1-2.8-1.5
					c-1-0.4-1.9-0.7-2.5-0.9l-0.1,0l0-0.1c0.8-1.3,1.4-2.5,1.9-3.6c0.4-0.9,0.7-1.7,0.7-2.2C50.7,95.4,50.2,93.6,49.4,91.8z"/>
				<path class="st3" d="M32.9,116.5c3-0.1,5-0.4,5.7-0.6l0,0l0,0c1.2,1,1.8,2.4,2.1,3.7c0.3,1.3,0.2,2.5,0.2,3.2l0,0.1l-0.1,0
					c-1.8,0.1-7.1,0.2-12.1,0.3c-5,0.1-9.7,0.1-10.2-0.2c-0.4-0.2-0.5-0.6-0.6-1c-0.1-0.4,0-0.7,0-0.8l0,0l0,0
					c0.3-0.5,0.7-1.2,1.1-2c0.6-1.1,1.3-2.4,2-3.8l0,0l0,0C26,116.4,30,116.6,32.9,116.5z"/>
				<path class="st3" d="M55.1,118.7c0.2-1.5,0.5-3.2,0.6-4.1l0-0.1l0.1,0c1.3,0.2,4.2,0.5,7.1,0.4c3-0.1,6-0.6,7.6-2l0,0l0,0
					c0.1,0,0.2,0,0.3,0.1c0.1,0,0.2,0,0.3,0.1c1,0.3,1.9,0.6,2.6,1.1c0.7,0.5,1.3,1.1,1.7,1.8c0.4,0.7,0.6,1.5,0.7,2.4
					c0.1,0.9,0,1.9-0.3,2.9c0,0.1,0,0.2-0.1,0.2c0,0.1,0,0.2-0.1,0.2l0,0l-0.1,0c-1.6,0.1-6.5,0.3-11.2,0.4c-4.7,0.1-9,0.1-9.3-0.3
					C54.8,121.6,54.9,120.2,55.1,118.7z"/>
				<path class="st2" d="M25.8,22.8c-2.8,2.4-5.3,5.2-7.4,8.3l0,0l0,0l-0.1,0c-1.1,0.5-2,1.1-2.9,1.6c-1.1,0.7-2,1.2-2.6,1.6
					l-0.1,0.1l0-0.1c0.1-2.3,0.6-4.6,1.4-6.7c0.8-2.2,1.9-4.2,3.3-6.1c1.7-2.3,3.9-4.3,6.3-5.8c2.4-1.5,5-2.5,7.8-3
					c1-0.2,2-0.3,2.9-0.3c1,0,1.9,0,2.9,0.1c0.7,0.1,1.3,0.2,2,0.3c0.7,0.1,1.3,0.3,1.9,0.5l0.2,0.1l-0.2,0.1
					c-1,0.3-1.9,0.7-2.9,1.2c-1,0.4-2,0.9-2.9,1.5C32.1,17.9,28.8,20.1,25.8,22.8z"/>
				<path class="st4" d="M27.4,22.9c2.7-2.3,5.6-4.2,8.5-5.8c3.5-1.9,6.9-3.2,9.8-3.8c2.9-0.6,5.4-0.6,7.1,0.2
					c2.9,1.4,3.4,4,3.1,6.4c-0.3,2.5-1.5,4.8-2,5.8l0,0l0,0c-3-0.6-5.9-0.9-8.7-1c-3.1-0.1-6,0.1-8.8,0.5c-3.1,0.5-6,1.2-8.7,2
					c-2.6,0.8-5,1.8-7.1,2.7l-0.2,0.1l0.1-0.2C22.6,27.3,24.9,25,27.4,22.9z"/>
				<path class="st5" d="M27.9,28.5c2.6-0.8,5.5-1.5,8.6-2c2.6-0.4,5.4-0.6,8.3-0.5c2.9,0.1,5.9,0.4,9,1l0,0l0,0
					c0.1,0.2,0.1,0.5,0.2,0.7c0.1,0.2,0.1,0.5,0.1,0.7c0.1,0.3,0.1,0.6,0.1,0.9c0,0.3,0.1,0.6,0.1,1c0.1,1,0.2,2.1,0.2,3
					c0,0.1,0,0.3,0,0.4c-0.4,0-0.8,0.1-1.2,0.2c0,0.3,0.4,0.8,1.2,1.4c0,0.3,0,0.7,0,1c-0.1,0.9-0.2,1.8-0.3,2.6
					c-0.1,0.9-0.3,1.7-0.5,2.5l0,0l0,0l-2.2,0.6l-0.3,0.1l-0.1,0.3h0l-2.5,7.9l0,0l0,0c-0.9,0.9-1.9,1.8-3,2.5
					c-1.1,0.7-2.2,1.3-3.4,1.8c-1.6,0.7-3.4,1.1-5.2,1.4c-1.6,0.2-3.2,0.2-4.8-0.2c-0.2,0-0.4-0.1-0.6-0.1c-0.2-0.1-0.4-0.1-0.6-0.2
					l0,0l0,0c-0.8-0.7-1.8-1.3-2.8-1.7c-1.1-0.5-2.2-0.8-3.3-0.9l0,0l0,0c-2.2-1.3-3.5-2.6-3.5-2.6l0,0v0l0,0l-0.2-0.2l-0.3,0h0
					c-0.7,0.1-1.3,0-2-0.2c-0.7-0.2-1.4-0.6-2-1c-0.5-0.3-0.9-0.7-1.3-1.1c-0.4-0.4-0.7-0.9-1-1.4c-0.3-0.5-0.5-1-0.7-1.5
					c-0.2-0.5-0.3-1-0.3-1.4c0-0.5,0-0.9,0.1-1.3c0.1-0.4,0.3-0.8,0.5-1.1c2.4-3.1,5.9-0.3,6-0.2h0h0l0,0l2.6,2
					c-1.2-1.9-2-3.4-2.6-5c-0.6-1.7-0.9-3.5-0.9-6.2v0l0,0C21.8,30.7,24.6,29.5,27.9,28.5L27.9,28.5z M28.7,44.6
					c0.7,1,1.6,2,2.7,2.8c1.3,1,2.9,1.9,4.8,2.3c1.6,0.4,3.3,0.4,5.2,0c0.1,0,0.3-0.1,0.4-0.1c0.1,0,0.3-0.1,0.4-0.1
					c9-2.5,9.9-12.3,10-12.4l0,0v0l0,0l0.1-1l-0.9,0.5h0c-7.4,3.9-23.4,4.1-23.6,4.1h0h0l0,0l-0.7,0l0.1,0.7c0,0,0,0.1,0,0.1
					c0,0,0,0.1,0,0.1C27.3,42.4,27.8,43.5,28.7,44.6L28.7,44.6z M34.3,34.2c0.2-0.3,0.3-0.7,0.3-1c0-0.4,0-0.7-0.1-1
					c-0.1-0.3-0.3-0.6-0.5-0.9h0c-0.2-0.2-0.5-0.4-0.8-0.6c-0.3-0.1-0.6-0.2-1-0.2c-0.7,0-1.4,0.3-2,0.8c-0.3,0.2-0.5,0.5-0.7,0.9
					c-0.2,0.3-0.3,0.7-0.3,1c0,0.4,0,0.7,0.1,1c0.1,0.3,0.3,0.6,0.5,0.9l0,0c0.2,0.2,0.5,0.4,0.8,0.6c0.3,0.1,0.6,0.2,1,0.2
					c0.4,0,0.7-0.1,1-0.2c0.3-0.1,0.7-0.3,0.9-0.6h0C34,34.8,34.2,34.5,34.3,34.2L34.3,34.2z M45.2,32.3c0.1,0.3,0.3,0.6,0.5,0.9
					c0.2,0.2,0.5,0.4,0.8,0.6c0.3,0.1,0.6,0.2,1,0.2s0.7-0.1,1-0.2c0.3-0.1,0.7-0.3,0.9-0.6c0.3-0.2,0.5-0.5,0.7-0.9
					c0.2-0.3,0.3-0.7,0.3-1c0-0.4,0-0.7-0.1-1c-0.1-0.3-0.3-0.6-0.5-0.9h0c-0.2-0.2-0.5-0.4-0.8-0.6c-0.3-0.1-0.6-0.2-1-0.2
					s-0.7,0.1-1,0.2c-0.3,0.1-0.7,0.3-0.9,0.6l0,0c-0.3,0.2-0.5,0.5-0.7,0.9c-0.2,0.3-0.3,0.7-0.3,1C45,31.7,45.1,32,45.2,32.3z"/>
				<path class="st5" d="M34.9,68.5c0.3,0.6,0.7,1.2,1.1,1.7c0.4,0.5,1.1,1.3,2,2.1c1,0.9,2.2,1.9,3.3,2.8c0.9,0.7,1.9,1.3,2.9,1.8
					c1.4,0.7,2.6,1.2,3.2,1.4c1,0.3,2,0,3-0.4c1-0.4,2-1,2.8-1.6c0.2-0.1,0.3-0.2,0.4-0.3c0.1-0.1,0.3-0.2,0.4-0.2
					c0.2-0.1,0.4-0.2,0.6-0.2c0.2,0,0.4,0,0.6,0c0.1,0,0.1,0,0.2,0.1l0,0c0.1,0,0.1,0.1,0.2,0.1c0,0,0.1,0.1,0.1,0.1
					c0,0,0.1,0.1,0.1,0.1c0.3,0.5-0.1,1.4-0.7,2.4c-0.7,1.2-1.8,2.4-2.5,2.8c0.1,0,0.2,0,0.4,0c0.2,0,0.4-0.1,0.6-0.2l0,0l0,0
					c0.4,0.3,0.8,0.6,1.2,0.8c0.5,0.2,0.9,0.4,1.4,0.5c0.5,0.1,1.1,0.2,1.6,0.2c0.6,0,1.2-0.1,1.7-0.2c0.2,0,0.4-0.1,0.6-0.1
					c0.2,0,0.4,0,0.6,0c0.2,0,0.4,0.1,0.6,0.1c0.2,0,0.3,0.1,0.5,0.2c0.1,0,0.1,0.1,0.2,0.1c0.1,0,0.1,0.1,0.1,0.1l0,0l0,0
					c0,0.2-0.2,0.4-0.5,0.7c-0.3,0.2-0.6,0.5-1.1,0.8c-0.5,0.3-1,0.6-1.7,0.8c-0.6,0.2-1.3,0.5-2,0.7c-1.5,0.4-2.9,0.4-4.1,0.2
					c-1.2-0.2-2.3-0.7-3.5-1.1c0.3,0.3,0.6,0.6,1,0.8c0.5,0.3,1,0.6,1.5,0.8l0.3,0.1l-0.3,0c-2.3,0.1-4-1.2-4.9-1.9
					c-0.2-0.2-0.4-0.3-0.5-0.3c0.1,0.3,0.5,0.9,1.2,1.5l0.2,0.2L47.3,86c-0.3-0.1-0.5-0.2-0.8-0.3c-0.3-0.1-0.5-0.2-0.8-0.4h0l0,0
					l0,0c-0.7-0.3-1.5-0.7-2.5-1c-0.3-0.1-0.6-0.2-1.1-0.4c-0.5-0.1-1-0.3-1.6-0.5c-2.2-0.7-5.4-1.7-8.5-2.8
					C29,79.5,26,78.3,23.9,77c-0.9-0.6-1.8-1.4-2.6-2.3c-0.9-1.1-1.8-2.4-2.6-3.7l0-0.1l0.1,0c0.9-0.5,1.9-0.9,3.1-1.4
					c1.2-0.5,2.4-0.9,3.8-1.4c1.2-0.4,2.6-0.7,4-1c1.3-0.3,2.7-0.5,4.1-0.7l0,0l0,0C34.2,67.2,34.5,67.8,34.9,68.5z"/>
				<path class="st6" d="M36.5,48.6c-1.7-0.4-3.1-1.2-4.3-2.1c-0.9-0.7-1.6-1.4-2.2-2.2c-0.7-0.9-1.2-1.7-1.4-2.4l0-0.1l0.1,0
					c1.7,0,5.5-0.2,9.8-0.7c4.3-0.5,9-1.4,12.4-3l0.1,0l0,0.1c-0.3,1.2-0.9,3.4-2.2,5.4c-1.3,2-3.4,4-6.6,4.9
					c-0.1,0-0.3,0.1-0.4,0.1c-0.1,0-0.3,0.1-0.4,0.1C39.5,48.9,37.9,48.9,36.5,48.6z"/>
				<path class="st7" d="M49.7,51l2.4-7.8l0,0l0,0l6.6-2c0,0.3,0,0.6,0.1,0.9c0.1,0.9,0.2,1.8,0.5,2.1l0,0c0,0,0,0,0,0
					c0.5,0.1,1.8-0.4,3.2-1.2c1.4-0.8,2.9-1.8,3.8-2.8c0.4-0.4,0.7-0.9,0.8-1.3l0-0.1l7-2.1l0.1,0l0,0.1L57.6,79.2l0,0l0,0l-2.1,0.4
					l-0.2,0l0.1-0.1c0.6-0.7,1.2-1.5,1.4-2.3c0.2-0.7,0.3-1.3,0-1.8c-0.1-0.1-0.1-0.2-0.2-0.3c-0.1-0.1-0.2-0.2-0.3-0.3
					c-0.1-0.1-0.2-0.1-0.3-0.2c-0.1-0.1-0.2-0.1-0.4-0.1c-0.3-0.1-0.7-0.1-1,0c-0.3,0.1-0.7,0.2-1,0.4c-0.3,0.2-0.5,0.3-0.8,0.5l0,0
					l0,0h0c-0.7,0.5-1.6,1-2.4,1.4c-0.9,0.4-1.7,0.6-2.5,0.4c-0.5-0.1-1.6-0.6-2.8-1.2c-0.9-0.4-1.8-1-2.6-1.6l0,0l0,0L49.7,51
					L49.7,51L49.7,51L49.7,51L49.7,51L49.7,51z"/>
				<polygon class="st7" points="58.8,79.3 75.3,36.8 75.3,36.7 75.4,36.8 92.7,52.5 92.7,52.5 92.7,52.5 77.1,84.7 77.1,84.7 
					77.1,84.7 58.8,79.3 58.7,79.3 				"/>
				<path class="st1" d="M12.4,42.4c-0.2-0.7-0.4-1.4-0.5-2.1c-0.1-0.7-0.3-1.5-0.3-2.4c-0.6-6.2,1.3-12.3,4.9-17.1
					c3.6-4.8,8.9-8.3,15-9.4c2.1-0.4,4.2-0.4,6.2-0.2c2,0.2,3.9,0.7,5.6,1.5c4.2-1.2,7.9-1.4,10.2-0.3c7.1,3.4,2.4,12.4,1.5,14.1
					c0.1,0.5,0.3,1.1,0.3,1.6c0.1,0.7,0.2,1.3,0.3,1.9c0.2,1.2,0.2,2.4,0.3,3.6c-0.4,0-0.8,0.1-1.3,0.1c0-1.1-0.1-2.3-0.3-3.5
					c-0.1-0.6-0.2-1.3-0.3-1.9c-0.1-0.5-0.2-1-0.3-1.4c-6.2-1.3-12-1.2-17.2-0.5c-7,1-12.8,3.3-17.1,5.4c0.2,4.9,1.1,7.3,3.6,11.4
					l-2.9-2.3c0,0-3.6-2.8-5.9,0.2c-0.5,0.7-0.7,1.5-0.6,2.3c0.1,0.9,0.4,2,1,2.9c0.6,0.9,1.4,1.8,2.3,2.5c1.2,0.9,2.6,1.4,4,1.2
					l0.3,0l0.2,0.2c0,0,1.3,1.2,3.5,2.6c2.2,0.3,4.5,1.2,6.1,2.7c0.4,0.1,0.8,0.2,1.2,0.3c3.2,0.7,6.7,0.1,9.9-1.2
					c2.4-1,4.6-2.4,6.4-4.3l2.5-7.9l0.1-0.4l0.4-0.1l2.2-0.6c0.4-1.6,0.7-3.3,0.8-5.1c0-0.3,0-0.7,0-1c0.2,0.1,0.4,0.3,0.7,0.4
					c0.2,0.1,0.4,0.2,0.5,0.2l0,0.3c-0.1,1.7-0.4,3.2-0.7,4.7l3.6-1.1c0,0.3,0,0.8,0,1.3l-6.6,2L49.7,51l0,0l-0.1,0.1l-7.3,23.3
					c2,1.4,4.6,2.5,5.4,2.8c1.4,0.4,3.4-0.9,4.9-1.8c0.3-0.2,0.5-0.3,0.8-0.5c0.7-0.4,1.5-0.5,2.1-0.4c0.3,0.1,0.5,0.2,0.7,0.3
					c0.2,0.2,0.4,0.4,0.5,0.6c0.6,1.1-0.3,2.9-1.5,4.2l2.1-0.4L74,36.7l-7,2.1c0.1-0.2,0.1-0.4,0-0.6c0-0.2-0.1-0.4-0.2-0.6l8-2.4
					l0.3-0.1l0.2,0.2l18.3,16.6l0.3,0.3L94,52.6L78.3,85l-0.5,0.9l-0.6,0.2l-10.6,2.2C68,90,71.2,94,72,95.9
					c0.8,2.2-0.5,13.2-0.9,15.8c0.1,0,0.3,0.1,0.4,0.1c2.4,0.6,4.1,1.8,5,3.5c0.9,1.7,1.1,3.8,0.5,6.2c-0.1,0.3-0.2,0.7-0.3,1
					l-0.2,0.5l-0.5,0c-0.1,0-21,1-22-0.3c-0.9-1.2,0.4-8,0.6-8.9c-0.1-0.6-0.4-4.1-0.8-7.4c-1.5-1.3-5-2.4-6.3-2.8
					c-2.8,4.6-6.6,9.9-7.8,11.5c3.4,3,2.4,8.4,2.4,8.4l-0.1,0.6l-0.6,0c-0.1,0-22.2,0.8-23.5-0.1c-1.6-1-1.1-3.1-1.1-3.1l0-0.1
					l0-0.1c0,0,5.8-11,8.8-17.4c0.2-0.4,0.4-0.9,0.6-1.4c-0.6-0.8-2.3-2.7-4.7-5.7c-3.1-3.9-1.1-10-0.7-11.1L19.2,74
					c-0.7-1-1.4-2-2-3.1c-1.3-2.2-2.3-4.6-2.9-6.5c-2.1-6.2,2.4-10.8,8.2-11.4c-0.9-0.6-1.5-1.2-1.8-1.4c-1.6,0.2-3.2-0.4-4.6-1.4
					c-1-0.7-1.9-1.7-2.6-2.8c-0.7-1.1-1.1-2.3-1.2-3.4C12.3,43.3,12.3,42.8,12.4,42.4L12.4,42.4z M59.6,39.6c0.6,0,1.1-0.2,1.8-0.4
					c0,0-0.2,0-0.5,0L59.6,39.6L59.6,39.6z M16.4,43c0,0,0.6-0.2,1.4-0.2c-0.1,2,2.7,2.5,2.7,2.5c-1.6-0.7-1.6-1.9-1.4-2.5
					c0.8,0.1,1.7,0.4,2.6,0.9C21.7,43.9,18.8,40.7,16.4,43L16.4,43z M18.2,69.9c1.9-1,4.3-2,7.3-2.9c2.3-0.7,4.9-1.3,7.8-1.7
					c-0.4-0.9-0.7-1.8-0.9-2.7c0,0,3.2,4.9,4.6,6.8c0.7,0.9,2.5,2.5,4.4,4.1l6.5-20.7c-1.6,1.3-3.4,2.4-5.3,3.1
					c-3.3,1.3-6.7,1.9-10,1.4c0.4,0.6,0.6,1.2,0.8,1.8c-1-1.1-5.6-5.3-10.2-5c-5.2,0.4-9.5,4.2-7.5,9.8
					C16.1,65.7,17.1,67.8,18.2,69.9L18.2,69.9z M33.8,66.5c-3,0.4-5.7,1-8.1,1.7c-2.8,0.9-5.1,1.9-6.9,2.8c1.5,2.5,3.3,4.8,5.2,6
					c4.1,2.5,12.1,5,16.6,6.4c1.2,0.4,2.2,0.7,2.7,0.9c1,0.4,1.8,0.7,2.5,1c0.6,0.3,1.1,0.5,1.6,0.7c-0.9-0.8-1.2-1.7-1.2-1.7
					c0.4,0,2.3,2.4,5.5,2.3c-1-0.4-2-1-2.7-1.8c2.6,1,4.9,1.9,7.9,1.1c1.6-0.4,2.8-1,3.7-1.5c1-0.6,1.5-1.1,1.6-1.4
					c0,0-0.1-0.1-0.3-0.2c-0.3-0.1-0.6-0.2-1-0.3c-0.4,0-0.8,0-1.2,0.1c-1,0.2-2.2,0.3-3.3,0c-0.9-0.2-1.8-0.6-2.6-1.3
					c-0.4,0.2-0.8,0.3-1.2,0.2c1.1-0.7,3.9-4.1,3.3-5.2c0-0.1-0.1-0.2-0.2-0.2c-0.1-0.1-0.2-0.1-0.3-0.1c-0.3-0.1-0.7,0-1.1,0.2
					c-0.2,0.1-0.5,0.3-0.8,0.5c-1.7,1-4,2.5-5.9,1.9c-1-0.3-4-1.6-6.1-3.2c-2.3-1.8-4.6-3.9-5.4-4.9C35.1,69.2,34.4,67.9,33.8,66.5
					L33.8,66.5z M48,28.6c-0.8,0-1.5,0.3-2,0.8c-0.5,0.5-0.9,1.2-1,1.9c-0.1,0.8,0.2,1.4,0.6,1.9c0.5,0.5,1.1,0.8,1.9,0.8
					c0.8,0,1.5-0.3,2-0.8c0.5-0.5,0.9-1.2,1-1.9c0.1-0.8-0.2-1.4-0.6-1.9C49.4,28.9,48.7,28.6,48,28.6L48,28.6z M32.2,30.4
					c-0.8,0-1.5,0.3-2,0.8c-0.5,0.5-0.9,1.2-1,1.9c-0.1,0.8,0.2,1.4,0.6,1.9s1.1,0.8,1.9,0.8c0.8,0,1.5-0.3,2-0.8
					c0.5-0.5,0.9-1.2,1-1.9c0.1-0.8-0.2-1.4-0.6-1.9C33.6,30.7,33,30.4,32.2,30.4L32.2,30.4z M27.8,40.6l-0.8,0l0.1,0.8
					c0,0.1,0,0.2,0,0.2c0.3,1.5,1.8,4,4.2,5.9c2.5,1.9,5.9,3.2,10.1,2.3c0.3-0.1,0.6-0.1,0.8-0.2c9.1-2.5,10-12.5,10-12.5l0.1-1.1
					l-1,0.5C44,40.4,27.8,40.6,27.8,40.6L27.8,40.6z M50.8,38.1c-6.9,3.1-18.9,3.6-22.2,3.7c0.5,1.3,1.7,3.1,3.6,4.6
					c2.2,1.7,5.3,2.9,9.1,2.1c0.2-0.1,0.5-0.1,0.8-0.2C48.4,46.5,50.3,40.6,50.8,38.1L50.8,38.1z M38.6,116
					c-1.5,0.3-7.9,1.5-17.4-0.7c-1.3,2.4-2.4,4.5-3.1,5.8c0,0.3-0.2,1.3,0.6,1.8c1,0.6,18.7,0,22.2-0.1C41,121.5,41.1,118,38.6,116
					L38.6,116z M21.8,114.2c9.2,2,15.4,0.9,16.7,0.6c1.3-1.8,10.8-14.9,11-18c0.2-3-3.5-9.2-4.2-10.2c0,0-0.1,0-0.1-0.1
					c-0.7-0.3-1.4-0.6-2.4-1c-0.6-0.2-1.5-0.5-2.7-0.9c-1.6-0.5-3.8-1.2-6-1.9c-0.5-0.1-5-0.6-11.9,2.9c-0.4,1.2-2.1,6.5,0.5,9.8
					c2,2.5,3.4,4.3,4.2,5.2c0.7-1.7,1.3-3.2,1.3-3.2c0.2,0.9-0.1,2.3-0.6,4l0,0.1l-0.1,0.1C26.4,105.1,24,110,21.8,114.2L21.8,114.2
					z M55.9,113.3c2.2,0.3,11.4,1.3,13.9-1.2c0.2-1.7,1.8-13.5,1-15.6c-0.8-2-4.7-6.8-5.7-7.9l-9.4,1.9l-0.2,0l-0.2-0.1l-6.9-3.2
					c-0.4,0-0.8-0.1-1.2-0.2c1.3,2.3,3.7,7,3.6,9.7c-0.1,1.1-1.1,3.3-2.6,5.8c1.2,0.4,3.8,1.2,5.4,2.4c-0.2-1-0.3-1.9-0.5-2.6
					C55.5,105.2,55.5,109.5,55.9,113.3L55.9,113.3z M70.5,113c-3.2,2.8-12.3,1.9-14.8,1.6c-0.3,1.8-1.2,6.7-0.7,7.3
					c0.5,0.7,17.4,0,20.5-0.1c0-0.2,0.1-0.3,0.1-0.5c0.5-2.1,0.4-3.9-0.4-5.3c-0.8-1.4-2.2-2.4-4.3-2.9C70.9,113,70.7,113,70.5,113
					L70.5,113z M30.7,81.5c-2.9-1.1-5.6-2.2-7.5-3.4c-0.8-0.5-1.6-1.2-2.4-2l1.3,8.1C25.7,82.5,28.6,81.8,30.7,81.5L30.7,81.5z
					 M75.3,36.8L58.8,79.3l18.3,5.4l15.6-32.1L75.3,36.8L75.3,36.8z M41.3,13.4c-1.2-0.4-2.6-0.7-3.9-0.9c-1.9-0.2-3.8-0.2-5.8,0.2
					c-5.7,1-10.7,4.3-14.1,8.8c-2.7,3.6-4.5,8.1-4.7,12.8c1.1-0.7,3-1.9,5.5-3.2l0.1,0c4.3-6.4,10.7-11.7,17.1-15
					C37.4,15,39.4,14.1,41.3,13.4L41.3,13.4z M20.7,30c4.1-1.9,9.5-3.8,15.8-4.7c5.3-0.8,11.2-0.8,17.5,0.4c1-1.9,4.6-9.4-1.1-12.1
					c-3.4-1.6-10.1-0.2-16.9,3.5C30.4,20.1,24.8,24.6,20.7,30z"/>
				<path class="st1" d="M56.5,29.9c0.1,0.7,0.2,1.3,0.2,2c2.6,0,8.5,0.4,11.1,4.3l6.8-2l0.3-0.1l0.5-0.1l0.4,0.3l0.2,0.2l18.3,16.6
					l0.3,0.3l0.5,0.5l-0.3,0.6L94.8,53L79.1,85.4l0,0l-0.5,0.9l-0.2,0.3L78,86.8l-0.6,0.2l-0.1,0l-9.1,1.9c0.6,0.8,1.4,1.7,2,2.6
					c1.1,1.5,2.2,3.1,2.6,4.1c0.5,1.3,0.4,4.7,0.1,8.2c-0.2,2.8-0.6,5.6-0.8,7.3c1.2,0.3,2.1,0.8,3,1.4c1,0.7,1.7,1.5,2.2,2.5
					c0.5,1,0.8,2,0.9,3.2c0.1,1.1,0,2.4-0.4,3.7c0,0.1-0.1,0.3-0.2,0.5c-0.1,0.2-0.1,0.4-0.2,0.6l0,0l-0.2,0.5l-0.2,0.6l-0.6,0
					l-0.5,0l0,0h0v0c-1,0-21.5,1-22.7-0.7c-0.5-0.6-0.5-1.9-0.4-3.5c0.1-2.3,0.7-5.2,0.8-6c0-0.4-0.1-1.4-0.2-2.6
					c-0.1-1.2-0.3-2.8-0.5-4.3c-0.5-0.4-1.2-0.7-1.9-1c-1.1-0.5-2.3-0.9-3.1-1.2c-1.3,2.2-2.8,4.4-4.1,6.3c-1.2,1.7-2.2,3.1-2.8,4
					c2.8,3.2,2.2,7.8,2.1,8.5v0l0,0l0,0.1h0l-0.1,0.6l-0.1,0.7l-0.8,0l-0.6,0l0,0h0v0c-0.9,0-22.4,0.8-24-0.2
					c-0.7-0.5-1.1-1.1-1.4-1.7c-0.4-1.2-0.1-2.4-0.1-2.4l0-0.1l0-0.1l0.1-0.1l0-0.1v0l0,0h0c0.2-0.3,5.9-11.1,8.8-17.3
					c0.1-0.2,0.2-0.4,0.3-0.6l0.1-0.2c-0.3-0.4-0.8-0.9-1.3-1.6c-0.8-1-1.9-2.3-3-3.7c-1.7-2.2-2-4.9-1.8-7.3c0.2-2,0.7-3.8,0.9-4.5
					l-1.7-10.6C18,74,17.7,73.5,17.4,73c-0.3-0.5-0.7-1.1-1-1.7c-0.6-1.1-1.2-2.2-1.7-3.3c-0.5-1.2-1-2.4-1.4-3.4
					c-0.3-0.8-0.4-1.5-0.5-2.2c-0.3-2.4,0.4-4.5,1.6-6.1c1.2-1.7,3-2.9,5.1-3.6c0.2-0.1,0.4-0.1,0.6-0.2c-0.7,0-1.4-0.1-2.1-0.3
					c-0.9-0.3-1.8-0.7-2.6-1.3C15,50.4,14.5,50,14,49.4c-0.5-0.5-0.9-1.1-1.3-1.7c-0.4-0.6-0.7-1.2-0.9-1.9
					c-0.2-0.6-0.4-1.3-0.4-1.9c0-0.3,0-0.6,0-0.9c0-0.2,0-0.4,0.1-0.6c-0.1-0.3-0.2-0.6-0.2-0.9c-0.1-0.4-0.2-0.7-0.2-1.1
					c-0.1-0.4-0.1-0.8-0.2-1.2c-0.1-0.4-0.1-0.8-0.1-1.3c-0.3-3.2,0-6.3,0.9-9.2c0.9-3.1,2.3-5.9,4.2-8.5c1.9-2.5,4.3-4.7,6.9-6.4
					c2.6-1.6,5.5-2.8,8.6-3.3c1.1-0.2,2.2-0.3,3.2-0.3c1.1,0,2.2,0,3.2,0.1c1,0.1,2,0.3,3,0.6c0.9,0.2,1.7,0.5,2.6,0.9
					c2.1-0.6,4.1-0.9,5.8-1c1.9-0.1,3.5,0.2,4.8,0.8c4,1.9,4.7,5.4,4.2,8.6c-0.4,2.7-1.6,5.3-2.2,6.4c0,0.2,0.1,0.3,0.1,0.5
					c0.1,0.3,0.1,0.6,0.2,0.9c0.1,0.3,0.1,0.7,0.2,1C56.4,29.2,56.5,29.5,56.5,29.9L56.5,29.9z M89.4,54.5c0,0,0,0.3-0.2,0.5
					c0.2,0,0.4-0.1,0.5-0.5c0.1-0.4,0-0.9-0.4-1.1c-0.4-0.2-0.9,0.2-1,0.5c-0.1,0.3-0.1,0.4,0,0.5c-0.6,0.8-1.3,1.6-1.9,2.2
					c-0.7,0.6-1.4,1.1-2.1,1.4c-0.8,0.4-1.5,0.6-2.3,0.6c-0.8,0.1-1.5-0.1-2.2-0.3c-0.1,0-0.2-0.1-0.3-0.1c-0.8-0.4-1.5-1-2-1.7
					c-0.6-0.7-1-1.6-1.3-2.6c-0.3-1-0.5-2.2-0.5-3.4c0-1.2,0.1-2.5,0.4-3.8c0-0.1,0.1-0.2,0.1-0.3c0.2-0.1,0.3-0.2,0.4-0.5
					c0.1-0.3-0.1-0.9-0.4-1.1c-0.4-0.2-0.8,0.2-0.9,0.5c-0.1,0.2-0.1,0.5,0.1,0.7c0,0.1-0.1,0.3-0.1,0.4c-0.8,3.6-0.9,9,2.8,12.1
					c1.2,1,2.5,1.4,3.7,1.4C84.8,59.8,87.8,57,89.4,54.5L89.4,54.5z M56.8,33.6L56.8,33.6L56.8,33.6L56.8,33.6L56.8,33.6l-0.1,0l0,0
					l0,0h0l-0.1,0l0,0h0l0,0l0,0l0,0h0l0,0l0,0h0l-0.1,0l0,0l0,0h0l0,0l-0.1,0h0l-0.1,0l0,0l0,0l0,0l0,0l0,0l0,0l0,0l0,0l0,0l0,0
					l0,0l0,0l0,0l0,0l0,0l0,0l-0.1,0l0,0l0,0l0,0l0,0l0,0l-0.1,0l0,0l0,0h0l0,0l0,0l0,0l0,0l0,0l0,0l0,0l0,0l0,0l0,0l0,0l0,0l0,0
					l0,0l0,0l0,0l0,0h0l0,0c-0.5,0.1-1,0.1-1.6,0.2c0,0.3,0.5,1,1.5,1.6l0,0l0,0h0l0,0l0,0l0,0l0,0l0,0l0,0l0,0l0,0l0,0l0,0l0,0l0,0
					l0,0l0,0l0,0l0,0l0,0l0,0l0,0l0,0l0,0l0,0l0,0l0,0l0,0l0,0l0,0l0,0l0,0l0,0l0,0l0,0l0,0v0l0,0l0,0l0,0l0,0l0,0l0,0l0,0l0,0l0,0
					l0,0l0,0l0,0l0,0l0,0l0,0l0,0l0,0l0,0l0,0l0,0l0,0l0,0l0,0l0,0l0,0l0,0l0,0l0,0l0,0l0,0l0,0l0,0l0,0l0,0l0,0l0,0h0l0,0l0,0l0,0
					l0,0l0,0l0,0l0,0l0,0l0,0l0,0l0,0l0,0l0,0l0,0l0,0l0,0l0,0l0,0l0,0l0,0l0,0l0,0l0,0l0,0l0,0l0,0l0,0l0,0l0,0l0,0l0,0l0,0l0,0
					l0,0l0,0l0,0l0,0l0,0l0,0l0,0l0,0l0,0l0,0l0,0l0,0l0,0l0,0l0,0l0,0l0,0l0,0l0,0l0,0l0,0l0,0l0,0l0,0l0,0l0,0l0,0l0,0l0,0l0,0
					l0,0l0,0l0,0l0,0l0,0l0,0l0,0l0,0l0,0l0,0l0,0l0,0l0,0l0,0l0,0l0,0l0,0l0,0l0,0c1.1,0.3,2.6,0.5,4.4,0.5
					c-0.8,0.2-1.5,0.3-2.2,0.4c-0.7,0.1-1.4,0-2.2-0.1l0,0l0,0l0,0l0,0v0v0l0,0v0l0,0l0,0v0v0v0v0v0v0v0v0v0l0,0l0,0v0l0,0v0l0,0v0
					l0,0v0l0,0l0,0l0,0l0,0v0l0,0l0,0l0,0l0,0l0,0l0,0l0,0l0,0l0,0l0,0l0,0l0,0l0,0l0,0l0,0l0,0l0,0l0,0l0,0l0,0l0,0l0,0l0,0l0,0v0
					l0,0l0,0l0,0l0,0l0,0l0,0l0,0c0.2,0.8,1,1.3,2,1.5l0,0l0,0l0,0l0,0l0,0l0,0l0,0l0,0h0l0,0l0,0l0,0l0,0l0,0l0,0l0,0l0,0l0,0l0,0
					l0,0l0,0l0,0l0,0l0,0l0,0l0,0l0,0l0,0l0,0h0l0,0l0,0l0,0l0,0l0,0l0,0l0,0l0,0l0,0h0l0,0l0,0l0,0l0,0l0,0l0,0l0,0l0,0l0,0l0,0h0
					l0,0l0,0l0,0l0,0l0,0l0,0l0,0l0,0l0,0l0,0l0,0l0,0l0,0l0,0l0,0l0,0l0,0l0,0l0,0c1.2,0.2,2.4,0.2,2.4,0.2
					c-1.1,0.3-1.5,0.5-2.7,0.4v0v0v0l0,0v0v0v0v0v0l0,0v0l0,0v0v0v0v0l0,0v0v0v0l0,0v0v0l0,0v0l0,0v0v0l0,0v0v0l0,0v0l0,0v0v0l0,0v0
					l0,0v0v0l0,0l0,0v0l0,0v0l0,0l0,0v0l0,0v0l0,0v0l0,0v0v0l0,0v0l0,0l0,0l0,0l0,0v0l0,0l0,0v0l0,0l0,0l0,0l0,0l0,0v0l0,0v0l0,0
					l0,0l0,0l0,0l0,0v0l0,0l0,0l0,0l0,0l0,0l0,0l0,0l0,0l0,0l0,0v0l0,0l0,0l0,0l0,0l0,0v0l0,0v0l0,0c0,0.4,0,0.8,0.1,1.2
					c0.1,0.9,0.2,1.8,0.5,2.1c0,0,0,0,0,0c0,0,0,0,0,0c0.5,0.1,1.8-0.4,3.2-1.2c1.4-0.8,2.9-1.8,3.8-2.8c0.4-0.4,0.7-0.9,0.8-1.3
					c0-0.1,0.1-0.2,0.1-0.4v0v0v0l0,0v0v0l0,0l0,0v0v0v0v0v0v0v0v0v0v0v0v0v0v0v0v0v0v0v0v0v0v0v0v0v0l0,0v0v0l0,0v0v0v0v0l0,0v0
					l0,0v0l0,0v0v0v0l0,0v0l0,0v0v0l0,0v0v0l0,0v0l0,0v0l0,0l0,0v0v0l0,0l0,0v0l0,0v0v0l0,0l0,0v0l0,0l0,0v0l0,0l0,0l0,0v0l0,0l0,0
					v0l0,0l0,0v0l0,0l0,0l0,0l0,0l0,0l0,0l0,0l0,0l0,0l0,0l0,0l0,0l0,0l0,0l0,0l0,0l0,0l0,0l0,0l0,0l0,0l0,0l0,0l0,0l0,0l0,0l0,0
					l0,0l0,0l0,0l0,0l0,0l0,0v0l0,0l0,0l0,0l0,0l0,0l0,0l0,0l0,0l0,0l0,0l0,0l0,0l0,0l0,0l0,0l0,0l0,0l0,0l0,0l0,0l0,0l0,0l0,0l0,0
					l0,0l0,0l0,0l0,0l0,0l0,0l0,0l0,0l0,0l0,0l0,0l0,0l0,0l0,0l0,0l0,0l0,0l0,0l0,0l0,0l0,0l0,0l0,0l0,0l0,0l0,0l0,0l0,0l0,0l0,0
					l0,0l0,0l0,0l0,0l0,0l0,0l0,0l0,0l0,0l0,0l0,0l0,0l0,0l0,0l0,0l0,0l0,0l0,0l0,0l0,0l0,0l0,0c-0.2-0.2-0.3-0.4-0.5-0.5
					c-0.8-0.7-1.9-1.3-3.3-1.8c-1.1-0.4-2.4-0.6-3.9-0.7C58,33.6,57.4,33.6,56.8,33.6L56.8,33.6z M54.9,32.8c0-0.9-0.1-1.8-0.2-2.7
					c0-0.2-0.1-0.5-0.1-0.9c0-0.3-0.1-0.6-0.1-0.9c0-0.3-0.1-0.5-0.2-0.8c-0.1-0.3-0.1-0.5-0.2-0.8L54,26.4l0.2-0.3
					c0.4-0.8,1.8-3.3,2.1-6c0.4-2.5-0.2-5.3-3.2-6.7c-1-0.5-2.4-0.7-3.9-0.7c-1.7,0-3.6,0.4-5.7,1l-0.3,0.1l-0.3-0.1
					c-0.8-0.4-1.7-0.7-2.6-0.9c-0.9-0.2-1.8-0.4-2.8-0.5c-1-0.1-1.9-0.1-2.9-0.1c-1,0-2,0.1-3,0.3c-2.9,0.5-5.5,1.6-7.9,3.1
					C21.2,17,19,19,17.2,21.4c-1.8,2.3-3.1,5-3.9,7.9c-0.8,2.7-1.1,5.6-0.8,8.6c0,0.4,0.1,0.8,0.1,1.2c0.1,0.4,0.1,0.7,0.2,1.1
					c0.1,0.3,0.1,0.7,0.2,1c0.1,0.4,0.2,0.7,0.3,1l0.1,0.2l-0.1,0.2c0,0.2-0.1,0.4-0.1,0.6c0,0.2,0,0.4,0,0.6c0,0.5,0.1,1,0.3,1.5
					c0.2,0.5,0.4,1,0.7,1.5c0.3,0.5,0.7,1,1,1.4c0.4,0.4,0.8,0.8,1.3,1.1c0.6,0.5,1.3,0.8,2,1c0.6,0.2,1.3,0.3,1.9,0.2l0.4,0
					l0.3,0.3c0.2,0.1,0.4,0.4,0.8,0.7c0.2,0.2,0.5,0.4,0.9,0.7l1.9,1.4l-2.4,0.3c-0.8,0.1-1.6,0.3-2.3,0.5C18.5,55,17,56,16,57.4
					c-1,1.3-1.5,3-1.2,4.9c0.1,0.6,0.2,1.2,0.4,1.9c0.3,1,0.8,2.1,1.3,3.2c0.5,1,1,2.1,1.6,3.2c0.3,0.5,0.6,1.1,1,1.6
					c0.3,0.5,0.6,1,1,1.4l0.1,0.2l0,0.2l1.8,11.1l0,0.2l-0.1,0.2c-0.2,0.5-0.7,2.2-0.9,4.3c-0.2,2,0.1,4.3,1.4,6
					c1.2,1.6,2.2,2.8,3,3.7c0.8,0.9,1.3,1.6,1.7,2l0.4,0.4l-0.2,0.5c-0.1,0.2-0.2,0.4-0.3,0.8c-0.1,0.2-0.2,0.4-0.3,0.7
					c-2.9,6.2-8.5,16.8-8.8,17.4c0,0.1-0.1,0.8,0.1,1.3c0.1,0.3,0.3,0.6,0.6,0.8c1.1,0.7,20.7,0,22.8,0c0.1-0.9,0.5-5-2.1-7.4
					l-0.6-0.6l0.5-0.7c0.6-0.8,1.8-2.5,3.2-4.6c1.4-2.1,3.1-4.6,4.5-6.8l0.4-0.6l0.7,0.2c0.8,0.2,2.5,0.8,4,1.4c1,0.4,2,1,2.6,1.5
					l0.3,0.2l0,0.3c0.2,1.6,0.4,3.4,0.6,4.8c0.2,1.5,0.2,2.4,0.3,2.7l0,0.1l0,0.1c-0.1,0.5-0.7,3.5-0.8,5.9c-0.1,1.1-0.1,2,0.1,2.2
					c0.6,0.8,19.2,0,21.1-0.1c0-0.2,0.1-0.3,0.1-0.4c0-0.1,0.1-0.3,0.1-0.5c0.3-1.1,0.4-2.1,0.3-3.1c-0.1-0.9-0.3-1.7-0.7-2.4
					c-0.4-0.7-1-1.3-1.7-1.8c-0.7-0.5-1.6-0.9-2.7-1.2l-0.4-0.1l-0.8-0.2l0.1-0.8c0.2-1.3,0.6-4.6,0.9-8c0.3-3.2,0.4-6.4,0-7.4
					c-0.3-0.9-1.3-2.3-2.3-3.7c-1.1-1.5-2.2-2.9-2.9-3.7l-1-1.2l1.5-0.3L77,85.2l0.2-0.1l0.3-0.5l15.6-32.2L75.1,36l-7.3,2.2
					c0,0.2,0,0.5-0.1,0.7c-0.2,0.5-0.5,1.1-1,1.6c-0.5,0.6-1.1,1.1-1.8,1.6c-0.7,0.5-1.4,1-2.2,1.4c-1.6,0.9-3.1,1.5-3.7,1.4
					c-0.1,0-0.2-0.1-0.3-0.2c-0.4-0.4-0.6-1.5-0.7-2.6c0-0.4-0.1-0.7-0.1-1.1l-2.6,0.8l-1.5,0.5l0.4-1.6c0.2-0.7,0.3-1.5,0.4-2.2
					c0.1-0.6,0.2-1.3,0.2-2c-2.9-1-2.4-3.1-2.4-3.1c0-0.1,0-0.2,0.1-0.3c0.1,0,0.2,0,0.3-0.1C53.6,33,54.3,32.9,54.9,32.8L54.9,32.8
					z M59.3,44.1C59.3,44.1,59.3,44.1,59.3,44.1C59.3,44.1,59.3,44.1,59.3,44.1C59.3,44.1,59.3,44.1,59.3,44.1z"/>
				<path class="st8" d="M59,39.1c1.2,0.2,2.4,0.2,2.4,0.2c-1.1,0.3-1.5,0.5-2.7,0.4c0,0.5,0,1.5,0.1,2.4c0.1,0.9,0.2,1.8,0.5,2.1
					l0,0c0,0,0,0,0,0c0.5,0.1,1.8-0.4,3.2-1.2c1.4-0.8,2.9-1.8,3.8-2.8c0.4-0.4,0.7-0.9,0.8-1.3c0.1-0.2,0.1-0.4,0-0.6
					c-0.1-0.6-0.5-1.3-1.3-2c-0.8-0.7-1.9-1.3-3.3-1.8c-1.1-0.4-2.4-0.6-3.9-0.7c-1.5-0.1-3.3,0-5.2,0.3c0,0.3,0.6,1.1,1.9,1.7
					c1.2,0.6,3.1,1.1,5.8,1c-0.8,0.2-1.5,0.3-2.2,0.4c-0.7,0.1-1.5,0-2.3-0.1C56.5,38.3,57.8,38.8,59,39.1z"/>
			</g>
		</g>
	</g>
</g>
</svg>
