<?xml version="1.0" encoding="utf-8"?>
<!-- Generator: Adobe Illustrator 19.2.0, SVG Export Plug-In . SVG Version: 6.00 Build 0)  -->
<svg version="1.1" id="Layer_1" xmlns="http://www.w3.org/2000/svg" xmlns:xlink="http://www.w3.org/1999/xlink" x="0px" y="0px"
	 viewBox="0 0 400 371.1" style="enable-background:new 0 0 400 371.1;" xml:space="preserve">
<style type="text/css">
	.st0{fill:url(#XMLID_2_);}
</style>
<g id="_x35_cDvJc.tif">
	
		<image style="overflow:visible;opacity:0.25;" width="1643" height="1470" xlink:href="8CEB72D19AAD7FDF.png"  transform="matrix(0.24 0 0 0.24 2.8964 14.2301)">
	</image>
	<g>
		<g>
			<g id="XMLID_238_">
				<linearGradient id="XMLID_2_" gradientUnits="userSpaceOnUse" x1="200" y1="18.2301" x2="200" y2="352.9039">
					<stop  offset="0" style="stop-color:#EF3754"/>
					<stop  offset="1" style="stop-color:#EE4D9A"/>
				</linearGradient>
				<path id="XMLID_239_" class="st0" d="M293.2,18.2c8.7,1.4,17.3,2.9,25.5,6c25.7,9.7,45.2,26.5,57.7,51
					c10.8,21,13.6,43.4,10.5,66.6c-3.4,25.5-13.4,48.6-27,70.2c-15.8,25.1-35.5,46.9-57.3,66.8c-30.4,27.8-64,51.3-99,72.8
					c-2.6,1.6-4.9,1.6-7.6,0c-30.4-18.5-59.6-38.6-86.6-61.7c-26-22.2-49.6-46.7-68.2-75.5c-13.6-21.1-23.7-43.6-27.9-68.5
					c-0.6-3.3-1-6.6-1.4-9.9c0-7.1,0-14.2,0-21.3c0.1-0.5,0.3-1,0.4-1.5c1.3-14.1,5.2-27.3,12-39.8C37.3,49.2,57,32.8,82.8,23.6
					c7.7-2.7,15.7-4,23.7-5.4c6.5,0,12.9,0,19.4,0c4.6,0.8,9.3,1.4,13.8,2.4c25.4,5.6,45.5,18.6,58.5,41.7c0.4,0.7,0.6,1.8,1.6,1.7
					c1.1-0.1,1.3-1.3,1.7-2c10-17.8,24.7-29.9,43.7-37.2c9.2-3.5,18.8-5.3,28.6-6.6C280.3,18.2,286.7,18.2,293.2,18.2z M371.6,182.6
					 M326.1,250.4 M242.9,321.9 M203,347.9 M196.8,348 M112.2,287.7 M44.5,212.9 M16.9,145 M34.7,63.4 M93,24.4 M168.9,36.1
					 M196.1,65.8 M199.8,70.4 M203.5,65.9 M345.2,43 M383.3,109 M384.5,125.9"/>
			</g>
		</g>
	</g>
</g>
</svg>
