<?xml version="1.0" encoding="utf-8"?>
<!-- Generator: Adobe Illustrator 19.2.0, SVG Export Plug-In . SVG Version: 6.00 Build 0)  -->
<svg version="1.1" id="Layer_1" xmlns="http://www.w3.org/2000/svg" xmlns:xlink="http://www.w3.org/1999/xlink" x="0px" y="0px"
	 viewBox="0 0 600 382.3" style="enable-background:new 0 0 600 382.3;" xml:space="preserve">
<style type="text/css">
	.st0{fill:#6CBA45;}
</style>
<path class="st0" d="M422.7,218.2c-32.7,0-83.7,9.3-122.7,27.3c-39-18.3-90-27.3-122.7-27.3C118.1,218.2,0,247.6,0,306.8v75h600v-75
	C600,247.6,481.9,218.2,422.7,218.2z M313.6,340.9H40.9v-34.1c0-14.7,69.8-47.7,136.4-47.7s136.4,33,136.4,47.7V340.9z M559.1,340.9
	H354.5v-34.1c0-12.5-5.5-23.5-14.2-33.3c24-8.2,53.5-14.5,82.4-14.5c66.5,0,136.4,33,136.4,47.7V340.9z M172.8,190.8
	c56.2,2.6,102.4-43.7,99.8-99.8c-2.3-49-41.9-88.6-90.9-90.9C125.6-2.5,79.3,43.8,81.9,99.9C84.2,148.9,123.8,188.6,172.8,190.8z
	 M171.9,41.2c34.2-3.3,63,25.5,59.6,59.6c-2.5,25.8-23.2,46.4-48.9,48.9c-34.2,3.3-63-25.5-59.6-59.6
	C125.5,64.3,146.1,43.7,171.9,41.2z M418.2,190.8c56.2,2.6,102.4-43.7,99.8-99.8c-2.3-49-41.9-88.6-90.9-90.9
	C371-2.5,324.8,43.8,327.4,99.9C329.6,148.9,369.3,188.6,418.2,190.8z M417.4,41.2c34.2-3.3,63,25.5,59.6,59.6
	c-2.5,25.8-23.2,46.4-48.9,48.9c-34.2,3.3-63-25.5-59.6-59.6C370.9,64.3,391.6,43.7,417.4,41.2z"/>
</svg>
