<?xml version="1.0" encoding="utf-8"?>
<!-- Generator: Adobe Illustrator 19.2.0, SVG Export Plug-In . SVG Version: 6.00 Build 0)  -->
<svg version="1.1" xmlns="http://www.w3.org/2000/svg" xmlns:xlink="http://www.w3.org/1999/xlink" x="0px" y="0px"
	 viewBox="0 0 333 683" style="enable-background:new 0 0 333 683;" xml:space="preserve">
<style type="text/css">
	.st0{fill:none;}
	.st1{fill:#434343;}
	.st2{fill:#D7D7D6;}
	.st3{fill:#FFFFFF;stroke:#ECECEC;stroke-width:2;stroke-miterlimit:10;}
	.st4{fill:#50A056;}
	.st5{fill:none;stroke:#ECECEC;stroke-width:5;stroke-miterlimit:10;}
	.st6{fill:none;stroke:#BFBFBF;stroke-width:7;stroke-miterlimit:10;}
	.st7{fill:none;stroke:#ECECEC;stroke-miterlimit:10;}
	.st8{fill:#FFFFFF;}
	.st9{fill:#ECECEC;}
	.st10{fill:#BFBFBF;}
	.st11{fill:#FBC02D;}
	.st12{clip-path:url(#SVGID_2_);}
	.st13{clip-path:url(#SVGID_2_);fill:none;}
	.st14{clip-path:url(#SVGID_2_);fill:#FFFFFF;}
	.st15{clip-path:url(#SVGID_2_);fill:#D7D7D6;}
	.st16{clip-path:url(#SVGID_2_);fill:#ACACAC;}
	.st17{clip-path:url(#SVGID_2_);fill:#696969;}
	.st18{opacity:0.3;clip-path:url(#SVGID_2_);fill:url(#SVGID_3_);enable-background:new    ;}
	.st19{clip-path:url(#SVGID_2_);fill:#434343;}
	.st20{clip-path:url(#SVGID_2_);fill:#444444;}
	.st21{clip-path:url(#SVGID_2_);fill:url(#SVGID_4_);}
	.st22{fill:#50A056;stroke:#50A056;stroke-width:2;stroke-miterlimit:10;}
</style>
<pattern  y="683" width="5" height="5" patternUnits="userSpaceOnUse" id="c___-824473781" viewBox="0 -5 5 5" style="overflow:visible;">
	<g>
		<rect y="-5" class="st0" width="5" height="5"/>
		<path class="st0" d="M0,0h5v-5H0V0z"/>
		<path class="st0" d="M0,0h5v-5H0V0z"/>
		<path class="st0" d="M0-5h5v5H0V-5z"/>
		<path class="st0" d="M5,0H0v-5h5V0z"/>
		<path d="M2-3H0v-2h2V-3z"/>
	</g>
</pattern>
<pattern  y="683" width="5" height="5" patternUnits="userSpaceOnUse" id="d___-824473781" viewBox="0 -5 5 5" style="overflow:visible;">
	<g>
		<rect y="-5" class="st0" width="5" height="5"/>
		<path class="st0" d="M0,0h5v-5H0V0z"/>
		<path class="st0" d="M0,0h5v-5H0V0z"/>
		<path class="st0" d="M0-5h5v5H0V-5z"/>
		<path class="st0" d="M5,0H0v-5h5V0z"/>
		<path class="st1" d="M2-3H0v-2h2V-3z"/>
	</g>
</pattern>
<g id="Layer_2">
	<rect x="36.2" y="82.5" class="st2" width="260.6" height="519.5"/>
	<g id="VONqnE.tif">
		
			<image style="overflow:visible;" width="405" height="720" id="Layer_0" xlink:href="7E8F7DBD3F49AF05.png"  transform="matrix(0.5506 0 0 0.5506 -268 64.5556)">
		</image>
	</g>
	<g>
		<rect x="465.5" y="447.5" class="st3" width="220" height="153.2"/>
		<rect x="465.5" y="418.9" class="st4" width="220" height="28.7"/>
		<line class="st5" x1="482" y1="486.3" x2="575.5" y2="486.3"/>
		<line class="st6" x1="482" y1="476.3" x2="529" y2="476.3"/>
		<line class="st5" x1="482" y1="496.3" x2="513.7" y2="496.3"/>
		<line class="st6" x1="482.5" y1="532.9" x2="551.5" y2="532.9"/>
		<line class="st7" x1="465.5" y1="567.9" x2="685.5" y2="567.9"/>
		<line class="st5" x1="513.7" y1="583.5" x2="618.6" y2="583.5"/>
		<line class="st5" x1="633.7" y1="583.5" x2="668" y2="583.5"/>
		<line class="st5" x1="642.8" y1="486.3" x2="668" y2="486.3"/>
		<path class="st4" d="M493.2,592.4L493.2,592.4c-4.9,0-8.9-4-8.9-8.9l0,0c0-4.9,4-8.9,8.9-8.9h0c4.9,0,8.9,4,8.9,8.9l0,0
			C502.1,588.4,498.1,592.4,493.2,592.4z"/>
	</g>
	<g>
		<g>
			<g>
				<rect x="56.5" y="138.8" class="st8" width="220" height="153.2"/>
				<path class="st9" d="M277.5,293h-222V137.8h222V293z M57.5,291h218V139.8h-218V291z"/>
			</g>
			<g>
				<rect x="56.5" y="110.1" class="st4" width="220" height="28.7"/>
				<path class="st4" d="M277.5,139.8h-222v-30.7h222V139.8z M57.5,137.8h218v-26.7h-218V137.8z"/>
			</g>
			<rect x="73" y="175.1" class="st9" width="93.5" height="5"/>
			<rect x="73" y="164.1" class="st10" width="47" height="7"/>
			<rect x="73" y="185.1" class="st9" width="31.7" height="5"/>
			<rect x="73.5" y="220.6" class="st10" width="69" height="7"/>
			<rect x="56.5" y="258.6" class="st9" width="220" height="1"/>
			<rect x="104.7" y="272.3" class="st9" width="104.9" height="5"/>
			<rect x="224.7" y="272.3" class="st9" width="34.3" height="5"/>
			<rect x="233.8" y="175.1" class="st9" width="25.2" height="5"/>
			<path class="st4" d="M84.2,283.7L84.2,283.7c-4.9,0-8.9-4-8.9-8.9v0c0-4.9,4-8.9,8.9-8.9h0c4.9,0,8.9,4,8.9,8.9v0
				C93.1,279.7,89.1,283.7,84.2,283.7z"/>
		</g>
		<g>
			<g>
				<rect x="56.5" y="349.7" class="st8" width="220" height="153.2"/>
				<path class="st9" d="M277.5,503.9h-222V348.7h222V503.9z M57.5,501.9h218V350.7h-218V501.9z"/>
			</g>
			<g>
				<rect x="56.5" y="321" class="st4" width="220" height="28.7"/>
				<path class="st4" d="M277.5,350.7h-222V320h222V350.7z M57.5,348.7h218V322h-218V348.7z"/>
			</g>
			<rect x="73" y="386" class="st9" width="93.5" height="5"/>
			<rect x="73" y="375" class="st10" width="47" height="7"/>
			<rect x="73" y="396" class="st9" width="31.7" height="5"/>
			<rect x="73.5" y="431.5" class="st10" width="69" height="7"/>
			<rect x="56.5" y="469.5" class="st9" width="220" height="1"/>
			<rect x="104.7" y="483.2" class="st9" width="104.9" height="5"/>
			<rect x="224.7" y="483.2" class="st9" width="34.3" height="5"/>
			<rect x="233.8" y="386" class="st9" width="25.2" height="5"/>
			<path class="st4" d="M84.2,494.6L84.2,494.6c-4.9,0-8.9-4-8.9-8.9l0,0c0-4.9,4-8.9,8.9-8.9h0c4.9,0,8.9,4,8.9,8.9l0,0
				C93.1,490.6,89.1,494.6,84.2,494.6z"/>
		</g>
	</g>
	<path class="st11" d="M257.6,571.5L257.6,571.5c-10.5,0-18.9-8.5-18.9-18.9v0c0-10.5,8.5-18.9,18.9-18.9h0
		c10.5,0,18.9,8.5,18.9,18.9v0C276.5,563,268,571.5,257.6,571.5z"/>
</g>
<g id="Layer_1">
	<title>Decorative Illustration</title>
	<path class="st0" d="M746.2,571.5c0,2.8-2.2,5-5,5H490.6c-2.8,0-5-2.2-5-5V62c0-2.8,2.2-5,5-5h250.6c2.8,0,5,2.2,5,5L746.2,571.5
		L746.2,571.5z"/>
	<g id="fake-illo-layer___-824473781">
		<path class="st2" d="M915.2-66.9h130v259.9h-130V-66.9z"/>
		<path d="M785.2-66.9h130v259.9h-130V-66.9z"/>
		<ellipse cx="915.2" cy="63" rx="130" ry="129.9"/>
		<circle class="st8" cx="915.2" cy="157.9" r="3"/>
		<circle cx="1009.2" cy="4" r="3"/>
		<circle cx="997.2" cy="137.6" r="3"/>
		<circle class="st8" cx="886.3" cy="136.5" r="3"/>
		<circle class="st8" cx="956.5" cy="110.5" r="3"/>
		<circle cx="886.4" cy="-10.6" r="3"/>
		<circle class="st8" cx="986.2" cy="61.5" r="3"/>
		<path d="M983.2,199.9v51h27v-51H983.2L983.2,199.9z M1013.2,192.9v65h-33v-65h-65v129.9h130V192.9L1013.2,192.9L1013.2,192.9z"/>
		<path d="M1041.2,318.8h2v2h-2V318.8z M1036.2,318.8h2v2h-2V318.8z M1031.2,318.8h2v2h-2V318.8z M1026.2,318.8h2v2h-2V318.8z
			 M1021.2,318.8h2v2h-2V318.8z M1016.2,318.8h2v2h-2V318.8z M1011.2,318.8h2v2h-2V318.8z M1006.2,318.8h2v2h-2V318.8z
			 M1001.2,318.8h2v2h-2V318.8z M996.2,318.8h2v2h-2L996.2,318.8z M991.2,318.8h2v2h-2V318.8z M986.2,318.8h2v2h-2V318.8z
			 M981.2,318.8h2v2h-2V318.8z M976.2,318.8h2v2h-2V318.8z M971.2,318.8h2v2h-2V318.8z M966.2,318.8h2v2h-2V318.8z M961.2,318.8h2v2
			h-2V318.8z M956.2,318.8h2v2h-2V318.8z M951.2,318.8h2v2h-2V318.8z M946.2,318.8h2v2h-2V318.8z M941.2,318.8h2v2h-2V318.8z
			 M936.2,318.8h2v2h-2V318.8z M931.2,318.8h2v2h-2V318.8z M1041.2,313.8h2v2h-2V313.8z M1036.2,313.8h2v2h-2V313.8z M1031.2,313.8
			h2v2h-2V313.8z M1026.2,313.8h2v2h-2V313.8z M1021.2,313.8h2v2h-2V313.8z M1016.2,313.8h2v2h-2V313.8z M1011.2,313.8h2v2h-2V313.8
			z M1006.2,313.8h2v2h-2V313.8z M1001.2,313.8h2v2h-2V313.8z M996.2,313.8h2v2h-2L996.2,313.8z M991.2,313.8h2v2h-2V313.8z
			 M986.2,313.8h2v2h-2V313.8z M981.2,313.8h2v2h-2V313.8z M976.2,313.8h2v2h-2V313.8z M971.2,313.8h2v2h-2V313.8z M966.2,313.8h2v2
			h-2V313.8z M961.2,313.8h2v2h-2V313.8z M956.2,313.8h2v2h-2V313.8z M951.2,313.8h2v2h-2V313.8z M946.2,313.8h2v2h-2V313.8z
			 M1041.2,308.9h2v2h-2V308.9z M1036.2,308.9h2v2h-2V308.9z M1031.2,308.9h2v2h-2V308.9z M1026.2,308.9h2v2h-2V308.9z
			 M1021.2,308.9h2v2h-2V308.9z M1016.2,308.9h2v2h-2V308.9z M1011.2,308.9h2v2h-2V308.9z M1006.2,308.9h2v2h-2V308.9z
			 M1001.2,308.9h2v2h-2V308.9z M996.2,308.9h2v2h-2L996.2,308.9z M991.2,308.9h2v2h-2V308.9z M986.2,308.9h2v2h-2V308.9z
			 M981.2,308.9h2v2h-2V308.9z M976.2,308.9h2v2h-2V308.9z M971.2,308.9h2v2h-2V308.9z M966.2,308.9h2v2h-2V308.9z M961.2,308.9h2v2
			h-2V308.9z M956.2,308.9h2v2h-2V308.9z M951.2,308.9h2v2h-2V308.9z M931.2,308.9h2v2h-2V308.9z M926.2,308.9h2v2h-2V308.9z
			 M1041.2,303.8h2v2h-2V303.8z M1036.2,303.8h2v2h-2V303.8z M1031.2,303.8h2v2h-2V303.8z M1026.2,303.8h2v2h-2V303.8z
			 M1021.2,303.8h2v2h-2V303.8z M1016.2,303.8h2v2h-2V303.8z M1011.2,303.8h2v2h-2V303.8z M1006.2,303.8h2v2h-2V303.8z
			 M1001.2,303.8h2v2h-2V303.8z M996.2,303.8h2v2h-2L996.2,303.8z M991.2,303.8h2v2h-2V303.8z M986.2,303.8h2v2h-2V303.8z
			 M981.2,303.8h2v2h-2V303.8z M976.2,303.8h2v2h-2V303.8z M971.2,303.8h2v2h-2V303.8z M966.2,303.8h2v2h-2V303.8z M961.2,303.8h2v2
			h-2V303.8z M941.2,303.8h2v2h-2V303.8z M936.2,303.8h2v2h-2V303.8z M931.2,303.8h2v2h-2V303.8z M926.2,303.8h2v2h-2V303.8z
			 M1041.2,298.9h2v2h-2V298.9z M1036.2,298.9h2v2h-2V298.9z M1031.2,298.9h2v2h-2V298.9z M1026.2,298.9h2v2h-2V298.9z
			 M1021.2,298.9h2v2h-2V298.9z M1016.2,298.9h2v2h-2V298.9z M1011.2,298.9h2v2h-2V298.9z M1006.2,298.9h2v2h-2V298.9z
			 M1001.2,298.9h2v2h-2V298.9z M996.2,298.9h2v2h-2L996.2,298.9z M991.2,298.9h2v2h-2V298.9z M986.2,298.9h2v2h-2V298.9z
			 M981.2,298.9h2v2h-2V298.9z M976.2,298.9h2v2h-2V298.9z M971.2,298.9h2v2h-2V298.9z M966.2,298.9h2v2h-2V298.9z M946.2,298.9h2v2
			h-2V298.9z M941.2,298.9h2v2h-2V298.9z M936.2,298.9h2v2h-2V298.9z M931.2,298.9h2v2h-2V298.9z M1041.2,293.9h2v2h-2V293.9z
			 M1036.2,293.9h2v2h-2V293.9z M1031.2,293.9h2v2h-2V293.9z M1026.2,293.9h2v2h-2V293.9z M1021.2,293.9h2v2h-2V293.9z
			 M1016.2,293.9h2v2h-2V293.9z M1011.2,293.9h2v2h-2V293.9z M1006.2,293.9h2v2h-2V293.9z M1001.2,293.9h2v2h-2V293.9z M996.2,293.9
			h2v2h-2L996.2,293.9z M991.2,293.9h2v2h-2V293.9z M986.2,293.9h2v2h-2V293.9z M981.2,293.9h2v2h-2V293.9z M976.2,293.9h2v2h-2
			V293.9z M971.2,293.9h2v2h-2V293.9z M966.2,293.9h2v2h-2V293.9z M951.2,293.9h2v2h-2V293.9z M946.2,293.9h2v2h-2V293.9z
			 M941.2,293.9h2v2h-2V293.9z M936.2,293.9h2v2h-2V293.9z M1041.2,288.9h2v2h-2V288.9z M1036.2,288.9h2v2h-2V288.9z M1031.2,288.9
			h2v2h-2V288.9z M1026.2,288.9h2v2h-2V288.9z M1021.2,288.9h2v2h-2V288.9z M1016.2,288.9h2v2h-2V288.9z M1011.2,288.9h2v2h-2V288.9
			z M1006.2,288.9h2v2h-2V288.9z M1001.2,288.9h2v2h-2V288.9z M996.2,288.9h2v2h-2V288.9z M991.2,288.9h2v2h-2V288.9z M986.2,288.9
			h2v2h-2V288.9z M981.2,288.9h2v2h-2V288.9z M976.2,288.9h2v2h-2V288.9z M971.2,288.9h2v2h-2V288.9z M956.2,288.9h2v2h-2V288.9z
			 M951.2,288.9h2v2h-2V288.9z M946.2,288.9h2v2h-2V288.9z M941.2,288.9h2v2h-2V288.9z M1041.2,283.9h2v2h-2V283.9z M1036.2,283.9h2
			v2h-2V283.9z M1031.2,283.9h2v2h-2V283.9z M1026.2,283.9h2v2h-2V283.9z M1021.2,283.9h2v2h-2V283.9z M1016.2,283.9h2v2h-2V283.9z
			 M1011.2,283.9h2v2h-2V283.9z M1006.2,283.9h2v2h-2V283.9z M1001.2,283.9h2v2h-2V283.9z M996.2,283.9h2v2h-2V283.9z M991.2,283.9
			h2v2h-2V283.9z M986.2,283.9h2v2h-2V283.9z M981.2,283.9h2v2h-2V283.9z M976.2,283.9h2v2h-2V283.9z M971.2,283.9h2v2h-2V283.9z
			 M961.2,283.9h2v2h-2V283.9z M956.2,283.9h2v2h-2V283.9z M951.2,283.9h2v2h-2V283.9z M946.2,283.9h2v2h-2V283.9z M1041.2,278.9h2
			v2h-2V278.9z M1036.2,278.9h2v2h-2V278.9z M1031.2,278.9h2v2h-2V278.9z M1026.2,278.9h2v2h-2V278.9z M1021.2,278.9h2v2h-2V278.9z
			 M1016.2,278.9h2v2h-2V278.9z M1011.2,278.9h2v2h-2V278.9z M1006.2,278.9h2v2h-2V278.9z M1001.2,278.9h2v2h-2V278.9z M996.2,278.9
			h2v2h-2V278.9z M991.2,278.9h2v2h-2V278.9z M986.2,278.9h2v2h-2V278.9z M981.2,278.9h2v2h-2V278.9z M976.2,278.9h2v2h-2V278.9z
			 M961.2,278.9h2v2h-2V278.9z M956.2,278.9h2v2h-2V278.9z M951.2,278.9h2v2h-2V278.9z M1041.2,273.9h2v2h-2V273.9z M1036.2,273.9h2
			v2h-2V273.9z M1031.2,273.9h2v2h-2V273.9z M1026.2,273.9h2v2h-2V273.9z M1021.2,273.9h2v2h-2V273.9z M1016.2,273.9h2v2h-2V273.9z
			 M1011.2,273.9h2v2h-2V273.9z M1006.2,273.9h2v2h-2V273.9z M1001.2,273.9h2v2h-2V273.9z M996.2,273.9h2v2h-2V273.9z M991.2,273.9
			h2v2h-2V273.9z M986.2,273.9h2v2h-2V273.9z M981.2,273.9h2v2h-2V273.9z M976.2,273.9h2v2h-2V273.9z M966.2,273.9h2v2h-2V273.9z
			 M961.2,273.9h2v2h-2V273.9z M956.2,273.9h2v2h-2V273.9z M1041.2,268.9h2v2h-2V268.9z M1036.2,268.9h2v2h-2V268.9z M1031.2,268.9
			h2v2h-2V268.9z M1026.2,268.9h2v2h-2V268.9z M1021.2,268.9h2v2h-2V268.9z M1016.2,268.9h2v2h-2V268.9z M1011.2,268.9h2v2h-2V268.9
			z M1006.2,268.9h2v2h-2V268.9z M1001.2,268.9h2v2h-2V268.9z M996.2,268.9h2v2h-2V268.9z M991.2,268.9h2v2h-2V268.9z M986.2,268.9
			h2v2h-2V268.9z M981.2,268.9h2v2h-2V268.9z M1041.2,263.9h2v2h-2V263.9z M1036.2,263.9h2v2h-2V263.9z M1031.2,263.9h2v2h-2V263.9z
			 M1026.2,263.9h2v2h-2V263.9z M1021.2,263.9h2v2h-2V263.9z M1016.2,263.9h2v2h-2V263.9z M1011.2,263.9h2v2h-2V263.9z
			 M1006.2,263.9h2v2h-2V263.9z M1001.2,263.9h2v2h-2V263.9z M996.2,263.9h2v2h-2V263.9z M991.2,263.9h2v2h-2V263.9z M986.2,263.9h2
			v2h-2V263.9z M981.2,263.9h2v2h-2V263.9z M1041.2,258.9h2v2h-2V258.9z M1036.2,258.9h2v2h-2V258.9z M1031.2,258.9h2v2h-2V258.9z
			 M1026.2,258.9h2v2h-2V258.9z M1021.2,258.9h2v2h-2V258.9z M1016.2,258.9h2v2h-2V258.9z M1011.2,258.9h2v2h-2V258.9z
			 M1006.2,258.9h2v2h-2V258.9z M1001.2,258.9h2v2h-2V258.9z M996.2,258.9h2v2h-2V258.9z M991.2,258.9h2v2h-2V258.9z M986.2,258.9h2
			v2h-2V258.9z M981.2,258.9h2v2h-2V258.9z M980.2,192.9v65h33v-65H980.2L980.2,192.9z M1010.2,250.9h-27v-51h27V250.9z"/>
		<path d="M983.2,199.9h27v51h-27V199.9z"/>
		<path class="st8" d="M983.2,199.9h27v51h-27V199.9z"/>
		<circle cx="987.2" cy="208.9" r="2"/>
		<path d="M985.3,209.4l1.5,4.2c0.1,0.2,0.4,0.4,0.6,0.3c0.1,0,0.2-0.1,0.3-0.3l1.4-4.2H985.3L985.3,209.4z"/>
		<path class="st2" d="M983.2,199.9h27v5h-27V199.9z"/>
		<circle cx="987.2" cy="218.9" r="2"/>
		<path d="M985.3,219.4l1.5,4.2c0.1,0.2,0.4,0.4,0.6,0.3c0.1,0,0.2-0.1,0.3-0.3l1.4-4.2H985.3L985.3,219.4z"/>
		<path class="st2" d="M985.2,225.9h23v2h-23V225.9z"/>
		<path d="M995.2,231.9h-7v2h7c1.1,0,2,0.9,2,2v13h2v-13C999.2,233.7,997.5,231.9,995.2,231.9z M988.2,235.9l-3-3l3-3V235.9z"/>
		<g id="home-illo-layer___-824473781">
			<defs>
				<rect id="SVGID_1_" x="915.2" y="192.9" width="130" height="129.9"/>
			</defs>
			<clipPath id="SVGID_2_">
				<use xlink:href="#SVGID_1_"  style="overflow:visible;"/>
			</clipPath>
			<g class="st12">
				<path d="M915.2,192.9v11c29.8,0,54,24.2,54,54l0,0h-11c-4.5,0-8.8-1.8-12-5s-7.5-5-12-5h-19v75c35.9,0,65-29.1,65-65
					S951.1,192.9,915.2,192.9L915.2,192.9z M925.3,310.8c0.4-4.4,2.4-8.6,5.6-11.7l20.7-20.7c3.6-3.6,8.6-5.7,13.7-5.7h2
					C961.5,292.3,945.3,307,925.3,310.8z"/>
				<path class="st2" d="M915.2,256.9c5.5-0.2,10.2,4.1,10.4,9.6c0.2,5.5-4.1,10.2-9.6,10.4h-0.8V256.9z"/>
			</g>
			<path class="st13" d="M1038.2,225.4c0-13.9-11.1-25.2-25-25.5v3c12.4,0,22.5,10.1,22.5,22.5s-10.1,22.5-22.5,22.5l0,0v3
				C1027.1,250.6,1038.2,239.3,1038.2,225.4z"/>
			<path class="st13" d="M1033.2,225.4c0-11.1-8.9-20.2-20-20.5v3c9.7,0,17.5,7.8,17.5,17.5s-7.8,17.5-17.5,17.5v3
				C1024.4,245.6,1033.2,236.5,1033.2,225.4z"/>
			<path class="st13" d="M1023.2,225.4c0-5.6-4.4-10.2-10-10.5v3c4.1,0.2,7.3,3.7,7.1,7.9c-0.2,3.8-3.3,6.9-7.1,7.1v3
				C1018.8,235.6,1023.2,231,1023.2,225.4z"/>
			<path class="st13" d="M1043.2,225.4c0-16.6-13.4-30.2-30-30.5v3c15.2,0,27.5,12.3,27.5,27.5s-12.3,27.5-27.5,27.5v3
				C1029.9,255.6,1043.2,242,1043.2,225.4z"/>
			<path class="st13" d="M1028.2,225.4c0-8.4-6.6-15.2-15-15.5v3c6.9,0,12.5,5.6,12.5,12.5s-5.6,12.5-12.5,12.5v3
				C1021.6,240.6,1028.2,233.8,1028.2,225.4z"/>
			<path class="st13" d="M1018.2,225.4c0-2.8-2.2-5.2-5-5.5v3c1.3,0.3,2.2,1.6,1.9,2.9c-0.2,1-0.9,1.7-1.9,1.9v3
				C1016.1,230.6,1018.3,228.2,1018.2,225.4z"/>
			<path class="st12" d="M1045.2,225.4c0-17.7-14.3-32.2-32-32.5v2c16.8,0,30.5,13.7,30.5,30.5s-13.7,30.5-30.5,30.5v2.1
				C1031,257.7,1045.3,243.2,1045.2,225.4z"/>
			<path class="st12" d="M1040.2,225.4c0-15-12-27.2-27-27.5v2c14.1,0,25.5,11.4,25.5,25.5s-11.4,25.5-25.5,25.5v2
				C1028.2,252.6,1040.3,240.4,1040.2,225.4z"/>
			<path class="st12" d="M1035.2,225.4c-0.1-12.2-9.8-22.1-22-22.4v2c11.3,0,20.5,9.2,20.5,20.5s-9.2,20.5-20.5,20.5v1.9
				C1025.4,247.5,1035.2,237.6,1035.2,225.4z"/>
			<path class="st12" d="M1030.2,225.4c0-9.5-7.5-17.2-17-17.5v2c8.6,0,15.5,6.9,15.5,15.5s-6.9,15.5-15.5,15.5v2
				C1022.7,242.6,1030.2,234.9,1030.2,225.4z"/>
			<path class="st12" d="M1025.2,225.4c0-6.7-5.3-12.2-12-12.5v2c5.8,0.3,10.3,5.2,10,11c-0.2,5.4-4.6,9.8-10,10v2
				C1019.9,237.6,1025.2,232.1,1025.2,225.4z"/>
			<path class="st12" d="M1020.2,225.4c0-3.9-3.1-7.2-7-7.5v2c3,0.3,5.2,3,4.9,6.1c-0.3,2.6-2.3,4.7-4.9,4.9v2
				C1017.2,232.6,1020.2,229.3,1020.2,225.4z"/>
			<path class="st12" d="M1015.2,225.4c0-1.2-0.8-2.2-2-2.4v4.9C1014.4,227.6,1015.2,226.6,1015.2,225.4L1015.2,225.4z"/>
			<path class="st14" d="M785.2,192.9h130v118.9h-130V192.9z"/>
			<path class="st15" d="M850.2,209.9v-17h-22v118.9h87v-37C915.2,274.9,850.2,209.9,850.2,209.9z"/>
			<path class="st12" d="M785.2,311.8h130v11h-130V311.8z"/>
			<path class="st14" d="M872.2,283.9h43v2h-43V283.9z M872.2,287.9h43v2h-43V287.9z M872.2,291.9h43v2h-43V291.9z M872.2,295.9h43
				v2h-43V295.9z M872.2,299.8h43v2h-43V299.8z M872.2,303.8h43v2h-43V303.8z M872.2,307.9h43v2h-43V307.9z"/>
			<path class="st12" d="M815.3,265.9h-10v46h2v-25h8c2.7,0,5-2.2,5-4.9v-11.1c0-2.7-2.2-4.9-4.9-5H815.3z"/>
			<path class="st12" d="M839.2,198.9c1.1,0,2,0.9,2,2v16h-4v-16C837.2,199.8,838.1,198.9,839.2,198.9 M839.2,196.9
				c-2.2,0-4,1.8-4,4v18h8v-18C843.2,198.7,841.4,196.9,839.2,196.9z M839.2,225.9c1.1,0,2,0.9,2,2v16h-4v-16
				C837.2,226.8,838.1,225.9,839.2,225.9 M839.2,223.9c-2.2,0-4,1.8-4,4v18h8v-18C843.2,225.7,841.4,223.9,839.2,223.9z"/>
			<path class="st15" d="M785.2,251.9h43v2h-43V251.9z M785.2,255.9h43v2h-43V255.9z"/>
			<path class="st12" d="M828.2,251.9h22v2h-22V251.9z M828.2,255.9h22v2h-22V255.9z"/>
			<path class="st15" d="M857.2,195.9h53v2h-53V195.9z M857.2,201.9h53v2h-53V201.9z M857.2,207.9h53v2h-53V207.9z M857.2,213.9h53
				v2h-53V213.9z M857.2,219.9h53v2h-53V219.9z M857.2,225.9h53v2h-53V225.9z M857.2,231.9h53v2h-53V231.9z M857.2,237.9h53v2h-53
				V237.9z M857.2,243.9h53v2h-53V243.9z M857.2,249.9h53v2h-53V249.9z M857.2,255.9h53v2h-53V255.9z M857.2,261.9h53v2h-53V261.9z
				 M857.2,267.9h53v2h-53V267.9z"/>
			<path class="st12" d="M857.2,221.9h5l-2-2h-3V221.9z M857.2,227.9h11l-2-2h-9V227.9z M857.2,233.9h17l-2-2h-15
				C857.2,231.9,857.2,233.9,857.2,233.9z M857.2,239.9h23l-2-2h-21V239.9z M857.2,245.9h29l-2-2h-27
				C857.2,243.9,857.2,245.9,857.2,245.9z M857.2,251.9h35l-2-2h-33C857.2,249.9,857.2,251.9,857.2,251.9z M857.2,257.9h41l-2-2h-39
				C857.2,255.9,857.2,257.9,857.2,257.9z M857.2,263.9h47l-2-2h-45C857.2,261.9,857.2,263.9,857.2,263.9z M857.2,269.9h53l-2-2h-51
				C857.2,267.9,857.2,269.9,857.2,269.9z M801.6,296.1l11.3-2c4.7-0.8,9.3-2.4,13.4-4.8c6.4-3.6,13.7-5.4,21-5.4h21.2
				c6.6,0,13.1,1.5,19.1,4.3l4.6,2.3c3,1.5,6.3,2.2,9.7,2.2h2.1c0.9,0,1.7,0.8,1.7,1.7v2.7c0,0.7,0.3,1.4,0.8,1.9
				c0.6,0.6,0.9,1.4,0.9,2.2v1.5c0,3.6-2.9,6.5-6.5,6.5c0,0,0,0,0,0h-98.2c-3.5,0-6.4-2.8-6.5-6.3v-0.4
				C796.2,299.2,798.5,296.6,801.6,296.1L801.6,296.1z"/>
			<path class="st12" d="M901,305c0-4.2-3.4-7.6-7.6-7.6c-4.2,0-7.6,3.4-7.6,7.6h-45.4c0.1-4.2-3.3-7.6-7.5-7.7
				c-4.2-0.1-7.6,3.3-7.7,7.5l0,0h-28l-0.4,0.3c0.3,0.9,0.8,1.7,1.5,2.4c1.2,1.2,2.9,1.9,4.6,1.9h1.4c1.3,1.6,3.2,2.5,5.3,2.5
				c2.1,0,4-0.9,5.3-2.5h12.7c1.3,1.6,3.2,2.5,5.3,2.5c2.1,0,4-0.9,5.3-2.5h50.1c1.3,1.6,3.2,2.5,5.3,2.5c2.1,0,4-0.9,5.3-2.5h2.2
				c1.7,0,3.4-0.7,4.6-1.9c0.6-0.7,1.1-1.4,1.4-2.3H901L901,305L901,305L901,305z"/>
			<path class="st15" d="M805.2,286.9h-10c-2.7,0-5-2.2-5-4.9v-11.1c0-2.7,2.2-5,4.9-5h10.1V286.9z M806.2,198.9c1.1,0,2,0.9,2,2v16
				h-4v-16C804.2,199.8,805.1,198.9,806.2,198.9 M806.2,196.9c-2.2,0-4,1.8-4,4v18h8v-18C810.2,198.7,808.5,196.9,806.2,196.9z
				 M793.2,198.9c1.1,0,2,0.9,2,2v16h-4v-16C791.2,199.8,792.1,198.9,793.2,198.9 M793.2,196.9c-2.2,0-4,1.8-4,4v18h8v-18
				C797.2,198.7,795.5,196.9,793.2,196.9z M819.2,198.9c1.1,0,2,0.9,2,2v16h-4v-16C817.2,199.8,818.1,198.9,819.2,198.9
				 M819.2,196.9c-2.2,0-4,1.8-4,4v18h8v-18C823.2,198.7,821.5,196.9,819.2,196.9z M793.2,225.9c1.1,0,2,0.9,2,2v16h-4v-16
				C791.2,226.8,792.1,225.9,793.2,225.9 M793.2,223.9c-2.2,0-4,1.8-4,4v18h8v-18C797.2,225.7,795.5,223.9,793.2,223.9z
				 M806.2,225.9c1.1,0,2,0.9,2,2v16h-4v-16C804.2,226.8,805.1,225.9,806.2,225.9 M806.2,223.9c-2.2,0-4,1.8-4,4v18h8v-18
				C810.2,225.7,808.5,223.9,806.2,223.9z M819.2,225.9c1.1,0,2,0.9,2,2v16h-4v-16C817.2,226.8,818.1,225.9,819.2,225.9
				 M819.2,223.9c-2.2,0-4,1.8-4,4v18h8v-18C823.2,225.7,821.5,223.9,819.2,223.9z"/>
			<circle class="st14" cx="893.5" cy="305" r="4.7"/>
			<circle class="st14" cx="893.5" cy="305" r="0.8"/>
			<path class="st15" d="M895.5,302.9c1.2,1.1,1.2,2.9,0.1,4.1c0,0,0,0,0,0l-0.1,0.1l-2.1-2.1L895.5,302.9z M891.3,307.1
				c-1.2-1.1-1.2-2.9-0.1-4.1c0,0,0,0,0,0l0.1-0.1l2.1,2.1L891.3,307.1z"/>
			<circle class="st14" cx="832.7" cy="305" r="4.7"/>
			<circle class="st14" cx="832.7" cy="305" r="0.8"/>
			<path class="st15" d="M835.7,305c0,1.7-1.3,3-3,3v-3H835.7z M829.7,305c0-1.7,1.3-3,3-3v3H829.7z"/>
			<path class="st14" d="M818.4,306.8h-2.8c-0.8,0-1.6-0.3-2.1-0.9l-1.2-1.1h6.1c0.6,0,1,0.4,1,1C819.4,306.3,819,306.7,818.4,306.8
				z"/>
			<path class="st12" d="M803.3,307.9h4.1c0.5,0,1-0.4,1-0.9c0,0,0-0.1,0-0.1c0-0.5-0.4-1-0.9-1c0,0,0,0,0,0h-4.2
				c-0.5,0-1,0.4-1,0.9c0,0,0,0.1,0,0.1C802.3,307.4,802.8,307.9,803.3,307.9z"/>
			<path class="st14" d="M798.7,304.6l-1,1c-0.2,0.2-0.4,0.4-0.7,0.5c-0.3-0.4-0.5-0.9-0.6-1.5L798.7,304.6z"/>
			<path class="st14" d="M821.1,301.7h-8.1c-0.3,0-0.5-0.2-0.5-0.4c0,0,0,0,0-0.1c0-0.2,0.1-0.3,0.2-0.4l1.4-1.5
				c0.4-0.4,1-0.7,1.6-0.7h5.4c0.8,0,1.4,0.7,1.5,1.5C822.5,300.9,821.9,301.6,821.1,301.7z"/>
			<path class="st12" d="M797.5,298.7h17.7v1h-18.2C797,299.4,797.2,299,797.5,298.7z M796.7,300.7h18.6v1h-18.8
				C796.5,301.4,796.6,301.1,796.7,300.7z"/>
			<circle class="st14" cx="805.5" cy="300" r="1.7"/>
			<path class="st14" d="M856.1,286c-3.7,0.9-7.3,2.3-10.7,4.2c-2.2,1.2-4.5,2.2-6.8,3h-13.5c-0.3,0-0.6-0.3-0.6-0.6
				c0-0.2,0.1-0.4,0.3-0.5l0.8-0.5c6.8-3.7,14.4-5.6,22.2-5.6L856.1,286L856.1,286z"/>
			<path class="st12" d="M905.7,297.4h-4.5c-0.3,0-0.6-0.3-0.6-0.6c0-0.2,0.1-0.3,0.2-0.4l1.6-1.6c0.2-0.2,0.6-0.4,0.9-0.4h2.4
				V297.4L905.7,297.4z M844.4,292.1l0.9-0.5c6.8-3.7,14.4-5.6,22.2-5.6c6.9,0,13.7,1.5,19.9,4.3l3.4,1.7c0.3,0.2,0.4,0.6,0.3,0.9
				c-0.1,0.2-0.3,0.3-0.6,0.3h-37.8v-1.7c0-0.5-0.4-0.9-0.9-0.9c-0.1,0-0.2,0-0.3,0.1c-1.3,0.6-2.7,1.2-3.9,1.9l-0.8,0.5l-0.1,0.1
				h-1.8C844.1,293.1,844,292.4,844.4,292.1z"/>
			<path class="st12" d="M824.8,292.1l0.9-0.5c4.6-2.5,9.7-4.2,14.9-5l-6.5,6.6h-8.9c-0.3,0-0.6-0.2-0.6-0.6
				C824.6,292.4,824.7,292.2,824.8,292.1z"/>
			<path class="st14" d="M799,301.7c0.3,0,0.6-0.3,0.6-0.6c0-0.2-0.1-0.3-0.2-0.4l-1.5-1.6c-0.1-0.1-0.3-0.2-0.4-0.3
				c-0.6,0.9-1,1.9-1.1,3h2.7L799,301.7L799,301.7L799,301.7z"/>
			<path class="st15" d="M785.2,322.8h130v129.9h-130V322.8z"/>
			<path class="st16" d="M785.2,386.8h130v2h-130V386.8z M785.2,408.8h130v2h-130V408.8z M785.2,436.8h130v2h-130V436.8z
				 M785.2,364.8h130v2h-130V364.8z M785.2,343.8h130v2h-130V343.8z"/>
			<circle class="st12" cx="808.2" cy="344.8" r="3"/>
			<path class="st16" d="M828.2,322.8h2v129.9h-2V322.8z M849.2,322.8h2v129.9h-2V322.8z M887.2,322.8h2v87h-2V322.8z M807.2,322.8
				h2v65h-2V322.8z M861.2,438.3l-1.4-1.5l26.4-25.5l1.4,1.5L861.2,438.3z"/>
			<path class="st12" d="M809.2,343.8h41v2h-41V343.8z"/>
			<path class="st12" d="M849.2,343.8h2v66h-2V343.8z"/>
			<path class="st12" d="M849.2,408.8h39v2h-39V408.8z"/>
			<circle class="st12" cx="888.2" cy="409.8" r="3"/>
			<path class="st12" d="M915.2,322.8h130v129.9h-130V322.8z"/>
			<path class="st14" d="M915.2,387.8h130v-65h-64.9c-35.9,0-65,29-65.1,64.9V387.8L915.2,387.8z"/>
			<path class="st15" d="M921.2,387.8h2c-0.2-31.3,25.1-56.8,56.4-57c0,0,0,0,0,0h65.5v-2h-65c-32.4-0.2-58.8,26-59,58.4
				c0,0,0,0,0,0C921.2,387.4,921.2,387.6,921.2,387.8L921.2,387.8z"/>
			<path class="st15" d="M927.2,387.8h2c-0.1-28,22.5-50.9,50.5-51c0,0,0,0,0,0h65.5v-2h-65c-29.1-0.2-52.8,23.3-53,52.4
				c0,0,0,0,0,0V387.8L927.2,387.8z"/>
			<path class="st15" d="M933.2,387.8h2c-0.1-24.7,19.8-44.9,44.5-45c0,0,0,0,0,0h65.5v-2h-65c-25.8-0.1-46.8,20.7-47,46.5
				C933.2,387.5,933.2,387.6,933.2,387.8z"/>
			<path class="st15" d="M939.2,387.8h2c-0.2-21.4,17.1-38.8,38.4-39c0,0,0,0,0,0h65.5v-2h-65c-22.5-0.1-40.9,18-41,40.5
				c0,0,0,0,0,0C939.2,387.4,939.2,387.6,939.2,387.8z"/>
			<path class="st15" d="M945.2,387.8h2c-0.2-18.1,14.4-32.8,32.4-33c0,0,0,0,0,0h65.5v-2h-65c-19.2-0.1-34.9,15.3-35,34.5
				C945.2,387.5,945.2,387.6,945.2,387.8L945.2,387.8z"/>
			<path class="st15" d="M951.2,387.8h2c-0.2-14.7,11.6-26.8,26.4-27c0,0,0,0,0,0h65.6v-2h-65c-15.8-0.2-28.8,12.5-29,28.4
				c0,0,0,0,0,0C951.2,387.4,951.2,387.6,951.2,387.8L951.2,387.8z"/>
			<path class="st15" d="M957.2,387.8h2c-0.2-11.4,8.9-20.8,20.4-21c0,0,0,0,0,0h65.6v-2h-65c-12.5-0.2-22.8,9.8-23,22.3
				C957.2,387.4,957.2,387.6,957.2,387.8z"/>
			<path class="st15" d="M963.2,387.8h2c-0.2-8.1,6.3-14.8,14.5-15c0,0,0,0,0,0h65.5v-2h-65c-9.2-0.2-16.8,7.2-17,16.5c0,0,0,0,0,0
				C963.2,387.4,963.2,387.6,963.2,387.8L963.2,387.8z"/>
			<path class="st15" d="M969.2,387.8h2c-0.2-4.8,3.6-8.8,8.3-9c0,0,0,0,0,0h65.6v-2h-65c-5.9-0.2-10.8,4.5-11,10.4V387.8
				L969.2,387.8z"/>
			<path class="st15" d="M975.2,387.8h2c-0.2-1.5,0.9-2.8,2.5-3c0.2,0,0.4,0,0.5,0h65v-2h-65c-2.6-0.2-4.8,1.8-5,4.4
				C975.2,387.4,975.2,387.6,975.2,387.8L975.2,387.8z"/>
			<path class="st12" d="M1045.2,452.8H915.2v-60c0-2.7,2.2-5,4.9-5h120.1c2.7,0,5,2.2,5,4.9L1045.2,452.8L1045.2,452.8
				L1045.2,452.8z"/>
			<ellipse class="st12" cx="1027.8" cy="438.3" rx="7.5" ry="7.5"/>
			<ellipse class="st12" cx="1017.8" cy="438.3" rx="7.5" ry="7.5"/>
			<path class="st16" d="M938.2,401.8h-10c-1.6-0.1-2.9,1.2-3,2.8c0,0,0,0,0,0v5.2c-0.1,1.6,1.2,2.9,2.8,3c0,0,0,0,0,0h10.2
				c1.6,0.1,2.9-1.2,3-2.8c0,0,0,0,0,0v-5.2c0.1-1.6-1.2-2.9-2.8-3c0,0,0,0,0,0H938.2L938.2,401.8z"/>
			<circle class="st12" cx="979.2" cy="341.8" r="2"/>
			<path class="st15" d="M925.2,418.8h21v2h-21V418.8z M955.2,418.8h21v2h-21V418.8z M985.2,418.8h21v2h-21V418.8z M1015.2,418.8h21
				v2h-21V418.8z M925.2,432.8h21v2h-21V432.8z M955.2,432.8h21v2h-21V432.8z M925.2,439.8h51v2h-51V439.8z"/>
			<circle class="st12" cx="1009.2" cy="335.8" r="2"/>
			<circle class="st12" cx="1010.2" cy="377.8" r="2"/>
			<circle class="st15" cx="943.4" cy="350.8" r="2"/>
			<circle class="st15" cx="941.2" cy="378.8" r="2"/>
			<circle class="st12" cx="958.2" cy="370.5" r="2"/>
			<circle class="st15" cx="997.2" cy="347.8" r="2"/>
			<circle class="st12" cx="1035.4" cy="353.8" r="2"/>
			<circle class="st15" cx="1035.2" cy="335.8" r="2"/>
			<path class="st12" d="M915.2-51c62.9,0,113.9,51,113.9,113.9s-51,113.9-113.9,113.9c-62.9,0-113.9-51-113.9-113.9V63
				C801.3,0.1,852.3-50.9,915.2-51 M915.2-53c-64,0-115.9,52-115.9,116s52,115.9,116,115.9c64,0,115.9-51.9,115.9-115.9
				C1031.1-1,979.2-52.9,915.2-53L915.2-53z"/>
			<path class="st12" d="M915.2-43c58.5,0,105.9,47.5,105.9,106s-47.5,105.9-106,105.9c-58.5,0-105.9-47.5-105.9-105.9
				C809.3,4.5,856.7-42.9,915.2-43 M915.2-45c-59.6,0-107.9,48.4-107.9,108c0,59.6,48.4,107.9,108,107.9
				c59.6,0,107.9-48.3,107.9-107.9C1023.1,3.3,974.8-45,915.2-45L915.2-45z"/>
			<path class="st12" d="M915.2-35c54.1,0,97.9,43.9,97.9,98c0,54.1-43.9,97.9-98,97.9c-54.1,0-97.9-43.9-97.9-97.9
				C817.3,8.9,861.1-34.9,915.2-35 M915.2-37c-55.2,0-99.9,44.8-99.9,100s44.8,99.9,100,99.9c55.2,0,99.9-44.8,99.9-99.9
				C1015.2,7.8,970.4-37,915.2-37L915.2-37z"/>
			<path class="st12" d="M915.2-27c49.7,0,89.9,40.3,89.9,90c0,49.7-40.3,89.9-90,89.9c-49.7,0-89.9-40.3-89.9-89.9
				C825.2,13.3,865.5-27,915.2-27 M915.2-29c-50.8,0-91.9,41.2-91.9,92s41.2,91.9,92,91.9c50.8,0,91.9-41.2,91.9-91.9
				C1007.1,12.2,966-29,915.2-29L915.2-29z"/>
			<path class="st12" d="M915.2-19c45.3,0,82,36.7,82,82s-36.7,82-82,82s-82-36.7-82-82C833.2,17.8,869.9-18.9,915.2-19 M915.2-21
				c-46.4,0-83.9,37.6-83.9,84c0,46.4,37.6,83.9,84,83.9c46.3,0,83.9-37.6,83.9-83.9C999.1,16.6,961.5-21,915.2-21L915.2-21z"/>
			<path class="st12" d="M915.2-11c40.9,0,74,33.1,74,74s-33.1,74-74,74s-74-33.1-74-74C841.2,22.2,874.3-10.9,915.2-11 M915.2-13
				c-42,0-76,34-76,76s34,76,76,76s76-34,76-76S957.2-13,915.2-13z"/>
			<path class="st12" d="M915.2-3c36.5,0,66,29.5,66,66s-29.5,66-66,66s-66-29.5-66-66c0,0,0,0,0,0C849.2,26.6,878.7-3,915.2-3
				 M915.2-5c-37.6,0-68,30.4-68,68s30.4,68,68,68s68-30.4,68-68S952.7-5,915.2-5L915.2-5z"/>
			<path class="st12" d="M915.2,5c32,0,58,25.9,58.1,57.9s-25.9,58-57.9,58.1c-32,0-58-25.9-58.1-57.9c0,0,0,0,0,0V63
				C857.3,31,883.2,5,915.2,5 M915.2,3c-33.1,0-60,26.9-60,60s26.9,60,60,60s60-26.9,60-60S948.3,3,915.2,3z"/>
			<path class="st12" d="M915.2,13c27.6,0,50,22.4,50,50s-22.4,50-50,50s-50-22.4-50-50l0,0C865.2,35.4,887.6,13,915.2,13 M915.2,11
				c-28.7,0-52,23.3-52,52c0,28.7,23.3,52,52,52c28.7,0,52-23.3,52-52C967.2,34.3,944,11,915.2,11L915.2,11z"/>
			<path class="st12" d="M915.2,21c23.2,0,42,18.8,42,42s-18.8,42-42,42c-23.2,0-42-18.8-42-42S892,21,915.2,21L915.2,21 M915.2,19
				c-24.3,0-44,19.7-44,44s19.7,44,44,44s44-19.7,44-44S939.5,19,915.2,19z"/>
			<path class="st12" d="M915.2,29c18.8,0,34,15.2,34,34s-15.2,34-34,34c-18.8,0-34-15.2-34-34l0,0C881.2,44.2,896.4,29,915.2,29
				 M915.2,27c-19.9,0-36,16.1-36,36s16.1,36,36,36s36-16.1,36-36l0,0C951.2,43.1,935.1,27,915.2,27z"/>
			<path class="st12" d="M915.2,37c14.4,0,26,11.7,25.9,26.1c0,14.4-11.7,26-26.1,25.9c-14.3,0-25.9-11.7-25.9-26
				C889.1,48.6,900.8,37,915.2,37 M915.2,35c-15.5,0-28,12.5-28,28s12.5,28,28,28s28-12.5,28-28C943.1,47.5,930.6,35,915.2,35z"/>
			<circle class="st14" cx="940" cy="-37" r="3"/>
			<path class="st12" d="M915.2-59c67.3,0,121.9,54.7,121.9,122c0,67.3-54.7,121.9-122,121.9c-67.3,0-121.9-54.6-121.9-121.9
				C793.2-4.4,847.8-59,915.2-59 M915.2-61c-68.5,0-123.9,55.5-123.9,124c0,68.5,55.5,123.9,124,123.9
				c68.4,0,123.9-55.5,123.9-123.9C1039.1-5.5,983.6-60.9,915.2-61L915.2-61z"/>
			<path class="st14" d="M923.2,63c0,4.4-3.6,8-8,8h-55c-2.7,0-5,2.2-5,4.9v33c0,5.5-4.5,10-10,10h-60V39h60c0,8.8-7.2,16-16,16
				h85.9C919.6,55,923.2,58.5,923.2,63C923.2,63,923.2,63,923.2,63L923.2,63z"/>
			<path class="st12" d="M785.2,972.5h260v129.9h-260V972.5z"/>
			<path class="st12" d="M785.2,1232.4h260v129.9h-260V1232.4z"/>
			<path class="st14" d="M1045.2,982.1l-36.4,36.4h-13.1l46.9-46h-2.9l-47,46h-13l47-46h-2.9l-47.1,46h-13l46.9-46h-2.9l-45.6,44.5
				v-12.8l32.4-31.8h-2.9l-29.6,28.9v-12.8l16.4-16.1h-2.9L962,985.7v-13.2h-2.4L914,1017v-44.5h-2v14c0,17.3-13.7,31.4-31,32v-46
				h-2v46c-17.3-0.5-31-14.7-31-32v-14h-2v14h-13.8v-14h-3.4l-14,14h-13.2l14-14h-2.8l-14,14h-13.2l14-14h-2.8l-11.6,11.6v4.3h61v30
				h-61v2h28.6l31,31h-59.6v2h8.4c-2.1,1.7-3.3,4.3-3.4,7h-5v2h0.4c-0.1,0.1-0.3,0.2-0.4,0.3v3.1c1.3-2.1,3.5-3.4,6-3.4
				c3.5,0,6.4,2.6,6.9,6h-12.9v2h45v30h-45v2h260v-2h-33v-46.9h14v34h19v-2h-17v-32h17v-2h-17v-14h17v-2h-19v16h-14v-16h-35v16h-15
				V1022c4.5,3.7,11,3.2,15-1c4.1,4.4,11,4.7,15.4,0.6c0,0,0,0,0,0c0.2-0.2,0.4-0.4,0.6-0.6c4.1,4.4,11,4.7,15.4,0.6c0,0,0,0,0,0
				c0.2-0.2,0.4-0.4,0.6-0.6c4.1,4.4,11,4.7,15.4,0.6c0,0,0,0,0,0c0.2-0.2,0.4-0.4,0.6-0.6c4.1,4.4,11,4.7,15.4,0.6c0,0,0,0,0,0
				c0.2-0.2,0.4-0.4,0.6-0.6c1.1,1.2,2.5,2.1,4,2.7v-2.2c-0.6-0.3-1.1-0.7-1.6-1.1h1.6v-2h-1.6l1.6-1.6v-2.8l-4.3,4.3h-13.2
				l17.6-17.6V998l-20.4,20.4h-13.2l33.6-33.6L1045.2,982.1L1045.2,982.1z M817.6,986.5l12.6-12.6v12.6H817.6z M960.2,974.9v12.9
				l-31.4,30.9h-13.1L960.2,974.9z M947.6,1018.5l12.6-12.3v12.3H947.6z M958.8,1020.5c-3.3,2.7-7.9,2.7-11.2,0H958.8z
				 M944.8,1018.5h-13l28.6-28v12.9L944.8,1018.5z M942.8,1020.5c-3.3,2.7-7.9,2.7-11.2,0H942.8L942.8,1020.5z M926.8,1020.5
				c-3.3,2.7-7.9,2.7-11.2,0H926.8L926.8,1020.5z M945.2,1051.5h-31v-14h31V1051.5z M879.2,1085.9v14.6h-31v-45.6L879.2,1085.9z
				 M849.6,1053.5h29.6v29.6L849.6,1053.5z M881.2,1087.9l12.6,12.6h-12.6V1087.9z M881.2,1085.1v-31.6h31v47h-15.6L881.2,1085.1z
				 M914.2,1087.5h33v-34h13v47h-46V1087.5z M945.2,1085.5h-31v-32h31V1085.5z M912.2,998v20.5h-20.6
				C901.2,1015.1,908.7,1007.6,912.2,998L912.2,998z M912.2,1020.5v31h-31v-31H912.2z M848.2,998c3.5,9.6,11,17.1,20.6,20.5h-20.6
				C848.2,1018.5,848.2,998,848.2,998z M879.2,1020.5v31h-31v-31H879.2z M846.2,1020.5v29.6l-29.6-29.6H846.2z M844.7,1053.5
				l-4.9,4.9c-0.5-1.9-1.6-3.6-3.1-4.9H844.7L844.7,1053.5z M829.7,1068.5h-13.4c0.5-3.4,3.4-6,6.9-6c3.4,0,6.3,2.4,6.9,5.7
				L829.7,1068.5z M807.1,1062.5c3.5,0,6.4,2.6,6.9,6h-13.7C800.8,1065.1,803.7,1062.5,807.1,1062.5L807.1,1062.5z M815.1,1053.5
				c3.8,0,7,3.1,7,6.9h-14C808.1,1056.6,811.3,1053.4,815.1,1053.5L815.1,1053.5z M831.1,1053.5c3.7,0,6.8,2.9,7,6.6l-0.4,0.4h-13.5
				C824.2,1056.7,827.3,1053.6,831.1,1053.5L831.1,1053.5L831.1,1053.5z M817.5,1062.5c-1,0.8-1.8,1.8-2.4,2.9
				c-0.6-1.1-1.4-2.1-2.4-2.9H817.5L817.5,1062.5z M828.7,1062.5h7l-4.1,4.1C831.1,1065,830.1,1063.6,828.7,1062.5L828.7,1062.5z
				 M825.5,1053.5c-1,0.8-1.8,1.8-2.4,2.9c-0.6-1.1-1.4-2.1-2.4-2.9H825.5L825.5,1053.5z M809.5,1053.5c-1,0.8-1.8,1.8-2.4,2.9
				c-0.6-1.1-1.4-2.1-2.4-2.9H809.5L809.5,1053.5z M799.1,1053.5c3.8,0,7,3.1,7,6.9h-14C792.1,1056.6,795.3,1053.5,799.1,1053.5
				L799.1,1053.5L799.1,1053.5z M796.7,1062.5h4.7c-1,0.8-1.8,1.8-2.4,2.9C798.5,1064.3,797.7,1063.3,796.7,1062.5L796.7,1062.5z
				 M832.1,1069.5v-0.6l14-14v45.6h-14V1069.5L832.1,1069.5z M1010.1,1100.5h-31v-47h31V1100.5z M979.1,1037.5h31v14h-31V1037.5z
				 M977.1,1053.5v47h-15v-47H977.1z M947.1,1051.5v-16h-33v-13.6c4.4,3.8,11.1,3.4,15-0.9c4.1,4.4,11,4.7,15.4,0.6c0,0,0,0,0,0
				c0.2-0.2,0.4-0.4,0.6-0.6c4,4.2,10.5,4.7,15,1v29.5L947.1,1051.5L947.1,1051.5z M969.1,1022.6c-2,0-4-0.7-5.6-2h11.3
				C973.2,1021.9,971.2,1022.6,969.1,1022.6z M985.1,1022.6c-2.1,0-4-0.7-5.6-2h11.3C989.2,1021.9,987.2,1022.6,985.1,1022.6
				L985.1,1022.6z M1001.1,1022.6c-2,0-4-0.7-5.6-2h11.3C1005.2,1021.9,1003.2,1022.6,1001.1,1022.6z M1038.8,1020.6
				c-3.3,2.7-7.9,2.7-11.2,0H1038.8z M1022.8,1020.6c-3.3,2.7-7.9,2.7-11.2,0H1022.8z"/>
			<path class="st14" d="M785.2,1232.4v50.9c0-22.1,17.9-40,40-40c22.1,0,40,17.9,40,40v79h10v-79c0-22.1,17.9-40,40-40
				c22.1,0,40,17.9,40,40v79h10v-79c0-22.1,17.9-40,40-40c22.1,0,40,17.9,40,40v-50.9H785.2L785.2,1232.4z"/>
			<path class="st12" d="M785.2,1362.3h260v65h-260V1362.3z"/>
			<path class="st17" d="M802.2,1404.8v0.5h0.5 M802.2,1398.3h2v2h-2V1398.3z M802.2,1393.3h2v2h-2V1393.3z M802.2,1388.3h2v2h-2
				V1388.3z M802.2,1383.3h2v2h-2V1383.3z M802.2,1378.3h2v2h-2V1378.3z M802.2,1373.3h2v2h-2V1373.3z M802.2,1368.3h2v2h-2V1368.3z
				 M802.2,1363.3h2v2h-2V1363.3z M798.5,1400.3h0.7v-2h-2v0.3 M797.2,1393.3h2v2h-2V1393.3z M797.2,1388.3h2v2h-2V1388.3z
				 M797.2,1383.3h2v2h-2V1383.3z M797.2,1378.3h2v2h-2V1378.3z M797.2,1373.3h2v2h-2V1373.3z M797.2,1368.3h2v2h-2V1368.3z
				 M797.2,1363.3h2v2h-2V1363.3z M792.2,1390.3h2v-2h-2V1390.3 M792.2,1383.3h2v2h-2V1383.3z M792.2,1378.3h2v2h-2V1378.3z
				 M792.2,1373.3h2v2h-2V1373.3z M792.2,1368.3h2v2h-2V1368.3z M792.2,1363.3h2v2h-2V1363.3z M788.2,1380.3h1v-2h-1.6
				 M787.2,1373.3h2v2h-2V1373.3z M787.2,1368.3h2v2h-2V1368.3z M787.2,1363.3h2v2h-2V1363.3z M902.8,1400.3
				c0.4-0.6,0.8-1.2,1.3-1.7 M802.7,1405.3c-0.1-0.2-0.3-0.4-0.5-0.5 M898.7,1405.3c0.1-0.2,0.3-0.4,0.5-0.5 M798.5,1400.3
				c-0.4-0.6-0.8-1.2-1.3-1.7 M893.6,1410.3c0.2-0.2,0.4-0.4,0.6-0.5 M787.6,1378.3c0.2,0.7,0.4,1.3,0.6,2 M913.8,1378.3
				c-0.2,0.7-0.4,1.3-0.6,2 M812.2,1413.8c0.6,0.5,1.3,1,2,1.4 M823.3,1420.3c-0.4-0.2-0.7-0.3-1.1-0.5 M878.1,1420.3
				c0.4-0.2,0.7-0.3,1.1-0.5 M867.2,1424.2l2-0.6 M887.2,1415.2l2-1.4 M832.2,1423.6l2,0.6 M862.2,1425.3c0.7-0.1,1.3-0.2,2-0.4
				 M837.2,1424.9c0.7,0.1,1.3,0.3,2,0.4 M807.8,1410.3c-0.2-0.2-0.4-0.4-0.6-0.5"/>
			<path class="st15" d="M785.2,1102.5h260v129.9h-260V1102.5z"/>
			<path class="st17" d="M1042.2,1423.3h2v2h-2V1423.3z M1037.2,1423.3h2v2h-2V1423.3z M1032.2,1423.3h2v2h-2V1423.3z
				 M1027.2,1423.3h2v2h-2V1423.3z M1022.2,1423.3h2v2h-2V1423.3z M1017.2,1423.3h2v2h-2V1423.3z M1012.2,1423.3h2v2h-2V1423.3z
				 M1007.2,1423.3h2v2h-2V1423.3z M1002.2,1423.3h2v2h-2V1423.3z M997.2,1423.3h2v2h-2V1423.3z M992.2,1423.3h2v2h-2V1423.3z
				 M987.2,1423.3h2v2h-2V1423.3z M982.2,1423.3h2v2h-2V1423.3z M1042.2,1418.3h2v2h-2V1418.3z M1037.2,1418.3h2v2h-2V1418.3z
				 M1032.2,1418.3h2v2h-2V1418.3z M1027.2,1418.3h2v2h-2V1418.3z M1022.2,1418.3h2v2h-2V1418.3z M1017.2,1418.3h2v2h-2V1418.3z
				 M1012.2,1418.3h2v2h-2V1418.3z M1007.2,1418.3h2v2h-2V1418.3z M1002.2,1418.3h2v2h-2V1418.3z M997.2,1418.3h2v2h-2V1418.3z
				 M992.2,1418.3h2v2h-2V1418.3z M987.2,1418.3h2v2h-2V1418.3z M982.2,1418.3h2v2h-2V1418.3z M1042.2,1413.3h2v2h-2V1413.3z
				 M1037.2,1413.3h2v2h-2V1413.3z M1032.2,1413.3h2v2h-2V1413.3z M1027.2,1413.3h2v2h-2V1413.3z M1022.2,1413.3h2v2h-2V1413.3z
				 M1017.2,1413.3h2v2h-2V1413.3z M1012.2,1413.3h2v2h-2V1413.3z M1007.2,1413.3h2v2h-2V1413.3z M1002.2,1413.3h2v2h-2V1413.3z
				 M997.2,1413.3h2v2h-2V1413.3z M992.2,1413.3h2v2h-2V1413.3z M987.2,1413.3h2v2h-2V1413.3z M982.2,1413.3h2v2h-2V1413.3z
				 M1042.2,1408.3h2v2h-2V1408.3z M1037.2,1408.3h2v2h-2V1408.3z M1032.2,1408.3h2v2h-2V1408.3z M1027.2,1408.3h2v2h-2V1408.3z
				 M1022.2,1408.3h2v2h-2V1408.3z M1017.2,1408.3h2v2h-2V1408.3z M1012.2,1408.3h2v2h-2V1408.3z M1007.2,1408.3h2v2h-2V1408.3z
				 M1002.2,1408.3h2v2h-2V1408.3z M997.2,1408.3h2v2h-2V1408.3z M992.2,1408.3h2v2h-2V1408.3z M987.2,1408.3h2v2h-2V1408.3z
				 M982.2,1408.3h2v2h-2V1408.3z M1042.2,1403.3h2v2h-2V1403.3z M1037.2,1403.3h2v2h-2V1403.3z M1032.2,1403.3h2v2h-2V1403.3z
				 M1027.2,1403.3h2v2h-2V1403.3z M1022.2,1403.3h2v2h-2V1403.3z M1017.2,1403.3h2v2h-2V1403.3z M1012.2,1403.3h2v2h-2V1403.3z
				 M1007.2,1403.3h2v2h-2V1403.3z M1002.2,1403.3h2v2h-2V1403.3z M997.2,1403.3h2v2h-2V1403.3z M992.2,1403.3h2v2h-2V1403.3z
				 M987.2,1403.3h2v2h-2V1403.3z M982.2,1403.3h2v2h-2V1403.3z M1042.2,1398.3h2v2h-2V1398.3z M1037.2,1398.3h2v2h-2V1398.3z
				 M1032.2,1398.3h2v2h-2V1398.3z M1027.2,1398.3h2v2h-2V1398.3z M1022.2,1398.3h2v2h-2V1398.3z M1017.2,1398.3h2v2h-2V1398.3z
				 M1012.2,1398.3h2v2h-2V1398.3z M1007.2,1398.3h2v2h-2V1398.3z M1002.2,1398.3h2v2h-2V1398.3z M997.2,1398.3h2v2h-2V1398.3z
				 M992.2,1398.3h2v2h-2V1398.3z M987.2,1398.3h2v2h-2V1398.3z M982.2,1398.3h2v2h-2V1398.3z M1042.2,1393.3h2v2h-2V1393.3z
				 M1037.2,1393.3h2v2h-2V1393.3z M1032.2,1393.3h2v2h-2V1393.3z M1027.2,1393.3h2v2h-2V1393.3z M1022.2,1393.3h2v2h-2V1393.3z
				 M1017.2,1393.3h2v2h-2V1393.3z M1012.2,1393.3h2v2h-2V1393.3z M1007.2,1393.3h2v2h-2V1393.3z M1002.2,1393.3h2v2h-2V1393.3z
				 M997.2,1393.3h2v2h-2V1393.3z M992.2,1393.3h2v2h-2V1393.3z M987.2,1393.3h2v2h-2V1393.3z M982.2,1393.3h2v2h-2V1393.3z
				 M1042.2,1388.3h2v2h-2V1388.3z M1037.2,1388.3h2v2h-2V1388.3z M1032.2,1388.3h2v2h-2V1388.3z M1027.2,1388.3h2v2h-2V1388.3z
				 M1022.2,1388.3h2v2h-2V1388.3z M1017.2,1388.3h2v2h-2V1388.3z M1012.2,1388.3h2v2h-2V1388.3z M1007.2,1388.3h2v2h-2V1388.3z
				 M1002.2,1388.3h2v2h-2V1388.3z M997.2,1388.3h2v2h-2V1388.3z M992.2,1388.3h2v2h-2V1388.3z M987.2,1388.3h2v2h-2V1388.3z
				 M982.2,1388.3h2v2h-2V1388.3z M1042.2,1383.3h2v2h-2V1383.3z M1037.2,1383.3h2v2h-2V1383.3z M1032.2,1383.3h2v2h-2V1383.3z
				 M1027.2,1383.3h2v2h-2V1383.3z M1022.2,1383.3h2v2h-2V1383.3z M1017.2,1383.3h2v2h-2V1383.3z M1012.2,1383.3h2v2h-2V1383.3z
				 M1007.2,1383.3h2v2h-2V1383.3z M1002.2,1383.3h2v2h-2V1383.3z M997.2,1383.3h2v2h-2V1383.3z M992.2,1383.3h2v2h-2V1383.3z
				 M987.2,1383.3h2v2h-2V1383.3z M982.2,1383.3h2v2h-2V1383.3z M1042.2,1378.3h2v2h-2V1378.3z M1037.2,1378.3h2v2h-2V1378.3z
				 M1032.2,1378.3h2v2h-2V1378.3z M1027.2,1378.3h2v2h-2V1378.3z M1022.2,1378.3h2v2h-2V1378.3z M1017.2,1378.3h2v2h-2V1378.3z
				 M1012.2,1378.3h2v2h-2V1378.3z M1007.2,1378.3h2v2h-2V1378.3z M1002.2,1378.3h2v2h-2V1378.3z M997.2,1378.3h2v2h-2V1378.3z
				 M992.2,1378.3h2v2h-2V1378.3z M987.2,1378.3h2v2h-2V1378.3z M982.2,1378.3h2v2h-2V1378.3z M1042.2,1373.3h2v2h-2V1373.3z
				 M1037.2,1373.3h2v2h-2V1373.3z M1032.2,1373.3h2v2h-2V1373.3z M1027.2,1373.3h2v2h-2V1373.3z M1022.2,1373.3h2v2h-2V1373.3z
				 M1017.2,1373.3h2v2h-2V1373.3z M1012.2,1373.3h2v2h-2V1373.3z M1007.2,1373.3h2v2h-2V1373.3z M1002.2,1373.3h2v2h-2V1373.3z
				 M997.2,1373.3h2v2h-2V1373.3z M992.2,1373.3h2v2h-2V1373.3z M987.2,1373.3h2v2h-2V1373.3z M982.2,1373.3h2v2h-2V1373.3z
				 M1042.2,1368.3h2v2h-2V1368.3z M1037.2,1368.3h2v2h-2V1368.3z M1032.2,1368.3h2v2h-2V1368.3z M1027.2,1368.3h2v2h-2V1368.3z
				 M1022.2,1368.3h2v2h-2V1368.3z M1017.2,1368.3h2v2h-2V1368.3z M1012.2,1368.3h2v2h-2V1368.3z M1007.2,1368.3h2v2h-2V1368.3z
				 M1002.2,1368.3h2v2h-2V1368.3z M997.2,1368.3h2v2h-2V1368.3z M992.2,1368.3h2v2h-2V1368.3z M987.2,1368.3h2v2h-2V1368.3z
				 M982.2,1368.3h2v2h-2V1368.3z M1042.2,1363.3h2v2h-2V1363.3z M1037.2,1363.3h2v2h-2V1363.3z M1032.2,1363.3h2v2h-2V1363.3z
				 M1027.2,1363.3h2v2h-2V1363.3z M1022.2,1363.3h2v2h-2V1363.3z M1017.2,1363.3h2v2h-2V1363.3z M1012.2,1363.3h2v2h-2V1363.3z
				 M1007.2,1363.3h2v2h-2V1363.3z M1002.2,1363.3h2v2h-2V1363.3z M997.2,1363.3h2v2h-2V1363.3z M992.2,1363.3h2v2h-2V1363.3z
				 M987.2,1363.3h2v2h-2V1363.3z M982.2,1363.3h2v2h-2V1363.3z M977.2,1423.3h2v2h-2V1423.3z M977.2,1418.3h2v2h-2V1418.3z
				 M977.2,1413.3h2v2h-2V1413.3z M977.2,1408.3h2v2h-2V1408.3z M977.2,1403.3h2v2h-2V1403.3z M977.2,1398.3h2v2h-2V1398.3z
				 M977.2,1393.3h2v2h-2V1393.3z M977.2,1388.3h2v2h-2V1388.3z M977.2,1383.3h2v2h-2V1383.3z M977.2,1378.3h2v2h-2V1378.3z
				 M977.2,1373.3h2v2h-2V1373.3z M977.2,1368.3h2v2h-2V1368.3z M977.2,1363.3h2v2h-2V1363.3z M972.2,1423.3h2v2h-2V1423.3z
				 M972.2,1418.3h2v2h-2V1418.3z M972.2,1413.3h2v2h-2V1413.3z M972.2,1408.3h2v2h-2V1408.3z M972.2,1403.3h2v2h-2V1403.3z
				 M972.2,1398.3h2v2h-2V1398.3z M972.2,1393.3h2v2h-2V1393.3z M972.2,1388.3h2v2h-2V1388.3z M972.2,1383.3h2v2h-2V1383.3z
				 M972.2,1378.3h2v2h-2V1378.3z M972.2,1373.3h2v2h-2V1373.3z M972.2,1368.3h2v2h-2V1368.3z M972.2,1363.3h2v2h-2V1363.3z
				 M967.2,1423.3h2v2h-2V1423.3z M967.2,1418.3h2v2h-2V1418.3z M967.2,1413.3h2v2h-2V1413.3z M967.2,1408.3h2v2h-2V1408.3z
				 M967.2,1403.3h2v2h-2V1403.3z M967.2,1398.3h2v2h-2V1398.3z M967.2,1393.3h2v2h-2V1393.3z M967.2,1388.3h2v2h-2V1388.3z
				 M967.2,1383.3h2v2h-2V1383.3z M967.2,1378.3h2v2h-2V1378.3z M967.2,1373.3h2v2h-2V1373.3z M967.2,1368.3h2v2h-2V1368.3z
				 M967.2,1363.3h2v2h-2V1363.3z M962.2,1423.3h2v2h-2V1423.3z M962.2,1418.3h2v2h-2V1418.3z M962.2,1413.3h2v2h-2V1413.3z
				 M962.2,1408.3h2v2h-2V1408.3z M962.2,1403.3h2v2h-2V1403.3z M962.2,1398.3h2v2h-2V1398.3z M962.2,1393.3h2v2h-2V1393.3z
				 M962.2,1388.3h2v2h-2V1388.3z M962.2,1383.3h2v2h-2V1383.3z M962.2,1378.3h2v2h-2V1378.3z M962.2,1373.3h2v2h-2V1373.3z
				 M962.2,1368.3h2v2h-2V1368.3z M962.2,1363.3h2v2h-2V1363.3z M957.2,1423.3h2v2h-2V1423.3z M957.2,1418.3h2v2h-2V1418.3z
				 M957.2,1413.3h2v2h-2V1413.3z M957.2,1408.3h2v2h-2V1408.3z M957.2,1403.3h2v2h-2V1403.3z M957.2,1398.3h2v2h-2V1398.3z
				 M957.2,1393.3h2v2h-2V1393.3z M957.2,1388.3h2v2h-2V1388.3z M957.2,1383.3h2v2h-2V1383.3z M957.2,1378.3h2v2h-2V1378.3z
				 M957.2,1373.3h2v2h-2V1373.3z M957.2,1368.3h2v2h-2V1368.3z M957.2,1363.3h2v2h-2V1363.3z M952.2,1423.3h2v2h-2V1423.3z
				 M952.2,1418.3h2v2h-2V1418.3z M952.2,1413.3h2v2h-2V1413.3z M952.2,1408.3h2v2h-2V1408.3z M952.2,1403.3h2v2h-2V1403.3z
				 M952.2,1398.3h2v2h-2V1398.3z M952.2,1393.3h2v2h-2V1393.3z M952.2,1388.3h2v2h-2V1388.3z M952.2,1383.3h2v2h-2V1383.3z
				 M952.2,1378.3h2v2h-2V1378.3z M952.2,1373.3h2v2h-2V1373.3z M952.2,1368.3h2v2h-2V1368.3z M952.2,1363.3h2v2h-2V1363.3z
				 M947.2,1423.3h2v2h-2V1423.3z M947.2,1418.3h2v2h-2V1418.3z M947.2,1413.3h2v2h-2V1413.3z M947.2,1408.3h2v2h-2V1408.3z
				 M947.2,1403.3h2v2h-2V1403.3z M947.2,1398.3h2v2h-2V1398.3z M947.2,1393.3h2v2h-2V1393.3z M947.2,1388.3h2v2h-2V1388.3z
				 M947.2,1383.3h2v2h-2V1383.3z M947.2,1378.3h2v2h-2V1378.3z M947.2,1373.3h2v2h-2V1373.3z M947.2,1368.3h2v2h-2V1368.3z
				 M947.2,1363.3h2v2h-2V1363.3z M942.2,1423.3h2v2h-2V1423.3z M942.2,1418.3h2v2h-2V1418.3z M942.2,1413.3h2v2h-2V1413.3z
				 M942.2,1408.3h2v2h-2V1408.3z M942.2,1403.3h2v2h-2V1403.3z M942.2,1398.3h2v2h-2V1398.3z M942.2,1393.3h2v2h-2V1393.3z
				 M942.2,1388.3h2v2h-2V1388.3z M942.2,1383.3h2v2h-2V1383.3z M942.2,1378.3h2v2h-2V1378.3z M942.2,1373.3h2v2h-2V1373.3z
				 M942.2,1368.3h2v2h-2V1368.3z M942.2,1363.3h2v2h-2V1363.3z M937.2,1423.3h2v2h-2V1423.3z M937.2,1418.3h2v2h-2V1418.3z
				 M937.2,1413.3h2v2h-2V1413.3z M937.2,1408.3h2v2h-2V1408.3z M937.2,1403.3h2v2h-2V1403.3z M937.2,1398.3h2v2h-2V1398.3z
				 M937.2,1393.3h2v2h-2V1393.3z M937.2,1388.3h2v2h-2V1388.3z M937.2,1383.3h2v2h-2V1383.3z M937.2,1378.3h2v2h-2V1378.3z
				 M937.2,1373.3h2v2h-2V1373.3z M937.2,1368.3h2v2h-2V1368.3z M937.2,1363.3h2v2h-2V1363.3z M932.2,1423.3h2v2h-2V1423.3z
				 M932.2,1418.3h2v2h-2V1418.3z M932.2,1413.3h2v2h-2V1413.3z M932.2,1408.3h2v2h-2V1408.3z M932.2,1403.3h2v2h-2V1403.3z
				 M932.2,1398.3h2v2h-2V1398.3z M932.2,1393.3h2v2h-2V1393.3z M932.2,1388.3h2v2h-2V1388.3z M932.2,1383.3h2v2h-2V1383.3z
				 M932.2,1378.3h2v2h-2V1378.3z M932.2,1373.3h2v2h-2V1373.3z M932.2,1368.3h2v2h-2V1368.3z M932.2,1363.3h2v2h-2V1363.3z
				 M927.2,1423.3h2v2h-2V1423.3z M927.2,1418.3h2v2h-2V1418.3z M927.2,1413.3h2v2h-2V1413.3z M927.2,1408.3h2v2h-2V1408.3z
				 M927.2,1403.3h2v2h-2V1403.3z M927.2,1398.3h2v2h-2V1398.3z M927.2,1393.3h2v2h-2V1393.3z M927.2,1388.3h2v2h-2V1388.3z
				 M927.2,1383.3h2v2h-2V1383.3z M927.2,1378.3h2v2h-2V1378.3z M927.2,1373.3h2v2h-2V1373.3z M927.2,1368.3h2v2h-2V1368.3z
				 M927.2,1363.3h2v2h-2V1363.3z M922.2,1423.3h2v2h-2V1423.3z M922.2,1418.3h2v2h-2V1418.3z M922.2,1413.3h2v2h-2V1413.3z
				 M922.2,1408.3h2v2h-2V1408.3z M922.2,1403.3h2v2h-2V1403.3z M922.2,1398.3h2v2h-2V1398.3z M922.2,1393.3h2v2h-2V1393.3z
				 M922.2,1388.3h2v2h-2V1388.3z M922.2,1383.3h2v2h-2V1383.3z M922.2,1378.3h2v2h-2V1378.3z M922.2,1373.3h2v2h-2V1373.3z
				 M922.2,1368.3h2v2h-2V1368.3z M922.2,1363.3h2v2h-2V1363.3z M917.2,1423.3h2v2h-2V1423.3z M917.2,1418.3h2v2h-2V1418.3z
				 M917.2,1413.3h2v2h-2V1413.3z M917.2,1408.3h2v2h-2V1408.3z M917.2,1403.3h2v2h-2V1403.3z M917.2,1398.3h2v2h-2V1398.3z
				 M917.2,1393.3h2v2h-2V1393.3z M917.2,1388.3h2v2h-2V1388.3z M917.2,1383.3h2v2h-2V1383.3z M917.2,1378.3h2v2h-2V1378.3z
				 M917.2,1373.3h2v2h-2V1373.3z M917.2,1368.3h2v2h-2V1368.3z M917.2,1363.3h2v2h-2V1363.3z M867.2,1424.2v-0.9h2v0.3
				 M862.2,1425.3v-2h2v1.6 M857.2,1423.3h2v2h-2V1423.3z M852.2,1423.3h2v2h-2V1423.3z M878.1,1420.3h-0.9v-2h2v1.5 M878.1,1420.3
				h1.1v-0.5 M872.2,1418.3h2v2h-2V1418.3z M867.2,1418.3h2v2h-2V1418.3z M862.2,1418.3h2v2h-2V1418.3z M857.2,1418.3h2v2h-2V1418.3
				z M852.2,1418.3h2v2h-2V1418.3z M887.2,1415.2v-1.9h2v0.5 M882.2,1413.3h2v2h-2V1413.3z M877.2,1413.3h2v2h-2V1413.3z
				 M872.2,1413.3h2v2h-2V1413.3z M867.2,1413.3h2v2h-2V1413.3z M862.2,1413.3h2v2h-2V1413.3z M857.2,1413.3h2v2h-2V1413.3z
				 M852.2,1413.3h2v2h-2V1413.3z M893.6,1410.3h-1.4v-2h2v1.5 M887.2,1408.3h2v2h-2V1408.3z M882.2,1408.3h2v2h-2V1408.3z
				 M877.2,1408.3h2v2h-2V1408.3z M872.2,1408.3h2v2h-2V1408.3z M867.2,1408.3h2v2h-2V1408.3z M862.2,1408.3h2v2h-2V1408.3z
				 M857.2,1408.3h2v2h-2V1408.3z M852.2,1408.3h2v2h-2V1408.3z M898.7,1405.3h-1.5v-2h2v1.5 M892.2,1403.3h2v2h-2V1403.3z
				 M887.2,1403.3h2v2h-2V1403.3z M882.2,1403.3h2v2h-2V1403.3z M877.2,1403.3h2v2h-2V1403.3z M872.2,1403.3h2v2h-2V1403.3z
				 M867.2,1403.3h2v2h-2V1403.3z M862.2,1403.3h2v2h-2V1403.3z M857.2,1403.3h2v2h-2V1403.3z M852.2,1403.3h2v2h-2V1403.3z
				 M902.9,1400.3h-0.7v-2h2v0.3 M897.2,1398.3h2v2h-2V1398.3z M892.2,1398.3h2v2h-2V1398.3z M887.2,1398.3h2v2h-2V1398.3z
				 M882.2,1398.3h2v2h-2V1398.3z M877.2,1398.3h2v2h-2V1398.3z M872.2,1398.3h2v2h-2V1398.3z M867.2,1398.3h2v2h-2V1398.3z
				 M862.2,1398.3h2v2h-2V1398.3z M857.2,1398.3h2v2h-2V1398.3z M852.2,1398.3h2v2h-2V1398.3z M902.2,1393.3h2v2h-2V1393.3z
				 M897.2,1393.3h2v2h-2V1393.3z M892.2,1393.3h2v2h-2V1393.3z M887.2,1393.3h2v2h-2V1393.3z M882.2,1393.3h2v2h-2V1393.3z
				 M877.2,1393.3h2v2h-2V1393.3z M872.2,1393.3h2v2h-2V1393.3z M867.2,1393.3h2v2h-2V1393.3z M862.2,1393.3h2v2h-2V1393.3z
				 M857.2,1393.3h2v2h-2V1393.3z M852.2,1393.3h2v2h-2V1393.3z M909.2,1390.3v-2h-2v2H909.2 M902.2,1388.3h2v2h-2V1388.3z
				 M897.2,1388.3h2v2h-2V1388.3z M892.2,1388.3h2v2h-2V1388.3z M887.2,1388.3h2v2h-2V1388.3z M882.2,1388.3h2v2h-2V1388.3z
				 M877.2,1388.3h2v2h-2V1388.3z M872.2,1388.3h2v2h-2V1388.3z M867.2,1388.3h2v2h-2V1388.3z M862.2,1388.3h2v2h-2V1388.3z
				 M857.2,1388.3h2v2h-2V1388.3z M852.2,1388.3h2v2h-2V1388.3z M907.2,1383.3h2v2h-2V1383.3z M902.2,1383.3h2v2h-2V1383.3z
				 M897.2,1383.3h2v2h-2V1383.3z M892.2,1383.3h2v2h-2V1383.3z M887.2,1383.3h2v2h-2V1383.3z M882.2,1383.3h2v2h-2V1383.3z
				 M877.2,1383.3h2v2h-2V1383.3z M872.2,1383.3h2v2h-2V1383.3z M867.2,1383.3h2v2h-2V1383.3z M862.2,1383.3h2v2h-2V1383.3z
				 M857.2,1383.3h2v2h-2V1383.3z M852.2,1383.3h2v2h-2V1383.3z M913.8,1378.3h-1.6v2h1 M907.2,1378.3h2v2h-2V1378.3z M902.2,1378.3
				h2v2h-2V1378.3z M897.2,1378.3h2v2h-2V1378.3z M892.2,1378.3h2v2h-2V1378.3z M887.2,1378.3h2v2h-2V1378.3z M882.2,1378.3h2v2h-2
				V1378.3z M877.2,1378.3h2v2h-2V1378.3z M872.2,1378.3h2v2h-2V1378.3z M867.2,1378.3h2v2h-2V1378.3z M862.2,1378.3h2v2h-2V1378.3z
				 M857.2,1378.3h2v2h-2V1378.3z M852.2,1378.3h2v2h-2V1378.3z M912.2,1373.3h2v2h-2V1373.3z M907.2,1373.3h2v2h-2V1373.3z
				 M902.2,1373.3h2v2h-2V1373.3z M897.2,1373.3h2v2h-2V1373.3z M892.2,1373.3h2v2h-2V1373.3z M887.2,1373.3h2v2h-2V1373.3z
				 M882.2,1373.3h2v2h-2V1373.3z M877.2,1373.3h2v2h-2V1373.3z M872.2,1373.3h2v2h-2V1373.3z M867.2,1373.3h2v2h-2V1373.3z
				 M862.2,1373.3h2v2h-2V1373.3z M857.2,1373.3h2v2h-2V1373.3z M852.2,1373.3h2v2h-2V1373.3z M912.2,1368.3h2v2h-2V1368.3z
				 M907.2,1368.3h2v2h-2V1368.3z M902.2,1368.3h2v2h-2V1368.3z M897.2,1368.3h2v2h-2V1368.3z M892.2,1368.3h2v2h-2V1368.3z
				 M887.2,1368.3h2v2h-2V1368.3z M882.2,1368.3h2v2h-2V1368.3z M877.2,1368.3h2v2h-2V1368.3z M872.2,1368.3h2v2h-2V1368.3z
				 M867.2,1368.3h2v2h-2V1368.3z M862.2,1368.3h2v2h-2V1368.3z M857.2,1368.3h2v2h-2V1368.3z M852.2,1368.3h2v2h-2V1368.3z
				 M912.2,1363.3h2v2h-2V1363.3z M907.2,1363.3h2v2h-2V1363.3z M902.2,1363.3h2v2h-2V1363.3z M897.2,1363.3h2v2h-2V1363.3z
				 M892.2,1363.3h2v2h-2V1363.3z M887.2,1363.3h2v2h-2V1363.3z M882.2,1363.3h2v2h-2V1363.3z M877.2,1363.3h2v2h-2V1363.3z
				 M872.2,1363.3h2v2h-2V1363.3z M867.2,1363.3h2v2h-2V1363.3z M862.2,1363.3h2v2h-2V1363.3z M857.2,1363.3h2v2h-2V1363.3z
				 M852.2,1363.3h2v2h-2V1363.3z M847.2,1423.3h2v2h-2V1423.3z M847.2,1418.3h2v2h-2V1418.3z M847.2,1413.3h2v2h-2V1413.3z
				 M847.2,1408.3h2v2h-2V1408.3z M847.2,1403.3h2v2h-2V1403.3z M847.2,1398.3h2v2h-2V1398.3z M847.2,1393.3h2v2h-2V1393.3z
				 M847.2,1388.3h2v2h-2V1388.3z M847.2,1383.3h2v2h-2V1383.3z M847.2,1378.3h2v2h-2V1378.3z M847.2,1373.3h2v2h-2V1373.3z
				 M847.2,1368.3h2v2h-2V1368.3z M847.2,1363.3h2v2h-2V1363.3z M842.2,1423.3h2v2h-2V1423.3z M842.2,1418.3h2v2h-2V1418.3z
				 M842.2,1413.3h2v2h-2V1413.3z M842.2,1408.3h2v2h-2V1408.3z M842.2,1403.3h2v2h-2V1403.3z M842.2,1398.3h2v2h-2V1398.3z
				 M842.2,1393.3h2v2h-2V1393.3z M842.2,1388.3h2v2h-2V1388.3z M842.2,1383.3h2v2h-2V1383.3z M842.2,1378.3h2v2h-2V1378.3z
				 M842.2,1373.3h2v2h-2V1373.3z M842.2,1368.3h2v2h-2V1368.3z M842.2,1363.3h2v2h-2V1363.3z M837.2,1424.9v-1.6h2v2 M837.2,1418.3
				h2v2h-2V1418.3z M837.2,1413.3h2v2h-2V1413.3z M837.2,1408.3h2v2h-2V1408.3z M837.2,1403.3h2v2h-2V1403.3z M837.2,1398.3h2v2h-2
				V1398.3z M837.2,1393.3h2v2h-2V1393.3z M837.2,1388.3h2v2h-2V1388.3z M837.2,1383.3h2v2h-2V1383.3z M837.2,1378.3h2v2h-2V1378.3z
				 M837.2,1373.3h2v2h-2V1373.3z M837.2,1368.3h2v2h-2V1368.3z M837.2,1363.3h2v2h-2V1363.3z M832.2,1423.6v-0.3h2v0.9
				 M832.2,1418.3h2v2h-2V1418.3z M832.2,1413.3h2v2h-2V1413.3z M832.2,1408.3h2v2h-2V1408.3z M832.2,1403.3h2v2h-2V1403.3z
				 M832.2,1398.3h2v2h-2V1398.3z M832.2,1393.3h2v2h-2V1393.3z M832.2,1388.3h2v2h-2V1388.3z M832.2,1383.3h2v2h-2V1383.3z
				 M832.2,1378.3h2v2h-2V1378.3z M832.2,1373.3h2v2h-2V1373.3z M832.2,1368.3h2v2h-2V1368.3z M832.2,1363.3h2v2h-2V1363.3z
				 M827.2,1418.3h2v2h-2V1418.3z M827.2,1413.3h2v2h-2V1413.3z M827.2,1408.3h2v2h-2V1408.3z M827.2,1403.3h2v2h-2V1403.3z
				 M827.2,1398.3h2v2h-2V1398.3z M827.2,1393.3h2v2h-2V1393.3z M827.2,1388.3h2v2h-2V1388.3z M827.2,1383.3h2v2h-2V1383.3z
				 M827.2,1378.3h2v2h-2V1378.3z M827.2,1373.3h2v2h-2V1373.3z M827.2,1368.3h2v2h-2V1368.3z M827.2,1363.3h2v2h-2V1363.3z
				 M823.3,1420.3h0.9v-2h-2v1.5 M822.2,1413.3h2v2h-2V1413.3z M822.2,1408.3h2v2h-2V1408.3z M822.2,1403.3h2v2h-2V1403.3z
				 M822.2,1398.3h2v2h-2V1398.3z M822.2,1393.3h2v2h-2V1393.3z M822.2,1388.3h2v2h-2V1388.3z M822.2,1383.3h2v2h-2V1383.3z
				 M822.2,1378.3h2v2h-2V1378.3z M822.2,1373.3h2v2h-2V1373.3z M822.2,1368.3h2v2h-2V1368.3z M822.2,1363.3h2v2h-2V1363.3z
				 M817.2,1413.3h2v2h-2V1413.3z M817.2,1408.3h2v2h-2V1408.3z M817.2,1403.3h2v2h-2V1403.3z M817.2,1398.3h2v2h-2V1398.3z
				 M817.2,1393.3h2v2h-2V1393.3z M817.2,1388.3h2v2h-2V1388.3z M817.2,1383.3h2v2h-2V1383.3z M817.2,1378.3h2v2h-2V1378.3z
				 M817.2,1373.3h2v2h-2V1373.3z M817.2,1368.3h2v2h-2V1368.3z M817.2,1363.3h2v2h-2V1363.3z M812.2,1413.8v-0.5h2v1.9
				 M812.2,1408.3h2v2h-2V1408.3z M812.2,1403.3h2v2h-2V1403.3z M812.2,1398.3h2v2h-2V1398.3z M812.2,1393.3h2v2h-2V1393.3z
				 M812.2,1388.3h2v2h-2V1388.3z M812.2,1383.3h2v2h-2V1383.3z M812.2,1378.3h2v2h-2V1378.3z M812.2,1373.3h2v2h-2V1373.3z
				 M812.2,1368.3h2v2h-2V1368.3z M812.2,1363.3h2v2h-2V1363.3z M807.8,1410.3h1.4v-2h-2v1.5 M807.2,1403.3h2v2h-2V1403.3z
				 M807.2,1398.3h2v2h-2V1398.3z M807.2,1393.3h2v2h-2V1393.3z M807.2,1388.3h2v2h-2V1388.3z M807.2,1383.3h2v2h-2V1383.3z
				 M807.2,1378.3h2v2h-2V1378.3z M807.2,1373.3h2v2h-2V1373.3z M807.2,1368.3h2v2h-2V1368.3z M807.2,1363.3h2v2h-2V1363.3z
				 M802.7,1405.3h1.5v-2h-2v1.5"/>
			<path class="st14" d="M1002.2,1145.4h-217v-43h260C1045.2,1126.2,1025.9,1145.4,1002.2,1145.4z"/>
			<path class="st15" d="M1026.2,1125.5h-10.6c-1,0-2-0.4-2.7-1.1l-2.3-2.3c-0.4-0.4-0.9-0.6-1.5-0.6h-2l4,4h-3.5
				c-1.1,0-2.1-0.4-2.8-1.2l-2.1-2.2c-0.4-0.4-0.9-0.6-1.5-0.6h-2l4.2,4.2c1.1,1.1,2.6,1.8,4.2,1.8h3.5l-4,4h2
				c0.5,0,1.1-0.2,1.5-0.6l2.3-2.3c0.7-0.7,1.7-1.1,2.7-1.1h12.6C1028.2,1126.4,1027.3,1125.5,1026.2,1125.5L1026.2,1125.5z"/>
			<path class="st12" d="M785.2,1121.4h212v2h-212V1121.4z M785.2,1125.5h212v2h-212V1125.5z"/>
			<path class="st12" d="M1034.2,1174.4l-6,6h11l6-6H1034.2z"/>
			<path class="st14" d="M951.1,1157.3c0.1,0.1,0.2,0.1,0.3,0.1h5.9c1.9,0,3.6,0.7,4.9,2.1l0.2,0.2c1.1,1.1,2.6,1.8,4.2,1.8h8.9
				c0.4,0,0.8,0.2,1.1,0.4c0.6,0.6,0.6,1.6,0,2.2c-0.3,0.3-0.7,0.4-1.1,0.4h-33.3c-1.1,0-2-0.9-2-2v-1c0-3.3,2.7-6,6-6h0.3
				C948.2,1155.4,949.9,1156.1,951.1,1157.3z M1010.2,1180.4h18v52h-18V1180.4z M1004.2,1163.4h30v11h-30V1163.4z"/>
			<path class="st14" d="M996.6,1173.8c-0.3-0.3-0.7-0.4-1.1-0.4h-3.3c-1.4,0.1-2.7-0.5-3.6-1.4c-1-0.9-2.3-1.5-3.6-1.4h-5.8
				c-2.2,0-4,1.8-4,4v1c0,0.5,0.4,1,0.9,1c0,0,0,0,0,0h19.5c0.8,0.2,1.6-0.3,1.7-1.1C997.5,1174.8,997.2,1174.1,996.6,1173.8
				L996.6,1173.8z M1016.4,1080.7c-0.2,0-0.3,0.1-0.4,0.2l-2.7,2.7c-0.2,0.2-0.2,0.6,0,0.8c0.1,0.1,0.2,0.1,0.4,0.1h5
				C1018.3,1083.1,1017.5,1081.8,1016.4,1080.7L1016.4,1080.7z"/>
			<path class="st12" d="M1016.4,1080.7l-1.7-1.7c-3.7-3.7-8.1-6.4-13-8.1l-22.7-7.8l-17.1-6.6c-12-4.7-24.7-7.3-37.6-7.9v-0.1h-43
				v49h128.6c5.2,0,9.4-4.2,9.4-9.4v-0.7C1019.2,1084.9,1018.2,1082.5,1016.4,1080.7L1016.4,1080.7z"/>
			<path class="st15" d="M1018.2,1184.4h2v5h-2V1184.4z M1018.2,1193.4h2v5h-2V1193.4z M1018.2,1202.4h2v5h-2V1202.4z
				 M1018.2,1211.4h2v5h-2V1211.4z"/>
			<path class="st12" d="M977.8,1095.3c2.1-1.8,3.4-4.4,3.4-7.2v-0.7c0-2.5-1-4.9-2.8-6.7l-1.7-1.7c-3.7-3.7-8.1-6.4-13-8.1
				l-22.7-7.8l-17.1-6.6c-13.8-5.3-28.4-8-43.1-8c-13.6,0-27,2.3-39.8,6.8l-6.3,2.2c-3.6,1.3-7.4,1.9-11.3,1.9h-8.8
				c-0.6,0-1,0.5-1,1c0,0.2,0.1,0.5,0.3,0.7l0.1,0.1c0.8,0.7,1.2,1.7,1.2,2.8v6.4c0,1.9-0.8,3.7-2.1,4.9c-1.2,1.3-1.9,2.9-1.9,4.7
				v6.2c0,6.1,4.9,11,10.9,11h149.7C974,1097.4,976.2,1096.7,977.8,1095.3L977.8,1095.3z"/>
			<path class="st12" d="M1015.6,1095.5H816c1.8,1.3,4,2,6.3,2H984c4.4,5.6,12.5,6.7,18.1,2.3c0.9-0.7,1.6-1.4,2.3-2.3h5.4
				C1011.9,1097.4,1013.9,1096.7,1015.6,1095.5L1015.6,1095.5z"/>
			<path class="st14" d="M1016.4,1080.7c-0.2,0-0.3,0.1-0.4,0.2l-2.7,2.7c-0.2,0.2-0.2,0.6,0,0.8c0.1,0.1,0.2,0.1,0.4,0.1h5
				C1018.3,1083.1,1017.5,1081.8,1016.4,1080.7L1016.4,1080.7z"/>
			<ellipse class="st12" cx="844.2" cy="1089.5" rx="13" ry="13"/>
			<path class="st12" d="M916.2,1062.9c0-0.6,0.4-1,1-1c0.1,0,0.2,0,0.3,0c2.2,0.7,6.9,2.2,11.1,3.6h4.3c0.6,0,1-0.5,1-1
				c0-0.4-0.2-0.7-0.6-0.9c-5.9-2.4-15.2-6.1-15.2-6.1c-10.5-4.1-21.7-6.1-33-6h-8.9c-10,0-20,1.7-29.4,5l-6.3,2.2
				c-1.8,0.6-2.8,2.6-2.2,4.4c0.2,0.5,0.5,1,0.9,1.4c0.7,0.6,1.6,1,2.5,1h74.4L916.2,1062.9L916.2,1062.9z M844.2,1074.5
				c-8.3,0-15,6.7-15,15v8h30v-8C859.2,1081.2,852.5,1074.5,844.2,1074.5z"/>
			<ellipse class="st14" cx="844.2" cy="1089.5" rx="9" ry="9"/>
			<circle class="st14" cx="844.2" cy="1089.5" r="1.5"/>
			<path class="st15" d="M844.2,1083.5v6h6C850.2,1086.2,847.5,1083.5,844.2,1083.5z M844.2,1095.5v-6h-6
				C838.2,1092.8,840.9,1095.5,844.2,1095.5z"/>
			<path class="st12" d="M951.2,1074.5c-8.3,0-15,6.6-15.1,14.9v8.1h30v-8C966.1,1081.2,959.5,1074.5,951.2,1074.5L951.2,1074.5z"/>
			<ellipse class="st12" cx="951.2" cy="1089.5" rx="13" ry="13"/>
			<ellipse class="st14" cx="951.2" cy="1089.5" rx="9" ry="9"/>
			<circle class="st14" cx="951.2" cy="1089.5" r="1.5"/>
			<path class="st15" d="M955.4,1085.3l-4.2,4.2l4.2,4.2c2.3-2.2,2.4-5.9,0.2-8.2L955.4,1085.3z M947,1093.7l4.2-4.2l-4.2-4.2
				c-2.3,2.2-2.4,5.9-0.2,8.2L947,1093.7z"/>
			<path class="st14" d="M923.9,1056.5l17.1,6.6l6.8,2.3h22.4c0.6,0,1-0.5,1-1c0-0.4-0.2-0.7-0.6-0.9c-5.9-2.4-15.2-6.1-15.2-6.1
				c-10.5-4.1-21.7-6.1-33-6h-8.9c-1.8,0-3.6,0.1-5.3,0.2C913.5,1052.9,918.8,1054.6,923.9,1056.5L923.9,1056.5z"/>
			<path class="st12" d="M970.6,1063.6c-5.9-2.4-15.2-6.1-15.2-6.1c-6.2-2.4-12.6-4.1-19.1-5l13,13h20.9c0.5,0.2,1.1,0,1.3-0.5
				c0.2-0.5,0-1.1-0.5-1.3C970.9,1063.6,970.8,1063.6,970.6,1063.6z"/>
			<path class="st14" d="M985.7,1084.5h-7.8c-2.4,0-4.8-0.7-6.9-2l-3.6-2.3c-0.2-0.1-0.3-0.4-0.2-0.6c0.1-0.1,0.2-0.2,0.4-0.2h12.2
				c1.3,0,2.6,0.5,3.5,1.4l2.7,2.7c0.2,0.1,0.3,0.4,0.2,0.7C986.1,1084.4,985.9,1084.5,985.7,1084.5L985.7,1084.5z"/>
			<path class="st12" d="M1005.6,1085.5h-11c-1.6,0-3.1-0.6-4.2-1.8l-2.5-2.5c-0.4-0.4-0.4-1,0-1.4c0.2-0.2,0.4-0.3,0.7-0.3h23.2
				c0.6,0,1,0.5,1,1c0,0.2-0.1,0.5-0.3,0.7l-2.4,2.4C1008.9,1084.8,1007.3,1085.5,1005.6,1085.5z"/>
			<path class="st14" d="M998.1,1082.4l1.1,1.1c0.7,0.7,1.6,1.1,2.6,1.1c1,0,1.9-0.4,2.6-1.1l1.1-1.1c0.2-0.2,0.2-0.6,0-0.8
				c-0.1-0.1-0.2-0.1-0.4-0.1h-6.6c-0.3-0.1-0.5,0.1-0.6,0.4C997.9,1082.1,998,1082.3,998.1,1082.4L998.1,1082.4z"/>
			<pattern  id="SVGID_3_" xlink:href="#c___-824473781" patternTransform="matrix(1 0 0 1 -1132.47 16657.5156)">
			</pattern>
			<path class="st18" d="M823.2,1083.8v1.7h1.4C824.3,1084.8,823.8,1084.2,823.2,1083.8z M815.2,1089.6v-1.2h-0.5
				C814.8,1088.9,815,1089.3,815.2,1089.6z M814.6,1083.5h0.6v2h-0.6V1083.5z"/>
			<path class="st12" d="M1006.2,1093.5h-9c-0.5,0-1-0.4-1-0.9c0,0,0-0.1,0-0.1v-2c0-0.5,0.4-1,0.9-1c0,0,0,0,0,0h9.1
				c0.5,0,1,0.4,1,0.9c0,0,0,0.1,0,0.1v2c0,0.5-0.4,1-0.9,1c0,0,0,0,0,0H1006.2L1006.2,1093.5z"/>
			<path class="st12" d="M1019.1,1089.5h-6.9c-0.9,0-1.8,0.4-2.4,1c-0.6,0.6-1.5,1-2.4,1h-16.2c-0.9,0-1.8-0.4-2.4-1s-1.5-1-2.4-1
				h-11.1c-0.9,0-1.8,0.4-2.4,1l-1.3,1.3c-0.4,0.4-0.4,1,0,1.4c0.2,0.2,0.4,0.3,0.7,0.3h45.3
				C1018.3,1092.3,1018.9,1090.9,1019.1,1089.5z M923.2,1088.5h2v2h-2V1088.5z M918.2,1088.5h2v2h-2V1088.5z M913.2,1088.5h2v2h-2
				V1088.5z M908.2,1088.5h2v2h-2V1088.5z M903.2,1088.5h2v2h-2V1088.5z M898.2,1088.5h2v2h-2V1088.5z M893.2,1088.5h2v2h-2V1088.5z
				 M888.2,1088.5h2v2h-2V1088.5z M883.2,1088.5h2v2h-2V1088.5z M878.2,1088.5h2v2h-2V1088.5z M873.2,1088.5h2v2h-2V1088.5z
				 M868.2,1088.5h2v2h-2V1088.5z M863.2,1088.5h2v2h-2V1088.5z M923.2,1083.5h2v2h-2V1083.5z M918.2,1083.5h2v2h-2V1083.5z
				 M913.2,1083.5h2v2h-2V1083.5z M908.2,1083.5h2v2h-2V1083.5z M903.2,1083.5h2v2h-2V1083.5z M898.2,1083.5h2v2h-2V1083.5z
				 M893.2,1083.5h2v2h-2V1083.5z M888.2,1083.5h2v2h-2V1083.5z M883.2,1083.5h2v2h-2V1083.5z M878.2,1083.5h2v2h-2V1083.5z
				 M873.2,1083.5h2v2h-2V1083.5z M928.2,1088.5h2v2h-2V1088.5z M868.2,1083.5h2v2h-2V1083.5z M823.2,1088.5h2v2h-2V1088.5z
				 M818.2,1088.5h2v2h-2V1088.5z M818.2,1083.5h2v2h-2V1083.5z"/>
			<path class="st12" d="M815.1,1071.5h1.5c2.4,0,4.7-1,6.4-2.7l3.6-3.6c0.4-0.4,0.4-1,0-1.4c-0.2-0.2-0.4-0.3-0.7-0.3h-10.8
				c0,0.2,0.1,0.4,0.1,0.7v6.4C815.2,1070.9,815.2,1071.2,815.1,1071.5L815.1,1071.5z"/>
			<ellipse class="st12" cx="999.2" cy="1219.4" rx="13" ry="13"/>
			<path class="st12" d="M1017.9,1203.4l-23.4-7.5c-3.1-1-6.1-2.1-9-3.5l-33.7-15.5c-9.2-4.2-19.2-6.4-29.3-6.4h-42.3v57h139
				c2.7,0,5-2.2,5-4.9v-10.5C1024.3,1208.1,1021.7,1204.6,1017.9,1203.4L1017.9,1203.4z"/>
			<path class="st14" d="M914,1176.8l33.7,15.5c1.6,0.7,3.2,1.4,4.8,2h27.7c0.6,0,1-0.5,1-1c0-0.4-0.2-0.7-0.6-0.9l-30.8-13.8
				c-8.9-4.1-18.7-6.3-28.5-6.3h-20.1C905.6,1173.5,909.9,1175,914,1176.8L914,1176.8z"/>
			<path class="st12" d="M980.5,1192.5l-30.8-13.8c-4.3-2-8.8-3.5-13.4-4.6l20.3,20.3h23.6c0.5-0.1,0.9-0.6,0.8-1.1
				C981,1192.9,980.8,1192.7,980.5,1192.5z"/>
			<path class="st12" d="M884.5,1170.4H815c-0.5,0-0.9,0.3-0.9,0.8c0,0.4,0.2,0.7,0.5,0.9c0.4,0.2,0.5,0.7,0.3,1.1l-7.4,14.1
				c-1.4,2.7-2.2,5.7-2.2,8.8v19.3c0,6.6,5.4,12,12,12h164c2.7,0,5-2.2,5-4.9v-10.5c0-3.9-2.5-7.4-6.3-8.6l-23.4-7.5
				c-3.1-1-6.1-2.1-9-3.5l-33.7-15.5C904.7,1172.6,894.6,1170.4,884.5,1170.4L884.5,1170.4z"/>
			<path class="st12" d="M837.2,1204.4c-8.3,0-15,6.7-15,15l0,0v8h30v-8C852.2,1211.1,845.5,1204.4,837.2,1204.4L837.2,1204.4z"/>
			<path class="st12" d="M808.3,1223.4c2.3,2.5,5.5,4,8.9,4h202.1c2.4,0,4.4-1.7,4.9-4H808.3z M942.6,1192.5l-30.8-13.8
				c-8.9-4.1-18.7-6.3-28.5-6.3h-54.2c-3,0-5.8,1.7-7.2,4.3l-4.4,9c-0.8,1.5-0.5,3.4,0.8,4.6l1,1c1.9,1.9,4.4,2.9,7.1,2.9h90.9v-4.3
				c0-0.6,0.4-1,1-1c0.2,0,0.3,0,0.5,0.1c3.9,1.8,7.9,3.7,11.3,5.3h12.3c0.5,0.2,1,0,1.2-0.5c0.2-0.5,0-1-0.5-1.2
				C942.8,1192.5,942.7,1192.5,942.6,1192.5L942.6,1192.5z"/>
			<ellipse class="st12" cx="837.2" cy="1219.4" rx="13" ry="13"/>
			<ellipse class="st14" cx="837.2" cy="1219.4" rx="9" ry="9"/>
			<circle class="st14" cx="837.2" cy="1219.4" r="1.5"/>
			<path class="st15" d="M837.2,1213.4v6h6C843.2,1216.1,840.5,1213.4,837.2,1213.4z M837.2,1225.4v-6h-6
				C831.2,1222.7,833.9,1225.4,837.2,1225.4z"/>
			<path class="st12" d="M956.2,1204.4c-8.3,0-15,6.7-15,15l0,0v8h30v-8C971.2,1211.1,964.5,1204.4,956.2,1204.4L956.2,1204.4z"/>
			<ellipse class="st12" cx="956.2" cy="1219.4" rx="13" ry="13"/>
			<ellipse class="st14" cx="956.2" cy="1219.4" rx="9" ry="9"/>
			<circle class="st14" cx="956.2" cy="1219.4" r="1.5"/>
			<path class="st15" d="M956.2,1213.4v6h6C962.2,1216.1,959.5,1213.4,956.2,1213.4z M956.2,1225.4v-6h-6
				C950.2,1222.7,952.9,1225.4,956.2,1225.4z"/>
			<path class="st14" d="M989.6,1213c0.5-0.6,0.5-1.5-0.1-2c-0.1-0.1-0.3-0.2-0.4-0.3l-17.9-6c-0.5-0.2-1.1,0.1-1.3,0.6
				c-0.1,0.4,0,0.8,0.3,1.1l3.1,3.2c2.4,2.5,5.8,3.9,9.3,3.9h6.1C989,1213.4,989.4,1213.2,989.6,1213L989.6,1213z"/>
			<path class="st12" d="M1015.4,1210.4h-20.3c-0.5,0-1.1,0.2-1.5,0.6l-2,2c-0.8,0.7-0.8,2,0,2.7l0,0.1c0.4,0.4,0.9,0.6,1.5,0.6
				h24.3c0.5,0,1.1-0.2,1.5-0.6c0.8-0.7,0.8-2,0-2.7l0-0.1l-2.1-2C1016.4,1210.6,1015.9,1210.4,1015.4,1210.4z"/>
			<path class="st12" d="M990.2,1212.4h32v2h-32V1212.4z"/>
			<circle class="st14" cx="1005.7" cy="1207.9" r="1.5"/>
			<path class="st14" d="M1020.6,1213c0.3,0.3,0.6,0.4,1,0.4h2.6v-1.4c0-0.7-0.1-1.5-0.3-2.2l-2.8,0.9c-0.7,0.3-1.1,1.1-0.8,1.9
				C1020.4,1212.7,1020.5,1212.9,1020.6,1213L1020.6,1213z"/>
			<path class="st12" d="M987.2,1218.4h37v4h-37V1218.4z"/>
			<path class="st14" d="M978.3,1219.3l2.3,2.3c0.5,0.6,1.3,0.9,2.1,0.9h6.5c0.5,0,1-0.4,1-0.9c0,0,0-0.1,0-0.1
				c0.1-1.6-1.2-2.9-2.8-3c0,0,0,0,0,0h-8.7c-0.3,0-0.5,0.1-0.6,0.4C978.1,1219,978.2,1219.2,978.3,1219.3L978.3,1219.3z"/>
			<path class="st12" d="M1010.2,1223.4h-9c-0.5,0-1-0.4-1-0.9c0,0,0-0.1,0-0.1v-2c0-0.5,0.4-1,0.9-1c0,0,0,0,0,0h9.1
				c0.5,0,1,0.4,1,0.9c0,0,0,0.1,0,0.1v2c0,0.5-0.4,1-0.9,1c0,0,0,0,0,0H1010.2L1010.2,1223.4z"/>
			<path class="st14" d="M1023.5,1218.4c-1.6-0.1-2.9,1.2-3,2.8c0,0,0,0,0,0v0.2c0,0.5,0.4,1,0.9,1c0,0,0,0,0,0h2.8v-4H1023.5z"/>
			<path class="st12" d="M856.2,1353.3h82v1h-82V1353.3z"/>
			<path class="st12" d="M810.9,1197.1c-0.5-0.4-1.1-0.7-1.7-0.7h-4v9h7c0.6,0,1.2-0.3,1.7-0.7l1.5-1.4c0.5-0.5,0.5-1.3,0-1.8
				L810.9,1197.1z M914.2,1217.4h2v2h-2V1217.4z M909.2,1217.4h2v2h-2V1217.4z M904.2,1217.4h2v2h-2V1217.4z M899.2,1217.4h2v2h-2
				V1217.4z M894.2,1217.4h2v2h-2V1217.4z M889.2,1217.4h2v2h-2V1217.4z M884.2,1217.4h2v2h-2V1217.4z M879.2,1217.4h2v2h-2V1217.4z
				 M874.2,1217.4h2v2h-2V1217.4z M869.2,1217.4h2v2h-2V1217.4z M864.2,1217.4h2v2h-2V1217.4z M859.2,1217.4h2v2h-2V1217.4z
				 M914.2,1212.4h2v2h-2V1212.4z M909.2,1212.4h2v2h-2V1212.4z M904.2,1212.4h2v2h-2V1212.4z M899.2,1212.4h2v2h-2V1212.4z
				 M894.2,1212.4h2v2h-2V1212.4z M889.2,1212.4h2v2h-2V1212.4z M884.2,1212.4h2v2h-2V1212.4z M879.2,1212.4h2v2h-2V1212.4z
				 M874.2,1212.4h2v2h-2V1212.4z M869.2,1212.4h2v2h-2V1212.4z M864.2,1212.4h2v2h-2V1212.4z M924.2,1217.4h2v2h-2V1217.4z
				 M919.2,1217.4h2v2h-2V1217.4z M924.2,1212.4h2v2h-2V1212.4z M919.2,1212.4h2v2h-2V1212.4z M934.2,1217.4h2v2h-2V1217.4z
				 M929.2,1217.4h2v2h-2V1217.4z M929.2,1212.4h2v2h-2V1212.4z M814.2,1217.4h2v2h-2V1217.4z M809.2,1217.4h2v2h-2V1217.4z
				 M814.2,1212.4h2v2h-2V1212.4z M809.2,1212.4h2v2h-2V1212.4z M861.2,1212.4c-0.7,0.4-1.4,0.9-2,1.4v0.6h2V1212.4L861.2,1212.4z
				 M1031.5,1355.3c0-0.4-0.2-0.8-0.5-1l-0.1-0.1l-0.9-1c-0.3-0.3-0.5-0.6-0.6-0.9c-0.1-0.4-0.2-0.7-0.2-1.1v-12.5
				c-0.1-3.5-2.6-6.4-6.1-7l-41.2-6.1c-4.5-0.7-8.9-2-13-4l-16.8-8.3c-6.6-3.3-14-5-21.4-4.9h-65.6c-0.4,0-0.8-0.2-1.2-0.2l-0.2-0.2
				c-0.1-0.3-0.4-0.5-0.8-0.6h-1.3c-0.5,0-1-0.2-1.3-0.6l-0.1-0.1c-0.2-0.2-0.5-0.3-0.8-0.3H859c-0.7,0-1.3,0.2-1.9,0.5v1.7
				c-6.5,1.1-12.7,3.5-18.2,7.1l-8.5,5.7c-3.6,2.5-7.9,3.8-12.3,3.9h-8.7c-2.2,0-4.3,1.4-4.3,3.6v4.3c0,1.9-0.4,3.7-1.2,5.4
				c-0.5,1.1-1.2,2.1-2.1,3l-1.1,1.2c-0.4,0.5-0.7,1.2-0.6,1.9v3.7c-0.1,4.8,3.8,8.7,8.6,8.8c0,0,0,0,0,0h18.5
				c4.6,5.7,13,6.7,18.7,2.1c0.8-0.6,1.5-1.3,2.1-2.1h100c4.6,5.7,13,6.7,18.7,2.1c0.8-0.6,1.5-1.3,2.1-2.1h23
				c4.6,5.7,13,6.7,18.7,2.1c0.8-0.6,1.5-1.3,2.1-2.1h17.1c0.9,0,1.7-0.7,1.8-1.6v-0.1C1031.4,1355.5,1031.5,1355.4,1031.5,1355.3
				L1031.5,1355.3z"/>
			<path class="st12" d="M856.2,1353.3h82v1h-82V1353.3z"/>
			<path class="st13" d="M856.2,1353.3h82v1h-82V1353.3z"/>
			<ellipse class="st14" cx="958.3" cy="1349.1" rx="9" ry="9"/>
			<path class="st14" d="M856.2,1352.3h82v2h-82V1352.3z M810.2,1352.3h12v2h-12V1352.3z"/>
			<path class="st14" d="M1013.2,1332.8c0,0.8-0.6,1.5-1.4,1.5c-0.8,0-1.5-0.6-1.5-1.4c0-0.8,0.6-1.5,1.4-1.5h0
				C1012.5,1331.4,1013.2,1332,1013.2,1332.8z"/>
			<ellipse class="st14" cx="837.5" cy="1349" rx="9" ry="9"/>
			<path class="st19" d="M962.5,1324.3h-24.2c-2.3-1-4.5-1.8-6.7-2.9l-17.6-8.7c-0.2-0.2-0.5-0.3-0.8-0.4h22.4
				c5.6-0.2,11.1,1.1,16,3.8l11.4,5.6c0.7,0.5,0.8,1.4,0.3,2C963.1,1324,962.8,1324.2,962.5,1324.3L962.5,1324.3z"/>
			<path class="st14" d="M947.8,1324.3h-9.4c-2.3-1-4.5-1.8-6.7-2.9l-17.6-8.7c-0.2-0.2-0.5-0.3-0.8-0.4h22.4L947.8,1324.3z"/>
			<path class="st14" d="M1026.2,1335.8c0-0.3-0.3-0.5-0.5-0.5h-30.1c-0.3,0.1-0.5,0.3-0.5,0.6c-0.1,0.3,0,0.7,0.2,0.9l4,3.5l1.1,1
				l2.9,2.5c0.4,0.3,0.8,0.5,1.3,0.5h12c0.5,0,0.9-0.2,1.3-0.5l8.1-7.2C1026.2,1336.4,1026.3,1336.1,1026.2,1335.8L1026.2,1335.8z
				 M1011.2,1337.3v1h-11.9l-1.2-1H1011.2z M1011.2,1340.3h-9.5l-1.2-1h10.7L1011.2,1340.3L1011.2,1340.3z M1012.2,1339.3h8.5
				l-1.2,1h-7.2L1012.2,1339.3L1012.2,1339.3L1012.2,1339.3z M1004,1342.3l-1.3-1h8.3v1H1004L1004,1342.3z M1017.2,1342.3h-5v-1h6.1
				L1017.2,1342.3z M1021.9,1338.3h-9.7v-1h10.9L1021.9,1338.3z M989.4,1337.3h-1.8c-0.8,0-1.6-0.3-2.1-0.9l-0.5-0.5
				c-0.4-0.4-0.9-0.6-1.5-0.6h-5.8c-0.6,0-1,0.5-1,1c0,0.2,0.1,0.5,0.3,0.7l3.8,3.8c0.9,0.9,2.2,1.4,3.5,1.4h8.3c0.6,0,1-0.5,1-1
				c0-0.2-0.1-0.5-0.3-0.7l-2.7-2.7C990.3,1337.5,989.9,1337.3,989.4,1337.3L989.4,1337.3z"/>
			<path class="st19" d="M1029.2,1351.1c0,0.4,0,0.8,0.2,1.2h-3.5c-0.4,0-0.8-0.3-0.8-0.7c0-0.2,0.1-0.4,0.2-0.6l1.4-1.4
				c0.7-0.7,1.6-1.1,2.5-1.3L1029.2,1351.1L1029.2,1351.1z M990.2,1348.2h-2.8c-1.1,0-2.1,0.9-2.1,2v0.1c0,1.1,0.9,2.1,2,2.1h7.2
				c0.5,0,0.8-0.4,0.9-0.8c0-0.2-0.1-0.5-0.3-0.6l-1.5-1.4C992.7,1348.7,991.5,1348.2,990.2,1348.2z M996.5,1349.4l2.7,2.7
				c0.1,0.1,0.3,0.2,0.5,0.2h19.9c0.2,0,0.4-0.1,0.5-0.2l2.7-2.7c0.3-0.3,0.2-0.8-0.1-1c-0.1-0.1-0.3-0.2-0.5-0.2h-25.3
				c-0.4,0-0.7,0.3-0.7,0.7C996.2,1349.1,996.3,1349.3,996.5,1349.4L996.5,1349.4z"/>
			<path class="st12" d="M1017.2,1350.9v2.8c0,0.3-0.3,0.6-0.6,0.6h-9.8c-0.3,0-0.6-0.3-0.6-0.6v-2.8c0-0.3,0.3-0.6,0.6-0.6h9.8
				c0.3,0,0.5,0.1,0.6,0.4V1350.9L1017.2,1350.9z"/>
			<path class="st20" d="M860.2,1344.3h2v2h-2V1344.3z M861.2,1349.3h1v1h-1V1349.3z M865.2,1344.3h2v2h-2V1344.3z M870.2,1344.3h2
				v2h-2V1344.3z M875.2,1344.3h2v2h-2V1344.3z M880.2,1344.3h2v2h-2V1344.3z M885.2,1344.3h2v2h-2V1344.3z M890.2,1344.3h2v2h-2
				V1344.3z M895.2,1344.3h2v2h-2V1344.3z M900.2,1344.3h2v2h-2V1344.3z M905.2,1344.3h2v2h-2V1344.3z M910.2,1344.3h2v2h-2V1344.3z
				 M915.2,1344.3h2v2h-2V1344.3z M920.2,1344.3h2v2h-2V1344.3z M925.2,1344.3h2v2h-2V1344.3z M930.2,1344.3h2v2h-2V1344.3z
				 M865.2,1349.3h2v1h-2V1349.3z M810.2,1344.3h2v2h-2V1344.3z M815.2,1344.3h2v2h-2V1344.3z M810.1,1349.3h2v1h-2V1349.3z
				 M820.2,1344.3h2v2h-2V1344.3z M815.1,1349.3h2v1h-2V1349.3z M821.2,1349.3h1v1h-1V1349.3z M820.1,1340.3h2v1h-2V1340.3z
				 M825.1,1340.3h1.1v1h-1.1V1340.3z M815.1,1340.3h2v1h-2V1340.3z M870.2,1349.3h2v1h-2V1349.3z M875.2,1349.3h2v1h-2V1349.3z
				 M880.2,1349.3h2v1h-2V1349.3z M885.2,1349.3h2v1h-2V1349.3z M890.2,1349.3h2v1h-2V1349.3z M895.2,1349.3h2v1h-2V1349.3z
				 M900.2,1349.3h2v1h-2V1349.3z M905.2,1349.3h2v1h-2V1349.3z M910.2,1349.3h2v1h-2V1349.3z M915.2,1349.3h2v1h-2V1349.3z
				 M920.2,1349.3h2v1h-2V1349.3z M925.2,1349.3h2v1h-2V1349.3z M930.2,1349.3h2v1h-2V1349.3z M865.2,1340.3h2v1h-2V1340.3z
				 M860.2,1340.3h2v1h-2V1340.3z M855.2,1340.3h2v1h-2V1340.3z M870.2,1340.3h2v1h-2V1340.3z M875.2,1340.3h2v1h-2V1340.3z
				 M880.2,1340.3h2v1h-2V1340.3z M885.2,1340.3h2v1h-2V1340.3z M890.2,1340.3h2v1h-2V1340.3z M895.2,1340.3h2v1h-2V1340.3z
				 M900.2,1340.3h2v1h-2V1340.3z M905.2,1340.3h2v1h-2V1340.3z M910.2,1340.3h2v1h-2V1340.3z M915.2,1340.3h2v1h-2V1340.3z
				 M920.2,1340.3h2v1h-2V1340.3z M925.2,1340.3h2v1h-2V1340.3z M930.2,1340.3h2v1h-2V1340.3z M935.2,1340.3h2v1h-2V1340.3z
				 M940.2,1340.3h2v1h-2V1340.3z M935.2,1344.3h2v2h-2V1344.3z"/>
			<path class="st19" d="M804.2,1338.3h8.5c1.3,0.1,2.6-0.4,3.6-1.3l2.3-2.1c0.5-0.6,0.5-1.4,0-2l-1.5-1.3c-0.3-0.2-0.6-0.4-1-0.3
				h-11v1.9c0,0.5,0,1-0.1,1.4c-0.1,0.8-0.2,1.6-0.5,2.4v0.1L804.2,1338.3z M926.8,1325.3c0.6,0,1.2-0.5,1.2-1.2
				c0-0.4-0.3-0.8-0.6-1c-5.5-2.8-14.2-7.1-14.2-7.1c-6.2-3.1-13.1-4.8-20.1-4.8h-28.7c-5.1,0-10.1,2-13.7,5.7l-5.3,5.3
				c-0.7,0.7-0.7,1.9,0,2.7c0.3,0.3,0.8,0.5,1.3,0.5L926.8,1325.3L926.8,1325.3z"/>
			<path class="st14" d="M893,1312.3c6.8,0,13.5,1.6,19.6,4.7l14.2,7.1h-80.1c-0.3,0-0.5-0.2-0.6-0.4c-0.1-0.3,0-0.6,0.3-0.8
				l5.3-5.3c3.4-3.4,8.1-5.3,12.9-5.3L893,1312.3 M893.1,1311.1h-28.8c-5.1,0-10.1,2-13.7,5.7l-5.3,5.3c-0.7,0.7-0.7,1.9,0,2.7
				c0.3,0.3,0.8,0.5,1.3,0.5h80.1c0.6,0,1.2-0.5,1.2-1.2c0-0.4-0.3-0.8-0.6-1c-5.5-2.8-14.2-7.1-14.2-7.1
				C906.9,1312.8,900,1311.2,893.1,1311.1L893.1,1311.1L893.1,1311.1z"/>
			<path class="st12" d="M928.4,1326.2l-11.8-5.9c-1-0.5-2.1-0.1-2.6,0.9c-0.1,0.2-0.2,0.5-0.2,0.8v6.4h14c0.6,0,1.2-0.5,1.2-1.1
				C929.1,1326.9,928.8,1326.5,928.4,1326.2z"/>
			<path class="st15" d="M835.8,1349.1h-4.5c0.2,3.2,2.7,5.8,5.9,6.1v-4.5c-0.7,0.1-1.4-0.5-1.4-1.2
				C835.8,1349.4,835.8,1349.2,835.8,1349.1z M837.3,1343.2v4.5c0.7-0.2,1.4,0.3,1.6,1c0,0.1,0,0.3,0,0.4h4.5
				C843.2,1345.9,840.5,1343.4,837.3,1343.2z M957.2,1348l-3.3-3c-2,2.5-2,6.1,0.2,8.5l3-3.3C956.5,1349.6,956.6,1348.6,957.2,1348z
				 M962.3,1344.7l-3,3.3c0.6,0.4,0.8,1.2,0.4,1.8c-0.1,0.1-0.1,0.2-0.2,0.3l3.3,3C964.8,1350.6,964.5,1347,962.3,1344.7z"/>
			<path class="st14" d="M1024.4,1342.3h4.7v-3.6c0-0.6-0.1-1.2-0.3-1.8c-0.9,0.2-1.7,0.6-2.4,1.3l-2.7,2.7
				c-0.3,0.4-0.3,0.9,0.1,1.2C1024,1342.3,1024.2,1342.3,1024.4,1342.3z"/>
			<path class="st15" d="M785.2,1427.3h260v65h-260V1427.3z"/>
			<path class="st14" d="M1004.2,1452.3c-3.6,0-6.8,2.5-7.7,6H953c-1.1-4.3-5.4-6.8-9.6-5.8c-2.8,0.7-5,2.9-5.8,5.8h-29.4
				c-1.3-13.2-13-22.9-26.2-21.6c-11.4,1.1-20.5,10.2-21.6,21.6h-26.5c-1.1-4.3-5.5-6.9-9.7-5.7c-4.3,1.1-6.9,5.5-5.7,9.7
				c1.1,4.3,5.5,6.9,9.7,5.7c2.8-0.7,5-2.9,5.7-5.7h26.4c1.3,13.2,13,22.9,26.2,21.6c11.4-1.1,20.5-10.2,21.6-21.6h29.4
				c1.1,4.3,5.4,6.8,9.6,5.8c2.8-0.7,5-2.9,5.8-5.8h43.4c1.1,4.3,5.5,6.8,9.7,5.7c4.3-1.1,6.8-5.5,5.7-9.7
				C1010.9,1454.8,1007.8,1452.3,1004.2,1452.3z"/>
			<circle class="st12" cx="826.2" cy="1460.3" r="4"/>
			<ellipse class="st15" cx="884.2" cy="1460.3" rx="20" ry="20"/>
			<circle class="st12" cx="945.2" cy="1460.3" r="4"/>
			<circle class="st12" cx="1004.2" cy="1460.3" r="4"/>
			<path class="st12" d="M888.6,1455.5c-1.4-0.8-3.1-1.2-4.7-1.2h-2c-1.4,0-2.9,0.3-4.2,0.9l-2.6,1.2c-0.7,0.4-1.6,0.5-2.4,0.5h-0.9
				c-0.3,0-0.5,0.2-0.5,0.4c0,0,0,0,0,0.1v0.9c0,0.2-0.1,0.4-0.2,0.6c-0.2,0.2-0.3,0.5-0.3,0.8v0.8c0,0.4,0.2,0.8,0.4,1.1l0.1,0.1
				c0.4,0.4,1,0.6,1.6,0.6h23.9c0.5,0,1.1-0.2,1.4-0.6l0.3-0.3c0.2-0.2,0.3-0.4,0.3-0.7v-0.8c0-0.9-0.7-1.7-1.6-1.8l-2.5-0.4
				C892.6,1457.2,890.5,1456.5,888.6,1455.5z"/>
			<circle class="st12" cx="874.7" cy="1461.3" r="2"/>
			<circle class="st14" cx="874.7" cy="1461.3" r="1"/>
			<path class="st14" d="M888.3,1457.3c0.1,0,0.2-0.2,0.1-0.2l-0.2-0.1c-1.6-0.9-3.4-1.3-5.2-1.3c-1.6,0-3.1,0.4-4.6,1h-0.2
				c-0.2,0.1-0.2,0.3-0.1,0.4c0,0.1,0.1,0.1,0.2,0.2L888.3,1457.3L888.3,1457.3z"/>
			<circle class="st12" cx="893.7" cy="1461.3" r="2"/>
			<circle class="st14" cx="893.7" cy="1461.3" r="1"/>
			<path class="st12" d="M785.2,801h260v172.9h-260V801z"/>
			<path class="st12" d="M922.2,869c-3.4,0-7,2.6-7,6v18h-18v-56h-37c-2.7-0.1-4.9,2-5,4.7c0,0,0,0,0,0V868l25,25h-30l28,28.9h-34
				v-53h-5v-9h-3v-3c0-3.9-3.1-7-7-7c-3.9,0-7,3.1-7,7v3h-3v9h-5v40h-9v-40h-20v104.9h143v-31c-0.1-3.8,2.9-6.9,6.7-7c0,0,0,0,0,0
				h7.3v-67h-20L922.2,869z"/>
			<path class="st12" d="M910.8,967.2l-0.9-0.9c-0.5-0.5-0.7-1.1-0.7-1.8v-11.3c0-3-2.2-5.5-5.1-6l-35.3-5.3h-0.1
				c-3.8-0.6-7.5-1.7-11-3.4l-14.4-7.2c-5.5-2.8-11.6-4.3-17.8-4.3h-40.3v43h92.4c2.1,2.4,5,3.9,8.2,4c4-0.2,7.7-2.5,9.6-6h5
				c0.5,0,1.1,0.2,1.5,0.6l0.8,0.8c0.4,0.4,0.9,0.6,1.5,0.6h5.7c0.8,0.3,1.6-0.1,1.9-0.9C912,968.3,911.6,967.5,910.8,967.2
				L910.8,967.2z"/>
			<path class="st14" d="M811.3,930.9l14.4,7.2c2.6,1.3,5.4,2.2,8.2,2.9c0.8,0.2,1.5,0.3,2.3,0.5h17.9c0.6,0,1-0.4,1.1-0.9
				c0-0.4-0.2-0.8-0.6-1c-4.7-2.4-12.2-6.1-12.2-6.1c-0.5-0.3-1.1-0.5-1.7-0.8l-0.6-0.3c-3.8-1.6-7.8-2.6-11.9-3
				c-1-0.1-2.1-0.1-3.1-0.1h-17.2C809.1,929.7,810.2,930.2,811.3,930.9z"/>
			<path class="st15" d="M785.2,627.1h260V801h-260V627.1z"/>
			<path class="st12" d="M785.2,454.2h260v172.9h-260V454.2z"/>
			<path class="st14" d="M953.2,590.1h92v37h-92V590.1z"/>
			<path class="st14" d="M996.2,497.2c-1.5,0-2.5,1.2-3.5,2.2l-2.2,2.2c-0.4,0.4-0.9,0.6-1.5,0.6h-1.9l4.2-4.2
				c0.3-0.3,0.6-0.6,0.9-0.8h-6c-1.9-0.1-3.7-0.9-5-2.3l-4-3.8h1.9c0.5,0,1.1,0.2,1.5,0.6l1.9,1.9c1,1,2.4,1.5,3.8,1.5h6.1
				c-0.4-0.2-0.7-0.5-1-0.8l-4.1-4.2h1.9c0.5,0,1.1,0.2,1.5,0.6l2.2,2.2c1.2,1.2,2.8,2,4.5,2.2h13c1.1,0.1,1.9,0.9,2,2h-16.1
				L996.2,497.2L996.2,497.2z M915.2,544.2h23v83h-23V544.2z"/>
			<path class="st12" d="M938.2,544.2h15v83h-15V544.2z M907.2,536.2l8,8h23l8-8H907.2z"/>
			<path class="st14" d="M946.2,522.2h-39v14h39V522.2z"/>
			<path class="st12" d="M1018.2,541.2L1018.2,541.2c-0.4,0.6-1,0.9-1.6,0.9h-8.4c-2.4-0.1-4.7,0.8-6.5,2.4l-3.4,3.5
				c-0.4,0.5-1,0.9-1.7,1h-16c-0.6,0-1.4-0.2-1.4,0.1v0.1c-1,1.3-0.4,3.8,1.4,3.8h53c1.2,0,1.5-1.3,1.5-2.5v-2.2
				c0-5.7-3.9-10.3-9.6-10.3h-0.1C1022.7,538.2,1020.2,539.4,1018.2,541.2L1018.2,541.2z M864.2,523.6c-1,0.4-1.5,1.6-2.1,1.6h-15.6
				c-2.3-0.2-4.6,0.5-6.3,2.1l-3.4,3.5c-0.6,0.3-1.2,0.5-1.9,0.4h-16c-0.4,0-0.7,0.1-0.7,0.5c-2,1.3-0.6,4.5,1.3,4.5h59
				c1.4-0.3,2.5-1.5,2.7-3V531c0.1-5.3-4-9.7-9.3-9.8c0,0,0,0,0,0h-0.8C868.6,521,866.1,521.9,864.2,523.6L864.2,523.6z
				 M966.2,568.3L966.2,568.3c0,0,0-1.1,0.4-0.1h8c0.6-0.2,1.1-0.6,1.5-1.1l2.6-2.4c1.4-1.5,3.3-2.3,5.3-2.5h8.8
				c3.9,0,6.6,3.5,6.6,7.4v0.1c0.1,0.7-0.5,1.4-1.2,1.5c-0.1,0-0.2,0-0.4,0h-30.6C965.4,571.2,964.2,569.5,966.2,568.3L966.2,568.3z
				 M785.2,495.2h190v2h-190V495.2z M785.2,491.2h190v2h-190V491.2z"/>
			<path class="st12" d="M946.2,522.2h15v14h-15V522.2z"/>
			<path class="st12" d="M964.2,598.1h4c1.6-0.2,3.2,0.3,4.3,1.3l9.7,9.8c1.5,1.7,3.7,2.7,6,2.9h-24L964.2,598.1L964.2,598.1z"/>
			<path class="st15" d="M926.2,564.2h2v7h-2V564.2z M926.2,576.1h2v7h-2V576.1z M926.2,588.1h2v7h-2V588.1z M926.2,600.1h2v7h-2
				V600.1z"/>
			<path class="st12" d="M964.6,612.1h-0.4c4.4,4.3,10.2,6.9,16.4,7h64.6v-7H964.6z"/>
			<path class="st14" d="M785.2,728.1h22v73h-22V728.1z"/>
			<path class="st14" d="M869.2,679.1h6v-12h25v12h-8v57l-23-23V679.1L869.2,679.1z"/>
			<path class="st12" d="M828.2,732.1v25h-2v-27L828.2,732.1z M833.2,737.1v20h-2v-22L833.2,737.1z M838.2,742.1v15h-2v-17
				L838.2,742.1z M843.2,747.1v10h-2v-12L843.2,747.1z M848.2,752.1v5h-2v-7L848.2,752.1z M854.2,667.1h2v90h-2V667.1z M859.2,667.1
				h2v90h-2V667.1z M864.2,667.1h2v90h-2V667.1z M896.2,679.1h2v78h-2V679.1z M901.2,679.1h2v78h-2V679.1z M906.2,679.1h2v78h-2
				V679.1z"/>
			<path class="st12" d="M828.2,647.1h4v3h-4V647.1z"/>
			<path class="st14" d="M828.2,647.1h1v9h-1V647.1z"/>
			<path class="st14" d="M990.2,680.1h35v3h-35V680.1z M990.2,675.1h35v3h-35V675.1z M990.2,667.1h35v6h-35V667.1z M990.2,685.1h35
				v3h-35V685.1z M990.2,695.1h35v3h-35V695.1z M990.2,758.1l-18-18v-24c-0.1-2.7,2-4.9,4.7-5c0,0,0,0,0,0h13.3v-6h35V725l-9-9v-5
				h-8V708h-10v50L990.2,758.1L990.2,758.1z M990.2,690.1h35v3h-35V690.1z M990.2,700.1h35v3h-35V700.1z M955.2,667.1v90h-36v-88
				c0-3.8,3.1-7,6.9-7h25.1v5L955.2,667.1L955.2,667.1z"/>
			<path class="st12" d="M908.2,836h2v57h-2V836z M904.7,830v63h-2v-56h-39.5v-7H904.7z"/>
			<path class="st15" d="M881.2,837h2v56h-2V837z M887.2,837h2v56h-2V837z M877.2,837v53l-2-2v-51H877.2z M871.2,837v47l-2-2v-45
				H871.2z M865.2,837v41l-2-2v-39H865.2z"/>
			<path class="st12" d="M1003.2,845c-0.1,6.5,5.1,11.9,11.6,12c0,0,0,0,0,0h0.4v-24c-6.5-0.1-11.9,5.1-12,11.6c0,0,0,0,0,0
				C1003.2,844.7,1003.2,844.9,1003.2,845z"/>
			<path class="st12" d="M809.2,731.1h2v8h-2V731.1z M813.2,731.1h2v8h-2V731.1z M817.2,731.1h2v8h-2V731.1z M809.2,742.1h2v8h-2
				V742.1z M813.2,742.1h2v8h-2V742.1z M817.2,742.1h2v8h-2V742.1z M1025.2,673.1h15v2h-15V673.1z M1025.2,678.1h15v2h-15V678.1z
				 M1025.2,683.1h15v2h-15V683.1z M1025.2,688.1h15v2h-15V688.1z M1025.2,693.1h15v2h-15V693.1z M1025.2,698.1h15v2h-15V698.1z
				 M1025.2,703.1h15v2h-15V703.1z"/>
			<path class="st12" d="M1011.2,935v-53h-36v-47h7v-4h-12v4h-17v42L1011.2,935z"/>
			<path class="st15" d="M930.2,874h3v9h-3V874z M936.2,874h3v9h-3V874z M936.2,889h3v9h-3V889z M963.2,840h3v9h-3V840z M969.2,840
				h3v9h-3V840z M969.2,855h3v9h-3V855z M963.2,870h3v9h-3V870z M969.2,870h3v9h-3V870z"/>
			<path class="st12" d="M1022.2,864v3h-11v15l20,20v-38H1022.2z"/>
			<path class="st12" d="M980.2,840h3v9h-3V840z M986.2,840h3v9h-3V840z M980.2,855h3v9h-3V855z M986.2,855h3v9h-3V855z M980.2,870
				h3v9h-3V870z"/>
			<path class="st12" d="M1031.2,869h14v2h-14V869z M1031.2,873h14v2h-14V873z M1031.2,877h14v2h-14V877z"/>
			<path class="st15" d="M924.2,821.4l1.5-1.5l1.5,1.5l-1.5,1.5L924.2,821.4z M932.2,829.5l1.5-1.5l1.5,1.5l-1.5,1.5L932.2,829.5z
				 M940.2,821.5l1.5-1.5l1.5,1.5l-1.5,1.5L940.2,821.5z M1023.2,821.5l1.5-1.5l1.5,1.5l-1.5,1.5L1023.2,821.5z M1031.2,829.4
				l1.5-1.5l1.5,1.5l-1.5,1.5L1031.2,829.4z M926.7,840l-1.5-1.4l1.5-1.6l1.5,1.6L926.7,840z"/>
			<path class="st12" d="M828.2,833h2v17h-2V833z"/>
			<path class="st15" d="M949.2,837.5c0-1.4-1.1-2.5-2.5-2.5h0c-1.4,0-2.5,1.1-2.5,2.5v22.1c0,1.4,1.1,2.5,2.5,2.5h0
				c1.4,0,2.5-1.1,2.5-2.5L949.2,837.5L949.2,837.5z M1011.2,869h20v2h-20V869z M1011.2,873h20v2h-20V873z M1011.2,877h20v2h-20V877
				z"/>
			<path class="st14" d="M909.2,953.2v4.8h-4.8c-0.4,0-0.7-0.4-0.7-0.8c0,0,0-0.1,0-0.1c0-0.1,0.1-0.2,0.2-0.3l2.3-2.3
				C907,953.7,908.1,953.2,909.2,953.2L909.2,953.2L909.2,953.2z"/>
			<path class="st15" d="M801.2,821.5l1.5-1.5l1.5,1.5l-1.5,1.5L801.2,821.5z M806.2,829.4l1.5-1.5l1.5,1.5l-1.5,1.5L806.2,829.4z
				 M820.2,821.4l1.5-1.5l1.5,1.5l-1.5,1.5L820.2,821.4z M855.2,821.4l1.5-1.5l1.5,1.5l-1.5,1.5L855.2,821.4z M828.2,855h2v54h-2
				V855z M833.2,864h2v45h-2V864z M838.2,875h2v34h-2V875z M823.2,864h2v45h-2V864z M818.2,875h2v34h-2V875z"/>
			<ellipse class="st12" cx="848.3" cy="962.9" rx="11" ry="11"/>
			<path class="st19" d="M910.2,965.7h-3.9c-0.4,0-0.7-0.3-0.7-0.7c0-0.2,0.1-0.3,0.2-0.5l1.2-1.2c0.6-0.6,1.3-1,2.1-1.1h0.3v1.8
				C909.5,964.7,909.8,965.3,910.2,965.7L910.2,965.7z M876.6,962h-2.3c-1,0-1.8,0.8-1.8,1.7c0,1,0.8,1.8,1.8,1.8c0,0,0,0,0,0h6.1
				c0.4,0,0.7-0.3,0.7-0.7c0-0.2-0.1-0.3-0.2-0.5l-1.2-1.2C878.8,962.4,877.7,962,876.6,962L876.6,962z"/>
			<ellipse class="st14" cx="848.2" cy="962.9" rx="8" ry="8"/>
			<circle class="st14" cx="848.2" cy="963.4" r="1.3"/>
			<path class="st15" d="M851.7,959.8l-3.5,3.5l3.5,3.5c1.9-1.8,2-4.9,0.2-6.8c0,0,0,0,0,0L851.7,959.8z M844.7,966.9l3.5-3.5
				l-3.5-3.5c-1.9,1.8-2,4.9-0.2,6.8c0,0,0,0,0,0L844.7,966.9z"/>
			<path class="st19" d="M822,942h-36.8v-13h7.9c2.4,0,4.8,0.2,7.1,0.7c3.5,0.8,6.9,2,10.1,3.7c0,0,7.4,4.2,12.2,6.6
				c0.5,0.3,0.7,0.9,0.4,1.5C822.8,941.7,822.4,942,822,942L822,942z"/>
			<path class="st12" d="M822.4,942c-3.1-1.4-7.4-3.7-10.1-5.1c-0.8-0.4-1.8-0.1-2.2,0.6c-0.1,0.2-0.2,0.5-0.2,0.8v5.5h12
				c0.6,0,1-0.4,1-1C822.9,942.5,822.7,942.1,822.4,942z"/>
			<path class="st14" d="M793.1,931c2.3,0,4.6,0.2,6.8,0.6c3.3,0.7,6.5,1.9,9.5,3.5c0.5,0.3,4.8,2.7,8.8,4.9h-33v-9L793.1,931
				 M793.1,928.9h-7.9v13H822c0.6,0,1.1-0.5,1.1-1.1c0-0.4-0.2-0.7-0.5-0.9c-4.7-2.4-12.2-6.6-12.2-6.6c-3.2-1.7-6.6-2.9-10.1-3.7
				C797.9,929.2,795.5,928.9,793.1,928.9L793.1,928.9z"/>
			<path class="st14" d="M785.2,964.4h50v2h-50V964.4z"/>
			<circle class="st14" cx="893.7" cy="949.5" r="1.5"/>
			<path class="st12" d="M898.3,967.9h-8c-0.5,0-1-0.4-1-0.9c0,0,0-0.1,0-0.1v-2c0-0.5,0.4-1,0.9-1c0,0,0,0,0,0h8.1
				c0.5,0,1,0.4,1,0.9c0,0,0,0.1,0,0.1v2c0,0.5-0.4,1-0.9,1c0,0,0,0,0,0H898.3L898.3,967.9z"/>
			<path class="st19" d="M882,963.1l2.3,2.3c0.1,0.1,0.3,0.2,0.4,0.2h17.1c0.2,0,0.3-0.1,0.4-0.2l2.3-2.3c0.2-0.2,0.2-0.6,0-0.8
				c-0.1-0.1-0.3-0.2-0.4-0.2h-21.8C881.9,962,881.7,962.7,882,963.1L882,963.1z M854.1,941.5h-13.8l-12-12
				c4.9,0.4,9.7,1.7,14.2,3.9l12.2,6.1c0.5,0.2,0.8,0.7,0.7,1.3C855.2,941.3,854.7,941.6,854.1,941.5L854.1,941.5z"/>
			<pattern  id="SVGID_4_" xlink:href="#d___-824473781" patternTransform="matrix(1 0 0 1 -1029.72 16594.875)">
			</pattern>
			<path class="st21" d="M788.2,953.4h2v2h-2V953.4z M793.2,953.4h2v2h-2V953.4z M798.2,953.4h2v2h-2V953.4z M803.2,953.4h2v2h-2
				V953.4z M808.2,953.4h2v2h-2V953.4z M813.2,953.4h2v2h-2V953.4z M818.2,953.4h2v2h-2V953.4z M823.2,953.4h2v2h-2V953.4z
				 M828.2,953.4h2v2h-2V953.4z M788.2,958.4h2v2h-2V958.4z M785.2,953.4h1v2h-1V953.4z M785.2,958.4h1v2h-1V958.4z M793.2,958.4h2
				v2h-2V958.4z M798.2,958.4h2v2h-2V958.4z M803.2,958.4h2v2h-2V958.4z M808.2,958.4h2v2h-2V958.4z M813.2,958.4h2v2h-2V958.4z
				 M818.2,958.4h2v2h-2V958.4z M823.2,958.4h2v2h-2V958.4z M830.2,958.4h-2v2C829.3,960.4,830.2,959.5,830.2,958.4z"/>
			<path class="st14" d="M857.2,656.1v11h-6v88l-3-3v-85h-2v83l-3-3v-80h-2v78l-3-3v-75h-2v73l-3-3v-70h-2v68l-3-3v-65h-2v63l-4-4
				v-59h4v-11L857.2,656.1L857.2,656.1z"/>
			<path class="st14" d="M905,951.9h-23.6c-0.3,0-0.5,0.3-0.5,0.5c0,0,0,0.1,0,0.1c0,0.1,0,0.1,0.1,0.1l5.9,5.9
				c0.2,0.2,0.4,0.3,0.7,0.3h11.2c0.3,0,0.5-0.1,0.7-0.3l5.9-5.9c0.2-0.2,0.1-0.5-0.1-0.7C905.2,952,905.1,951.9,905,951.9
				L905,951.9z M893.2,957.9h-5.6l-2-2h7.6V957.9z M893.2,954.9h-8.6l-2-2h10.6V954.9z M898.8,957.9h-4.6v-2h6.6L898.8,957.9z
				 M901.8,954.9h-7.6v-2h9.6L901.8,954.9z M877.8,953.4H876c-0.8,0-1.6-0.3-2.1-0.9l-0.5-0.5c-0.4-0.4-0.9-0.6-1.4-0.6h-5.8
				c-0.6,0-1,0.5-1,1c0,0.2,0.1,0.5,0.3,0.7l3.9,3.8c0.9,0.9,2.2,1.4,3.5,1.4h8.3c0.6,0,1-0.5,1-1c0-0.2-0.1-0.5-0.3-0.7l-2.7-2.7
				C878.8,953.6,878.3,953.4,877.8,953.4L877.8,953.4z"/>
			<path class="st12" d="M785.2,627.1c0-35.9,29.1-65,65-65c35.9,0,65,29.1,65,65"/>
			<path class="st13" d="M850.2,598.1c-16,0-29,12.9-29,28.9h4c0-13.8,11.2-25,25-25c13.8,0,25,11.2,25,25h4
				C879.2,611.1,866.2,598.1,850.2,598.1L850.2,598.1L850.2,598.1z"/>
			<path class="st13" d="M850.2,610.1c-9.4,0-17,7.6-17,17l0,0h4c0-7.2,5.8-13,13-13s13,5.8,13,13l0,0h4
				C867.3,617.7,859.7,610.1,850.2,610.1L850.2,610.1L850.2,610.1L850.2,610.1z"/>
			<path class="st13" d="M850.2,622.1c-2.7,0-5,2.2-5,4.9v0.1h10C855.2,624.4,853,622.2,850.2,622.1L850.2,622.1L850.2,622.1z"/>
			<path class="st13" d="M850.2,616.1c-6.1,0-11,4.9-11,10.9v0.1h4.1c0-3.9,3.1-7,7-7c3.9,0,7,3.1,7,7h4c0-6.1-4.9-11-11-11H850.2
				L850.2,616.1z"/>
			<path class="st13" d="M850.2,604.1c-12.7,0-23,10.3-23,23h4c0-10.5,8.5-19,19-19c10.5,0,19,8.5,19,19h4
				C873.2,614.4,862.9,604.1,850.2,604.1z"/>
			<path class="st13" d="M850.2,562.2c-35.9,0-65,29.1-65,65h4c0-33.7,27.3-61,61-61c33.7,0,61,27.3,61,61h4
				C915.2,591.3,886.1,562.2,850.2,562.2z"/>
			<path class="st13" d="M850.2,568.2c-32.6,0.1-58.9,26.4-59,59h4c0-30.4,24.6-55,55-55c30.4,0,55,24.6,55,55h4
				C909.2,594.6,882.8,568.2,850.2,568.2z"/>
			<path class="st13" d="M850.2,586.1c-22.6,0-41,18.4-41,41l0,0h4c0-20.4,16.6-37,37-37c20.4,0,37,16.6,37,37h4
				C891.2,604.5,872.9,586.1,850.2,586.1C850.2,586.1,850.2,586.1,850.2,586.1z"/>
			<path class="st13" d="M850.2,592.2c-19.3,0-35,15.7-35,35h4c0-17.1,13.9-31,31-31c17.1,0,31,13.9,31,31h4
				C885.2,607.8,869.5,592.2,850.2,592.2z"/>
			<path class="st13" d="M850.2,574.1c-29.3,0-53,23.7-53,53h4.1c0-27.1,22-49,49-49c27.1,0,49,21.9,49,49h4
				C903.2,597.9,879.5,574.2,850.2,574.1z"/>
			<path class="st13" d="M850.2,580.2c-25.9,0-47,21.1-47,47h4c0-23.7,19.3-43,43-43c23.7,0,43,19.2,43,43h4
				C897.2,601.2,876.2,580.2,850.2,580.2z"/>
			<path class="st12" d="M850.2,566.2c-33.7,0.1-60.9,27.3-61,61h2c0-32.6,26.4-59,59-59c32.6,0,59,26.4,59,59h2
				C911.2,593.5,883.9,566.2,850.2,566.2z"/>
			<path class="st12" d="M850.2,572.2c-30.4,0-55,24.6-55,55h2c0-29.3,23.7-53,53-53c29.3,0,53,23.7,53,53h2
				C905.2,596.8,880.6,572.2,850.2,572.2z"/>
			<path class="st12" d="M850.2,578.2c-27,0.1-48.9,22-48.9,49h2c0-26,21-47,47-47c26,0,47,21,47,47h2
				C899.2,600.1,877.3,578.2,850.2,578.2z"/>
			<path class="st12" d="M850.2,584.1c-23.7,0-43,19.3-43,43l0,0h2c0-22.6,18.4-41,41-41c22.6,0,41,18.4,41,41h2
				C893.2,603.4,874,584.1,850.2,584.1C850.2,584.1,850.2,584.1,850.2,584.1z"/>
			<path class="st12" d="M850.2,590.1c-20.4,0-37,16.6-37,37h2c0-19.3,15.7-35,35-35c19.3,0,35,15.7,35,35h2
				C887.2,606.7,870.6,590.1,850.2,590.1z"/>
			<path class="st12" d="M850.2,596.1c-17.1,0-31,13.9-31,31h2c0-16,13-29,29-29c16,0,29,13,29,29h2
				C881.2,610,867.3,596.1,850.2,596.1z"/>
			<path class="st12" d="M850.2,602.1c-13.8,0-25,11.2-25,25h2c-0.3-12.7,9.7-23.3,22.4-23.6c12.7-0.3,23.3,9.7,23.6,22.4v1.2h2
				C875.2,613.3,864,602.1,850.2,602.1z"/>
			<path class="st12" d="M850.2,608.1c-10.5,0-19,8.5-19,19h2c0-9.4,7.6-17,17-17c9.4,0,17,7.6,17,17h2
				C869.2,616.7,860.7,608.1,850.2,608.1z"/>
			<path class="st12" d="M850.2,614.1c-7.2,0-13,5.8-13,13h2c0-6.1,4.9-11,11-11s11,4.9,11,11h2C863.2,620,857.4,614.1,850.2,614.1z
				"/>
			<path class="st12" d="M850.2,620.1c-3.8,0-7,3.2-6.9,7h2c0-2.8,2.2-5,5-5s5,2.2,5,5h2c0-3.8-3.1-7-6.9-7
				C850.3,620.1,850.2,620.1,850.2,620.1z"/>
			<path class="st14" d="M878.2,801h-21l-36-36h50c3.8,0,7,3.1,7,6.9V801L878.2,801z"/>
			<path class="st12" d="M1045.2,751.1h-32.8c-13.2,0-26.1,3.3-37.6,9.7c-7.5,4.1-15.5,7-23.9,8.5l-20.3,3.6
				c-5.5,1-9.6,5.8-9.6,11.4v0.7c0,3.1,1.2,6,3.4,8.2c2.2,2.2,5.1,3.4,8.2,3.4h112.5v-45.5H1045.2z"/>
			<path class="st12" d="M877.2,890v3h-2v-5L877.2,890z M871.2,884v9h-2v-11L871.2,884z M865.2,878v15h-2v-17L865.2,878z"/>
			<path class="st12" d="M1045.2,789h-46c0-7.5-5.5-14-13-14c-7.7,0.2-13.8,6.3-14,14h-15.7v-1h-34v1H922c0.5,1.7,1.4,3.3,2.6,4.6
				c1.9,2.2,4.6,3.4,7.5,3.4h2.4c2.4,2.7,5.9,4.2,9.5,4c3.6,0.2,7.1-1.3,9.5-4h22.7c2.4,2.7,5.9,4.2,9.5,4c3.6,0.2,7.2-1.3,9.6-4h50
				L1045.2,789L1045.2,789z"/>
			<ellipse class="st14" cx="985.7" cy="788.5" rx="8.5" ry="8.5"/>
			<circle class="st14" cx="985.7" cy="788.5" r="1.5"/>
			<path class="st15" d="M991.2,788.5c0,3-2.5,5.5-5.5,5.5v-5.5H991.2z M980.2,788.5c0-3,2.5-5.5,5.5-5.5v5.5H980.2z"/>
			<path class="st14" d="M960.6,791.2h-4.2c-1.2,0-2.3-0.5-3.2-1.3l-1.7-1.7h9.1c0.8,0,1.4,0.7,1.4,1.5
				C962.1,790.5,961.4,791.2,960.6,791.2z"/>
			<path class="st12" d="M1041.7,779.8h1.5v1.5h-1.5V779.8z M1037.9,779.8h1.5v1.5h-1.5V779.8z M1034.1,779.8h1.5v1.5h-1.5V779.8z
				 M1030.3,779.8h1.5v1.5h-1.5V779.8z M1026.5,779.8h1.5v1.5h-1.5V779.8z M1022.7,779.8h1.5v1.5h-1.5V779.8z M1018.9,779.8h1.5v1.5
				h-1.5V779.8z M1015.1,779.8h1.5v1.5h-1.5V779.8z M1011.4,779.8h1.5v1.5h-1.5V779.8z M1007.6,779.8h1.5v1.5h-1.5V779.8z
				 M1003.8,779.8h1.5v1.5h-1.5V779.8z M1041.7,783.6h1.5v1.5h-1.5V783.6z M1037.9,783.6h1.5v1.5h-1.5V783.6z M1034.1,783.6h1.5v1.5
				h-1.5V783.6z M1030.3,783.6h1.5v1.5h-1.5V783.6z M1026.5,783.6h1.5v1.5h-1.5V783.6z M1022.7,783.6h1.5v1.5h-1.5V783.6z
				 M1018.9,783.6h1.5v1.5h-1.5V783.6z M1015.1,783.6h1.5v1.5h-1.5V783.6z M1011.4,783.6h1.5v1.5h-1.5V783.6z M1007.6,783.6h1.5v1.5
				h-1.5V783.6z M1003.8,783.6h1.5v1.5h-1.5V783.6z M1001.5,781.3h-0.6c-0.2-0.5-0.3-1-0.2-1.5h0.8L1001.5,781.3L1001.5,781.3z"/>
			<path class="st12" d="M933.6,792.7h8.6c0.5,0,1-0.4,1-0.9c0,0,0-0.1,0-0.1v-1.8c0-0.5-0.4-1-0.9-1c0,0,0,0,0,0h-8.7
				c-0.5,0-1,0.4-1,0.9c0,0,0,0.1,0,0.1v1.8C932.6,792.3,933.1,792.7,933.6,792.7z"/>
			<path class="st14" d="M925.6,788l-1.5,1.5c-0.5,0.4-1,0.8-1.6,1.1c-0.4-0.8-0.8-1.7-1-2.6L925.6,788L925.6,788z"/>
			<path class="st14" d="M967.4,783.6H951c-0.6,0-1.1-0.5-1.1-1.1c0-0.3,0.1-0.6,0.3-0.8l2.9-2.9c0.8-0.9,2-1.3,3.2-1.3h11
				c1.7,0,3,1.3,3,3c0.1,1.6-1.1,3-2.7,3.1c0,0,0,0,0,0L967.4,783.6L967.4,783.6z M923,778.1c0.4,0.2,0.8,0.5,1.1,0.8l2.9,2.9
				c0.2,0.2,0.3,0.5,0.3,0.8c0,0.6-0.5,1.1-1.1,1.1h-5C921.3,781.7,921.9,779.8,923,778.1L923,778.1z"/>
			<circle class="st14" cx="937.9" cy="779.8" r="3"/>
			<path class="st12" d="M923.3,777.5h33.5v1.5h-34.4L923.3,777.5z M922.1,779.8h34.8v1.5h-35.2
				C921.7,780.8,921.9,780.3,922.1,779.8z"/>
			<path class="st14" d="M1028.1,753.2c-6.7,1.6-13.2,4.1-19.2,7.5c-3.9,2.2-8,4-12.2,5.4h-24c-0.6,0-1.1-0.5-1.1-1
				c0-0.4,0.2-0.8,0.6-1l1.4-0.8c12.2-6.6,25.8-10,39.6-10h14.8L1028.1,753.2L1028.1,753.2L1028.1,753.2z"/>
			<path class="st19" d="M854.1,941.5h-13.8l-12-12c4.9,0.4,9.7,1.7,14.2,3.9l12.2,6.1c0.5,0.2,0.8,0.7,0.7,1.3
				C855.2,941.3,854.7,941.6,854.1,941.5L854.1,941.5z"/>
			<path class="st12" d="M988.8,766.1h-16c-0.6,0-1.1-0.5-1.1-1c0-0.4,0.2-0.8,0.6-1l1.5-0.8c8.4-4.5,17.4-7.6,26.8-9L988.8,766.1z
				 M1045.2,766.1v-12.8c-12.7,0.5-25.1,3.9-36.3,9.9l-1.5,0.8c-0.5,0.3-0.7,0.9-0.5,1.4c0.2,0.4,0.6,0.6,1,0.6h3.2l0.3-0.1l1.5-0.8
				c2.3-1.2,4.7-2.4,7-3.4c0.7-0.4,1.6-0.1,2,0.6c0.1,0.3,0.2,0.5,0.1,0.8v3L1045.2,766.1L1045.2,766.1z"/>
		</g>
	</g>
	<path class="st8" d="M1070.8-81.5c0-24.9-20.1-45-45-45H806c-24.9,0-45,20.1-45,45v549.6c0,24.9,20.1,45,45,45h219.8
		c24.9,0,45-20.1,45-45L1070.8-81.5L1070.8-81.5z M1046.2,448.8c0,2.8-2.2,5-5,5H790.6c-2.8,0-5-2.2-5-5V-60.7c0-2.8,2.2-5,5-5
		h250.6c2.8,0,5,2.2,5,5L1046.2,448.8L1046.2,448.8z"/>
	<path class="st9" d="M923.7,474.3c1.1,0,2,0.9,2,2v16c0,1.1-0.9,2-2,2h-16c-1.1,0-2-0.9-2-2v-16c0-1.1,0.9-2,2-2H923.7
		 M923.7,471.3h-16c-2.8,0-5,2.2-5,5v16c0,2.8,2.2,5,5,5h16c2.8,0,5-2.2,5-5v-16C928.7,473.6,926.5,471.3,923.7,471.3z"/>
	<path class="st9" d="M1025.7-126.4c24.9,0,45,20.1,45,45v549.6c0,24.9-20.1,45-45,45H805.7c-24.8,0-44.9-20.2-44.9-45V-81.4
		c0-24.9,20.1-45,45-45H1025.7 M1025.8-129.4H805.7c-26.5,0-48,21.5-48,48v549.6c0,26.5,21.5,48,48,48h220.1
		c26.5,0,47.9-21.5,47.9-48V-81.4C1073.7-107.9,1052.2-129.4,1025.8-129.4L1025.8-129.4z"/>
	<path class="st9" d="M1025.7,513.1H805.7c-24.6,0-44.6-19.9-44.7-44.6c0,0,0,0,0,0V-81.4c-0.1-13,5.6-25.5,15.4-34
		c-20.8,4.4-35.6,22.8-35.7,44v579.7c0,24.9,20.1,45.2,45,45.4h220c24.9-0.2,45-20.4,44.9-45.4v-2.6
		C1043.2,510.6,1034.6,513.2,1025.7,513.1z"/>
	<path class="st8" d="M321.4,66.7c0-24.9-20.1-45-45-45H56.6c-24.9,0-45,20.1-45,45v549.6c0,24.9,20.1,45,45,45h219.8
		c24.9,0,45-20.1,45-45L321.4,66.7L321.4,66.7z M296.8,597c0,2.8-2.2,5-5,5H41.2c-2.8,0-5-2.2-5-5V87.5c0-2.8,2.2-5,5-5h250.6
		c2.8,0,5,2.2,5,5L296.8,597L296.8,597z"/>
	<path class="st9" d="M276.5,21.7c24.9,0,45,20.1,45,45v549.6c0,24.9-20.1,45-45,45H56.4c-24.8,0-44.9-20.2-44.9-45V66.7
		c0-24.9,20.1-45,45-45H276.5 M276.6,18.7H56.5c-26.5,0-48,21.5-48,48v549.6c0,26.5,21.5,48,48,48h220.1c26.5,0,47.9-21.5,47.9-48
		V66.7C324.5,40.2,303,18.7,276.6,18.7L276.6,18.7z"/>
	<rect x="-1023.8" y="138.5" class="st2" width="260.6" height="514.5"/>
	<g>
		<g>
			<rect x="-1003.5" y="194.8" class="st3" width="220" height="153.2"/>
			<rect x="-1003.5" y="166.1" class="st22" width="220" height="28.7"/>
			<line class="st5" x1="-987" y1="233.6" x2="-893.5" y2="233.6"/>
			<line class="st6" x1="-987" y1="223.6" x2="-940" y2="223.6"/>
			<line class="st5" x1="-987" y1="243.6" x2="-955.3" y2="243.6"/>
			<line class="st6" x1="-986.5" y1="280.1" x2="-917.5" y2="280.1"/>
			<line class="st7" x1="-1003.5" y1="315.1" x2="-783.5" y2="315.1"/>
			<line class="st5" x1="-955.3" y1="330.8" x2="-850.4" y2="330.8"/>
			<line class="st5" x1="-835.3" y1="330.8" x2="-801" y2="330.8"/>
			<line class="st5" x1="-826.2" y1="233.6" x2="-801" y2="233.6"/>
			<path class="st4" d="M-975.8,339.7L-975.8,339.7c-4.9,0-8.9-4-8.9-8.9v0c0-4.9,4-8.9,8.9-8.9l0,0c4.9,0,8.9,4,8.9,8.9v0
				C-966.9,335.7-970.9,339.7-975.8,339.7z"/>
		</g>
		<g>
			<rect x="-1003.5" y="405.7" class="st3" width="220" height="153.2"/>
			<rect x="-1003.5" y="377" class="st22" width="220" height="28.7"/>
			<line class="st5" x1="-987" y1="444.5" x2="-893.5" y2="444.5"/>
			<line class="st6" x1="-987" y1="434.5" x2="-940" y2="434.5"/>
			<line class="st5" x1="-987" y1="454.5" x2="-955.3" y2="454.5"/>
			<line class="st6" x1="-986.5" y1="491" x2="-917.5" y2="491"/>
			<line class="st7" x1="-1003.5" y1="526" x2="-783.5" y2="526"/>
			<line class="st5" x1="-955.3" y1="541.7" x2="-850.4" y2="541.7"/>
			<line class="st5" x1="-835.3" y1="541.7" x2="-801" y2="541.7"/>
			<line class="st5" x1="-826.2" y1="444.5" x2="-801" y2="444.5"/>
			<path class="st4" d="M-975.8,550.6L-975.8,550.6c-4.9,0-8.9-4-8.9-8.9v0c0-4.9,4-8.9,8.9-8.9l0,0c4.9,0,8.9,4,8.9,8.9v0
				C-966.9,546.6-970.9,550.6-975.8,550.6z"/>
		</g>
	</g>
	<path class="st11" d="M-802.4,627.5L-802.4,627.5c-10.5,0-18.9-8.5-18.9-18.9v0c0-10.5,8.5-18.9,18.9-18.9h0
		c10.5,0,18.9,8.5,18.9,18.9v0C-783.5,619-792,627.5-802.4,627.5z"/>
	<path class="st8" d="M-738.6,122.7c0-24.9-20.1-45-45-45h-219.8c-24.9,0-45,20.1-45,45v549.6c0,24.9,20.1,45,45,45h219.8
		c24.9,0,45-20.1,45-45L-738.6,122.7L-738.6,122.7z M-763.2,653c0,2.8-2.2,5-5,5h-250.6c-2.8,0-5-2.2-5-5V143.5c0-2.8,2.2-5,5-5
		h250.6c2.8,0,5,2.2,5,5L-763.2,653L-763.2,653z"/>
	<path class="st9" d="M-783.5,77.7c24.9,0,45,20.1,45,45v549.6c0,24.9-20.1,45-45,45h-220.1c-24.8,0-44.9-20.2-44.9-45V122.7
		c0-24.9,20.1-45,45-45H-783.5 M-783.4,74.7h-220.1c-26.5,0-48,21.5-48,48v549.6c0,26.5,21.5,48,48,48h220.1
		c26.5,0,47.9-21.5,47.9-48V122.7C-735.5,96.2-757,74.7-783.4,74.7L-783.4,74.7z"/>
</g>
</svg>
