<?xml version="1.0" encoding="utf-8"?>
<!-- Generator: Adobe Illustrator 19.2.1, SVG Export Plug-In . SVG Version: 6.00 Build 0)  -->
<svg version="1.1" id="Layer_1" xmlns="http://www.w3.org/2000/svg" xmlns:xlink="http://www.w3.org/1999/xlink" x="0px" y="0px"
	 viewBox="0 0 333 683" style="enable-background:new 0 0 333 683;" xml:space="preserve">
<style type="text/css">
	.st0{fill:#D8D7D6;}
	.st1{fill:#FFFFFF;}
	.st2{fill:#ECECEC;}
	.st3{fill:#F9C02D;}
	.st4{fill:#51A056;}
	.st5{fill:none;stroke:#51A056;stroke-width:3;stroke-miterlimit:10;}
	.st6{fill:none;stroke:#51A056;stroke-width:3;stroke-miterlimit:10;stroke-dasharray:3.0882,20.5882;}
	.st7{fill:none;stroke:#FFFFFF;stroke-miterlimit:10;}
</style>
<g id="Layer_2">
</g>
<g id="Layer_1_1_">
	
		<image style="overflow:visible;opacity:0.25;" width="1442" height="2815" xlink:href="4CABE05DDAD1916A.png"  transform="matrix(0.24 0 0 0.24 -6.5 10.7)">
	</image>
	<g>
		<g>
			<rect x="36.2" y="73.4" class="st0" width="260.6" height="535.4"/>
			<path class="st1" d="M321.4,66.7c0-24.9-20.1-45-45-45H56.6c-24.9,0-45,20.1-45,45v549.6c0,24.9,20.1,45,45,45h219.8
				c24.9,0,45-20.1,45-45V66.7L321.4,66.7z M296.8,597c0,2.8-2.2,5-5,5H41.2c-2.8,0-5-2.2-5-5V87.5c0-2.8,2.2-5,5-5h250.6
				c2.8,0,5,2.2,5,5L296.8,597L296.8,597z"/>
			<path class="st2" d="M276.5,21.7c24.9,0,45,20.1,45,45v549.6c0,24.9-20.1,45-45,45H56.4c-24.8,0-44.9-20.2-44.9-45V66.7
				c0-24.9,20.1-45,45-45L276.5,21.7 M276.6,18.7H56.5c-26.5,0-48,21.5-48,48v549.6c0,26.5,21.5,48,48,48h220.1
				c26.5,0,47.9-21.5,47.9-48V66.7C324.5,40.2,303,18.7,276.6,18.7L276.6,18.7z"/>
			<path class="st3" d="M257.6,573.5L257.6,573.5c-10.5,0-18.9-8.5-18.9-18.9l0,0c0-10.5,8.5-18.9,18.9-18.9l0,0
				c10.5,0,18.9,8.5,18.9,18.9l0,0C276.5,565,268,573.5,257.6,573.5z"/>
			<g>
				<g>
					<rect x="56.5" y="202.9" class="st1" width="220" height="254.9"/>
					<path class="st2" d="M277.5,459.4h-222V201.2h222V459.4z M57.5,457.5h218v-253h-218V457.5z"/>
				</g>
				<g>
					<rect x="56.5" y="173.6" class="st4" width="220" height="28.7"/>
					<path class="st4" d="M277.5,203.2h-222v-30.7h222V203.2z M57.5,201.2h218v-26.7h-218V201.2z"/>
				</g>
				<rect x="56.5" y="427.1" class="st2" width="220" height="1"/>
				<rect x="104.7" y="440.7" class="st2" width="104.9" height="5"/>
				<rect x="224.7" y="440.7" class="st2" width="34.3" height="5"/>
				<path class="st4" d="M84.2,452.1L84.2,452.1c-4.9,0-8.9-4-8.9-8.9l0,0c0-4.9,4-8.9,8.9-8.9l0,0c4.9,0,8.9,4,8.9,8.9l0,0
					C93.1,448.1,89.1,452.1,84.2,452.1z"/>
				<g>
					<g>
						<g>
							<line class="st5" x1="60.5" y1="224.6" x2="62" y2="224.6"/>
							<line class="st6" x1="82.6" y1="224.6" x2="261.7" y2="224.6"/>
							<line class="st5" x1="272" y1="224.6" x2="273.5" y2="224.6"/>
						</g>
					</g>
					<g>
						<g>
							<line class="st5" x1="60.5" y1="257.9" x2="62" y2="257.9"/>
							<line class="st6" x1="82.6" y1="257.9" x2="261.7" y2="257.9"/>
							<line class="st5" x1="272" y1="257.9" x2="273.5" y2="257.9"/>
						</g>
					</g>
					<g>
						<g>
							<line class="st5" x1="60.5" y1="291.3" x2="62" y2="291.3"/>
							<line class="st6" x1="82.6" y1="291.3" x2="261.7" y2="291.3"/>
							<line class="st5" x1="272" y1="291.3" x2="273.5" y2="291.3"/>
						</g>
					</g>
					<g>
						<g>
							<line class="st5" x1="60.5" y1="324.6" x2="62" y2="324.6"/>
							<line class="st6" x1="82.6" y1="324.6" x2="261.7" y2="324.6"/>
							<line class="st5" x1="272" y1="324.6" x2="273.5" y2="324.6"/>
						</g>
					</g>
					<g>
						<g>
							<line class="st5" x1="60.5" y1="357.9" x2="62" y2="357.9"/>
							<line class="st6" x1="82.6" y1="357.9" x2="261.7" y2="357.9"/>
							<line class="st5" x1="272" y1="357.9" x2="273.5" y2="357.9"/>
						</g>
					</g>
					<g>
						<g>
							<line class="st5" x1="60.5" y1="391.2" x2="62" y2="391.2"/>
							<line class="st6" x1="82.6" y1="391.2" x2="261.7" y2="391.2"/>
							<line class="st5" x1="272" y1="391.2" x2="273.5" y2="391.2"/>
						</g>
					</g>
					<g>
						<g>
							<line class="st5" x1="60.5" y1="424.6" x2="62" y2="424.6"/>
							<line class="st6" x1="82.6" y1="424.6" x2="261.7" y2="424.6"/>
							<line class="st5" x1="272" y1="424.6" x2="273.5" y2="424.6"/>
						</g>
					</g>
				</g>
				<g>
					<path class="st7" d="M254,197L254,197c-5,0-9.1-4.1-9.1-9.1l0,0c0-5,4.1-9.1,9.1-9.1l0,0c5,0,9.1,4.1,9.1,9.1l0,0
						C263.1,192.9,259,197,254,197z"/>
					<polyline class="st7" points="248.2,187.1 252.6,191.5 259.8,184.3 					"/>
				</g>
				<g>
					<circle class="st0" cx="166.5" cy="292.6" r="24.3"/>
					<path class="st0" d="M166.5,327.7L166.5,327.7c-25.4,0-46,20.6-46,46v1.3h92v-1.3C212.5,348.2,191.9,327.7,166.5,327.7z"/>
					<path class="st4" d="M151.9,296.9c9.7,6.4,19.5,6.4,29.2,0c0,0,0,12.3-14.6,12.3S151.9,296.9,151.9,296.9z"/>
				</g>
			</g>
		</g>
	</g>
</g>
</svg>
