<?xml version="1.0" encoding="utf-8"?>
<!-- Generator: Adobe Illustrator 19.2.1, SVG Export Plug-In . SVG Version: 6.00 Build 0)  -->
<svg version="1.1" id="Layer_1" xmlns="http://www.w3.org/2000/svg" xmlns:xlink="http://www.w3.org/1999/xlink" x="0px" y="0px"
	 viewBox="0 0 333 683" style="enable-background:new 0 0 333 683;" xml:space="preserve">
<style type="text/css">
	.st0{fill:#D8D7D6;}
	.st1{fill:#FFFFFF;}
	.st2{fill:#ECECEC;}
	.st3{fill:#F9C02D;}
	.st4{fill:none;stroke:#EAA022;stroke-width:4;stroke-miterlimit:10;}
	.st5{fill:#F9C02D;stroke:#EAA022;stroke-width:4;stroke-miterlimit:10;}
	.st6{fill:none;}
	.st7{fill:#F9C02D;stroke:#EAA022;stroke-width:3;stroke-miterlimit:10;}
	.st8{fill:#F9C02D;stroke:#EAA022;stroke-width:2;stroke-miterlimit:10;}
	.st9{fill:none;stroke:#EAA022;stroke-miterlimit:10;}
	.st10{fill:none;stroke:#EAA022;stroke-width:2;stroke-miterlimit:10;}
	.st11{opacity:0.5;fill:none;stroke:#EAA022;stroke-width:3;stroke-miterlimit:10;enable-background:new    ;}
</style>
<rect x="36.2" y="80.3" class="st0" width="260.6" height="521.7"/>
<g>
	
		<image style="overflow:visible;opacity:0.25;" width="1416" height="2790" xlink:href="B4419D328E5220C9.png"  transform="matrix(0.24 0 0 0.24 -3.4 13.7)">
	</image>
	<g>
		<path class="st1" d="M321.4,66.7c0-24.9-20.1-45-45-45H56.6c-24.9,0-45,20.1-45,45v549.6c0,24.9,20.1,45,45,45h219.8
			c24.9,0,45-20.1,45-45V66.7L321.4,66.7z M296.8,597c0,2.8-2.2,5-5,5H41.2c-2.8,0-5-2.2-5-5V87.5c0-2.8,2.2-5,5-5h250.6
			c2.8,0,5,2.2,5,5L296.8,597L296.8,597z"/>
	</g>
</g>
<path class="st2" d="M276.5,21.7c24.9,0,45,20.1,45,45v549.6c0,24.9-20.1,45-45,45H56.4c-24.8,0-44.9-20.2-44.9-45V66.7
	c0-24.9,20.1-45,45-45L276.5,21.7 M276.6,18.7H56.5c-26.5,0-48,21.5-48,48v549.6c0,26.5,21.5,48,48,48h220.1
	c26.5,0,47.9-21.5,47.9-48V66.7C324.5,40.2,303,18.7,276.6,18.7L276.6,18.7z"/>
<path class="st3" d="M255.1,571.5L255.1,571.5c-10.5,0-18.9-8.5-18.9-18.9l0,0c0-10.5,8.5-18.9,18.9-18.9l0,0
	c10.5,0,18.9,8.5,18.9,18.9l0,0C274,563,265.5,571.5,255.1,571.5z"/>
<path class="st4" d="M172.5,367.4L172.5,367.4c42.8,0,77.5-34.7,77.5-77.5l0,0c0-42.8-34.7-77.5-77.5-77.5l0,0
	c-42.8,0-77.5,34.7-77.5,77.5l0,0C95,332.7,129.7,367.4,172.5,367.4z"/>
<path class="st5" d="M166.5,359L166.5,359c42.8,0,77.5-34.7,77.5-77.5l0,0c0-42.8-34.7-77.5-77.5-77.5l0,0
	c-42.8,0-77.5,34.7-77.5,77.5l0,0C89,324.3,123.7,359,166.5,359z"/>
<line class="st4" x1="193.7" y1="354.1" x2="197.1" y2="363.4"/>
<line class="st4" x1="213.3" y1="343.3" x2="219" y2="352"/>
<line class="st4" x1="229.1" y1="327.2" x2="236.2" y2="334.1"/>
<line class="st4" x1="240.3" y1="305.3" x2="247.3" y2="310.2"/>
<line class="st4" x1="150.1" y1="357.3" x2="149.2" y2="363.8"/>
<line class="st4" x1="171.6" y1="359" x2="172.5" y2="367.4"/>
<g>
	<path class="st4" d="M139.5,312.6c-1.3,0-3.3-0.1-4.5-0.4c-1.7-0.5-3.2-1.3-4.6-2.4c-1-0.7-1.9-1.6-2.8-2.5c-0.9-0.9-1.7-2-2.3-3
		c-0.7-1.1-1.2-2.2-1.7-3.5c-0.4-1.2-0.7-2.4-0.7-3.5c0-0.6,0-1.1,0-1.7c0-0.4,0.1-0.8,0.1-1.1c-0.2-0.6-0.3-1.1-0.4-1.5
		c-0.2-0.7-0.3-1.3-0.5-2c-0.1-0.7-0.3-1.4-0.4-2.2c-0.1-0.7-0.2-1.5-0.3-2.3c-0.6-5.7,0-11.5,1.6-16.8c1.6-5.6,4.3-10.8,7.7-15.4
		c3.5-4.6,7.7-8.6,12.6-11.6c4.7-3,10-5.1,15.6-6.1c2-0.4,3.9-0.6,5.9-0.6c2-0.1,3.9,0,5.8,0.2c1.8,0.2,3.7,0.6,5.5,1
		c1.6,0.4,3.2,0.9,4.7,1.6c3.8-1.1,7.4-1.7,10.5-1.8c3.4-0.1,6.3,0.4,8.7,1.5c7.3,3.5,8.5,9.8,7.7,15.7c-0.7,5-2.9,9.6-4,11.6
		c0.1,0.3,0.2,0.6,0.2,0.9c0.1,0.6,0.2,1.1,0.3,1.6c0.1,0.6,0.2,1.2,0.3,1.8c0.1,0.4,0.2,1.1,0.2,1.8c0.3,2,0.4,4,0.5,5.9
		c0.1,2,0,3.9-0.1,5.7c-0.8,12.3-6.1,23.5-14.3,30.9C178.6,325.3,159.7,327.8,139.5,312.6L139.5,312.6z"/>
	<path class="st6" d="M166.3,237.2c-0.5,0-0.9,0-1.4,0c-2,0.1-3.9,0.3-5.7,0.6c-5.3,0.9-10.4,2.9-15.2,5.9
		c-4.7,2.9-8.8,6.8-12.3,11.3c-3.4,4.6-5.9,9.6-7.5,15c-1.6,5.3-2.1,10.8-1.6,16.3c0.1,0.8,0.2,1.5,0.3,2.2c0.1,0.6,0.2,1.1,0.3,1.6
		l0.6,2.4c0.1,0.3,0.2,0.6,0.3,1l0.2,0.7l-0.1,1.4c0,0.5,0,0.9,0,1.4c0.1,0.9,0.3,2,0.7,3.2c0.4,1.1,0.9,2.1,1.5,3.2
		c0.6,0.9,1.3,1.9,2.1,2.8c0.8,0.8,1.6,1.6,2.6,2.4c1.3,1,2.8,1.7,4.2,2.2c0.8,0.2,2.4,0.4,4.1,0.4h0.4l0.3,0.3
		c17.6,13.2,36.2,13.9,49.8,1.8c8-7.2,13.1-18.2,13.9-30c0.1-1.9,0.2-3.8,0.1-5.6c0-1.9-0.2-3.8-0.5-5.8c-0.1-0.7-0.2-1.3-0.2-1.7
		c-0.1-0.7-0.2-1.2-0.3-1.8c-0.1-0.3-0.1-0.6-0.2-0.9l-0.1-0.7c0-0.3-0.1-0.5-0.2-0.8l-0.1-0.5l0.2-0.5c1.2-2.2,3.2-6.6,3.8-11.1
		c1-6.8-1.4-11.7-7-14.4c-2.1-1-4.8-1.5-8.1-1.4c-3.1,0.1-6.6,0.7-10.2,1.7l-0.4,0.1l-0.4-0.2c-1.3-0.6-2.8-1.1-4.5-1.5
		c-1.8-0.5-3.5-0.8-5.3-1C169.1,237.3,167.7,237.2,166.3,237.2z"/>
</g>
<path class="st7" d="M148.9,258.6c-5.5,4.9-10.6,10.4-14.7,16.5l0,0l0,0l-0.1,0.1c-2.2,1.1-4.1,2.2-5.7,3.1c-2.2,1.3-4,2.4-5.2,3.2
	l-0.2,0.1v-0.3c0.3-4.6,1.2-9.1,2.8-13.3c1.6-4.4,3.8-8.5,6.6-12.1c3.5-4.6,7.7-8.5,12.6-11.6c4.7-2.9,9.9-5,15.5-6
	c2-0.3,3.9-0.6,5.8-0.6c1.9-0.1,3.9,0,5.8,0.2c1.3,0.1,2.7,0.4,4,0.6c1.3,0.3,2.6,0.6,3.8,1.1l0.3,0.1l-0.4,0.1
	c-1.9,0.7-3.8,1.5-5.8,2.4c-1.9,0.9-3.9,1.9-5.9,2.9C161.5,248.7,154.9,253.3,148.9,258.6z"/>
<path class="st7" d="M151.4,257.4c5.3-4.5,11.1-8.3,16.8-11.4c6.8-3.7,13.6-6.2,19.4-7.5c5.8-1.2,10.7-1.1,14,0.5
	c5.7,2.7,6.7,7.8,6.1,12.7c-0.6,4.9-2.9,9.5-3.9,11.4v0.1h-0.1c-5.8-1.2-11.6-1.8-17.1-2c-6.1-0.2-11.9,0.3-17.5,1.1
	c-6.1,0.9-11.9,2.3-17.1,3.9s-9.9,3.5-14,5.3l-0.4,0.2l0.3-0.4C141.9,266.2,146.5,261.6,151.4,257.4z"/>
<path class="st8" d="M154.1,298.5c1.3,1.7,2.9,3.5,5,5.1c2.4,1.8,5.3,3.4,8.7,4.1c2.9,0.6,6.1,0.7,9.5,0c0.2,0,0.5-0.1,0.7-0.2
	s0.5-0.1,0.7-0.2c16.3-4.6,18.1-22.4,18.1-22.6l0,0l0,0l0,0l0.2-1.8l-1.7,0.9l0,0c-13.4,7.2-42.6,7.5-42.9,7.5l0,0l0,0l0,0h-1.3
	l0.2,1.3c0,0.1,0,0.1,0,0.2s0,0.1,0,0.2C151.7,294.4,152.6,296.4,154.1,298.5L154.1,298.5z M164.5,279.5c0.3-0.6,0.5-1.2,0.5-1.8
	c0-0.7,0-1.3-0.2-1.8c-0.2-0.6-0.5-1.1-0.9-1.6l0,0c-0.4-0.4-0.9-0.8-1.5-1.1c-0.6-0.2-1.2-0.4-1.8-0.4c-1.3,0-2.6,0.6-3.6,1.4
	c-0.5,0.4-0.9,1-1.2,1.6s-0.5,1.2-0.5,1.8c0,0.7,0,1.3,0.2,1.8c0.2,0.6,0.5,1.1,0.9,1.6l0,0c0.4,0.4,0.9,0.8,1.5,1.1
	c0.6,0.2,1.2,0.4,1.8,0.4c0.7,0,1.3-0.1,1.9-0.4c0.6-0.2,1.2-0.6,1.7-1.1l0,0C163.8,280.7,164.2,280.1,164.5,279.5L164.5,279.5z
	 M184.2,276.1c0.2,0.6,0.5,1.1,0.9,1.6s0.9,0.8,1.5,1.1c0.6,0.2,1.2,0.4,1.8,0.4c0.7,0,1.3-0.1,1.9-0.4c0.6-0.2,1.2-0.6,1.7-1.1
	c0.5-0.4,0.9-1,1.2-1.6s0.5-1.2,0.5-1.8c0-0.7,0-1.3-0.2-1.8c-0.2-0.6-0.5-1.1-0.9-1.6l0,0c-0.4-0.4-0.9-0.8-1.5-1.1
	c-0.6-0.2-1.2-0.4-1.8-0.4c-0.7,0-1.3,0.1-1.9,0.4c-0.6,0.2-1.2,0.6-1.7,1.1l0,0c-0.5,0.4-0.9,1-1.2,1.6s-0.5,1.2-0.5,1.8
	C183.9,275,184,275.6,184.2,276.1z"/>
<path class="st5" d="M168.3,305.7c-3.1-0.7-5.7-2.1-7.9-3.8c-1.6-1.2-3-2.6-4-4c-1.3-1.6-2.1-3.1-2.6-4.4v-0.2h0.2
	c3-0.1,10-0.4,17.8-1.4s16.3-2.6,22.6-5.4l0.2-0.1v0.2c-0.5,2.2-1.6,6.1-4,9.8c-2.4,3.7-6.2,7.2-12,8.9c-0.2,0.1-0.5,0.1-0.7,0.2
	c-0.2,0-0.5,0.1-0.7,0.2C173.8,306.4,171,306.3,168.3,305.7z"/>
<path class="st9" d="M139.5,312.6c-1.3,0-3.3-0.1-4.5-0.4c-1.7-0.5-3.2-1.3-4.6-2.4c-1-0.7-1.9-1.6-2.8-2.5c-0.9-0.9-1.7-2-2.3-3
	c-0.7-1.1-1.2-2.2-1.7-3.5c-0.4-1.2-0.7-2.4-0.7-3.5c0-0.6,0-1.1,0-1.7c0-0.4,0.1-0.8,0.1-1.1c-0.2-0.6-0.3-1.1-0.4-1.5
	c-0.2-0.7-0.3-1.3-0.5-2c-0.1-0.7-0.3-1.4-0.4-2.2c-0.1-0.7-0.2-1.5-0.3-2.3c-0.6-5.7,0-11.5,1.6-16.8c1.6-5.6,4.3-10.8,7.7-15.4
	c3.5-4.6,7.7-8.6,12.6-11.6c4.7-3,10-5.1,15.6-6.1c2-0.4,3.9-0.6,5.9-0.6c2-0.1,3.9,0,5.8,0.2c1.8,0.2,3.7,0.6,5.5,1
	c1.6,0.4,3.2,0.9,4.7,1.6c3.8-1.1,7.4-1.7,10.5-1.8c3.4-0.1,6.3,0.4,8.7,1.5c7.3,3.5,8.5,9.8,7.7,15.7c-0.7,5-2.9,9.6-4,11.6
	c0.1,0.3,0.2,0.6,0.2,0.9c0.1,0.6,0.2,1.1,0.3,1.6c0.1,0.6,0.2,1.2,0.3,1.8c0.1,0.4,0.2,1.1,0.2,1.8c0.3,2,0.4,4,0.5,5.9
	c0.1,2,0,3.9-0.1,5.7c-0.8,12.3-6.1,23.5-14.3,30.9C178.6,325.3,159.7,327.8,139.5,312.6L139.5,312.6z"/>
<path class="st9" d="M128.3,298c0,0,1-0.3,2.5-0.4c-0.2,3.6,4.8,4.6,4.8,4.6c-3-1.2-2.9-3.4-2.6-4.4c1.5,0.2,3.1,0.7,4.8,1.7
	C137.8,299.5,132.5,293.7,128.3,298L128.3,298z"/>
<path class="st9" d="M189.2,269.3c-1.4,0-2.7,0.6-3.7,1.5s-1.7,2.2-1.8,3.5c-0.1,1.4,0.3,2.6,1.1,3.5s2,1.5,3.4,1.5s2.7-0.6,3.7-1.5
	s1.7-2.2,1.8-3.5s-0.3-2.6-1.1-3.5C191.8,269.9,190.6,269.3,189.2,269.3L189.2,269.3z"/>
<path class="st9" d="M160.5,272.7c-1.4,0-2.7,0.6-3.7,1.5s-1.7,2.2-1.8,3.5c-0.1,1.4,0.3,2.6,1.1,3.5s2,1.5,3.4,1.5s2.7-0.6,3.7-1.5
	s1.7-2.2,1.8-3.5c0.1-1.4-0.3-2.6-1.1-3.5C163.1,273.2,161.9,272.7,160.5,272.7L160.5,272.7z"/>
<path class="st9" d="M152.5,291.2H151l0.2,1.4c0,0.1,0,0.3,0.1,0.4c0.6,2.7,3.2,7.3,7.7,10.7c4.4,3.4,10.7,5.8,18.3,4.1
	c0.5-0.1,1-0.2,1.5-0.4c16.5-4.6,18.2-22.7,18.2-22.7l0.2-2l-1.8,1C182,290.9,152.6,291.2,152.5,291.2L152.5,291.2z"/>
<path class="st9" d="M194.3,286.7c-12.5,5.6-34.3,6.6-40.4,6.8c0.9,2.4,3.1,5.7,6.6,8.3c4,3.1,9.6,5.2,16.5,3.7
	c0.4-0.1,0.9-0.2,1.4-0.4C190,302,193.4,291.2,194.3,286.7L194.3,286.7z"/>
<path class="st10" d="M205.9,282.5c0.3-3.8,0.1-7.8-0.4-12c-0.2-1.3-0.3-2.6-0.6-3.8c-0.2-1-0.4-2-0.6-2.9
	c-12.4-2.6-24.2-2.5-34.7-0.9c-14,2-25.8,6.6-34.3,10.8c0.4,9.9,2.1,14.7,7.2,23.1l-5.9-4.5c0,0-7.2-5.7-11.9,0.5
	c-1,1.3-1.4,3-1.3,4.7c0.1,1.9,0.9,3.9,2.1,5.8s2.7,3.7,4.6,5c2.4,1.8,5.3,2.8,8.1,2.4l0.6-0.1l0.4,0.4
	c10.8,10.7,27.8,14.4,41.7,8.8c4.8-2,9.2-4.8,12.9-8.6C201.4,303.1,205.2,292.7,205.9,282.5L205.9,282.5z"/>
<path class="st3" d="M194.4,286.9c-12.5,5.6-34.3,6.6-40.4,6.8c0.9,2.4,3.1,5.7,6.6,8.3c4,3.1,9.6,5.2,16.5,3.7
	c0.4-0.1,0.9-0.2,1.4-0.4C190,302.2,193.4,291.4,194.4,286.9L194.4,286.9z"/>
<line class="st4" x1="160.1" y1="174.7" x2="160.1" y2="185"/>
<line class="st4" x1="232.7" y1="183" x2="227.8" y2="192.1"/>
<line class="st4" x1="274.9" y1="231.2" x2="265.7" y2="235.9"/>
<line class="st4" x1="100.7" y1="183.9" x2="108" y2="191.2"/>
<line class="st4" x1="172.5" y1="392.4" x2="172.5" y2="402.7"/>
<line class="st4" x1="221.8" y1="377.6" x2="229.1" y2="384.9"/>
<line class="st4" x1="281.7" y1="286.6" x2="271.4" y2="286.5"/>
<line class="st4" x1="260.5" y1="336.8" x2="270.3" y2="340"/>
<line class="st4" x1="71.4" y1="333.4" x2="62.3" y2="338.4"/>
<line class="st4" x1="107.5" y1="373.1" x2="101.2" y2="381.3"/>
<line class="st4" x1="55.2" y1="282.6" x2="65.5" y2="282.7"/>
<line class="st4" x1="76.3" y1="222.5" x2="66.4" y2="219.4"/>
<path class="st11" d="M167,352.4L167,352.4c39.2,0,71-31.8,71-71l0,0c0-39.2-31.8-71-71-71l0,0c-39.2,0-71,31.8-71,71l0,0
	C96,320.6,127.8,352.4,167,352.4z"/>
</svg>
